<svg xmlns="http://www.w3.org/2000/svg" width="197.91" height="195.26" viewBox="0 0 197.91 195.26">
  <defs>
    <style>
      .cls-1 {
        fill: #194159;
      }

      .cls-2 {
        fill: #f9f6f0;
      }
    </style>
  </defs>
  <g id="Layer_2" data-name="Layer 2">
    <g id="Layer_1-2" data-name="Layer 1">
      <g>
        <path class="cls-1" d="M197.85,171.6a41.44,41.44,0,0,1-2.22,15.83,8.52,8.52,0,0,1-2,3.52,8,8,0,0,1-3.58,1.66c-6.74,1.73-13.74,1.94-20.68,2.11q-73.66,1.78-147.32-2.34c-5.82-.32-12.12-.88-16.45-5C.08,182.11-.14,173.14,0,165.25q1-43.07,2-86.15c.54-23,1.09-46,.06-69-.21-4.66,5.53-6.56,9.94-6.94a894,894,0,0,1,180.49,3C191.86,61.37,194.86,116.51,197.85,171.6Z"/>
        <path d="M98.25,141.09c-.16.06-.22-.24-.13-.4s.22.24.14.41Z"/>
        <path class="cls-2" d="M43.39,62.5a10.23,10.23,0,0,1-3.77-2.22,14.58,14.58,0,0,1-2.37-3.55l-5-9.25A13.23,13.23,0,0,1,30.84,44a4.53,4.53,0,0,1,.61-3.59c1.44-1.91,4.59-1.72,5.77-3.82a8.58,8.58,0,0,1,8.15-4.09,13.64,13.64,0,0,1,8.35,4.36,11,11,0,0,1,2.49,3.57A12,12,0,0,1,56.87,43a24.06,24.06,0,0,1-1.54,13c-1.49,3.52-4.26,6.89-7.9,7.17a9.74,9.74,0,0,1-4-.73"/>
        <path class="cls-2" d="M37.3,166.41c-5.22-4.19-4-13.48-3.79-19.83.19.26-.18-.26,0,0-.84-12.48-1.68-25-3.36-37.34-.33-6-3-12.66-1-18.43,1.26-2.24-1.8-3.86-2.54-5.7-1.25-5,5.14-6.23,8.84-5a90.1,90.1,0,0,0,25.82.67c.77-.09,1.15,1,1.28,1.76,1.33,8.85,2.67,17.79,2.09,26.73-.78,12,2.86,24,1.52,35.94-.45,4-1.42,8.22.15,11.87.39.89-.27,1.87-.89,2.59-8.52,11.23-2.52-2.29-28.11,6.74"/>
        <path class="cls-2" d="M166.72,158.65a10.29,10.29,0,0,1-.52,4.67c-.65,1.43-2.23,2.53-3.65,2a17.88,17.88,0,0,0-6-1.14c-2.73-.05-5.5.53-8.18-.05s-5.35-2.87-5.19-5.77c.95-16.88-3.31-34.78-14.6-46.76a10.51,10.51,0,0,0-3.82-2.85,9.63,9.63,0,0,0-4.44-.21,15.86,15.86,0,0,0-8.32,3.24c-3.12,2.63-4.63,6.93-4.89,11.14s.59,8.39,1.42,12.51q2.79,13.71,5.59,27.43a10.15,10.15,0,0,1,.13,5.27c-.58,1.68-2.45,3-4,2.21a23.68,23.68,0,0,0-15.17-2.22c-2.08.39-4.06-.91-5.81-2.14-.45-.31-1-.72-.92-1.29a126.71,126.71,0,0,0-4.92-39.19c-3.36-11.65-3.3-24-3.63-36.17-.09-2.86-.52-6.3-3-7.49,2.29-4.77,8.25-5.7,13.31-6l6.74-.44a2.1,2.1,0,0,1,1.58.32,2.32,2.32,0,0,1,.58,1.22q.93,3.53,1.83,7a46.27,46.27,0,0,1,25.54-7.82,26.36,26.36,0,0,1,12.74,2.8c4,2.21,7.2,5.85,9.88,9.71,6.89,9.87,11.17,21.56,13.7,33.51S166.16,146.41,166.72,158.65Z"/>
      </g>
    </g>
  </g>
</svg>
