<svg xmlns="http://www.w3.org/2000/svg" width="207.48" height="204.7" viewBox="0 0 207.48 204.7">
  <defs>
    <style>
      .cls-1 {
        fill: #194159;
      }

      .cls-2 {
        fill: #f9f6f0;
      }
    </style>
  </defs>
  <g id="Layer_2" data-name="Layer 2">
    <g id="Layer_1-2" data-name="Layer 1">
      <g>
        <path class="cls-1" d="M207.41,179.89a43.41,43.41,0,0,1-2.32,16.6,9.06,9.06,0,0,1-2.06,3.69,8.51,8.51,0,0,1-3.75,1.74c-7.07,1.81-14.41,2-21.68,2.21Q100.37,206,23.16,201.68c-6.1-.34-12.71-.93-17.25-5.24C.08,190.91-.15,181.51,0,173.24q1.07-45.15,2.13-90.31c.57-24.1,1.14-48.23.06-72.32C2,5.72,8,3.73,12.65,3.33A937.88,937.88,0,0,1,201.87,6.51C201.13,64.34,204.28,122.14,207.41,179.89Z"/>
        <g id="Medium_White_Icon" data-name="Medium White Icon">
          <path class="cls-2" d="M185.37,140.11a26.94,26.94,0,0,1,.08,2.84c-.07,1.49-.23,3-.36,4.46-.08,1.05-.15,2.11-.28,3.16s-.29,1.83-.45,2.74c-.24,1.35-.47,2.71-.75,4.05a21.37,21.37,0,0,0-.6,2.32,8.64,8.64,0,0,1-.49,1.72,2.26,2.26,0,0,1-1.33,1.36c-.09,0-.24,0-.28.13-.33.69-.84.41-1.28.53a4.11,4.11,0,0,1-3.41-.87c-1.16-.78-2.36-1.48-3.48-2.39a4.72,4.72,0,0,1-1.09-1.87,4.28,4.28,0,0,1,.12-1.42c0-.15.08-.34,0-.43-.25-.51-.57-1-.79-1.52a5.19,5.19,0,0,1-.7-2.51,4.19,4.19,0,0,0-.18-1.35,1.66,1.66,0,0,1-.09-.95,2.57,2.57,0,0,0-.37-1.74,8.36,8.36,0,0,1-.92-3.39c-.1-1.18-.28-2.35-.37-3.54-.07-.88,0-1.77-.07-2.66,0-.68,0-1.35,0-2,0-1-.06-2.06-.09-3.09v-.07c0-1.48.11-3,.07-4.45,0-1.08-.23-2.16-.34-3.23-.14-1.38-.21-2.77-.38-4.14-.26-2-.1-4.1-.68-6.06a7.25,7.25,0,0,1-.15-1.58l-.09-2.84c0-1.46,0-2.92-.1-4.37-.06-1.2-.26-2.39-.3-3.59s0-2.12.07-3.18c0-.46.11-.92.14-1.39,0-.79.07-1.58.1-2.37,0-1.18.11-2.35.07-3.52s-.18-2.2-.25-3.29a2.52,2.52,0,0,1,.14-.82.94.94,0,0,0,0-1,1.21,1.21,0,0,1,0-.81,9.45,9.45,0,0,0,.42-4.52c-.08-.85-.11-1.72-.2-2.57-.08-.67-.24-1.32-.32-2s-.11-1.1-.14-1.66,0-1.2,0-1.8-.13-1.17-.16-1.76,0-1.24,0-1.87c0-.32,0-.64-.05-1s-.1-.71-.14-1.06-.05-.71-.09-1.06a5.49,5.49,0,0,1,.22-3,4.15,4.15,0,0,0,.22-1.57,20.5,20.5,0,0,1,.09-2.82,10.39,10.39,0,0,0-.05-2c0-.69,0-1.39,0-2.08s.18-1.5.26-2.24a.91.91,0,0,0,0-.44,15.35,15.35,0,0,0-1.23-2.2,2.81,2.81,0,0,1-.39-2.56.66.66,0,0,0,.06-.34c-.09-.7.3-.78.61-1a3,3,0,0,0,.42-.31c.18-.88.3-1.7.46-2.51.42-2.11.92-4.17,2.19-5.64a11.27,11.27,0,0,1,2-2.09,6,6,0,0,1,2.67-1.14,8,8,0,0,1,3.51.76c.37.13.69.79.91,1.32.51,1.2,1,2.46,1.42,3.71.37,1,.75,2.08,1.08,3.15a26.94,26.94,0,0,1,.94,6.69,16,16,0,0,1,.15,1.94,19.73,19.73,0,0,1-.46,4.51,6.19,6.19,0,0,0-.17,2.77c.14,1.36.2,2.74.28,4.12.05.85,0,1.72.1,2.56.1,1.3.24,2.59.36,3.88.08.79.13,1.59.19,2.39.13,1.7.25,3.39.37,5.09.06.94.11,1.89.19,2.83.1,1.17.2,2.34.37,3.49.28,2,.67,3.86.89,5.8a34.41,34.41,0,0,1,.19,4.43c0,1.57-.24,3.14-.23,4.7,0,1.33.22,2.67.34,4,0,.14,0,.29,0,.44,0,1.12,0,2.24,0,3.34s-.25,2-.29,3a37.25,37.25,0,0,0,0,3.81c.06,1.12.27,2.22.41,3.33.17,1.31.32,2.63.48,3.94.06.5.15,1,.16,1.5,0,.91,0,1.81,0,2.71a16.32,16.32,0,0,0,.36,4,9.15,9.15,0,0,1,.3,3.7,5.55,5.55,0,0,0,.08.89c0,1.4,0,2.79,0,4.18C185.2,139.25,185.34,139.67,185.37,140.11Z"/>
          <g>
            <path class="cls-2" d="M158.24,95.87a26.17,26.17,0,0,1,.08,3.07c-.07,1.76-.24,3.52-.35,5.29,0,.34.06.7.06,1s-.06.8-.06,1.2q0,1.47,0,2.94a14.55,14.55,0,0,1-.37,3.56,4.5,4.5,0,0,0-.09.9c0,1.53-.51,2.91-.55,4.41,0,1.34,0,2.69,0,4a21.63,21.63,0,0,1-.38,4.7c-.32,1.33-.73,2.6-1.09,3.9a4,4,0,0,0-.1.59c-.33,1.88-.62,3.77-1,5.6-.32,1.43-.79,2.79-1.22,4.17-.31.95-.64,1.89-1,2.82-.19.54-.44,1.06-.65,1.6-.77,2.13-1.55,4.27-2.31,6.41-.27.76-.48,1.56-.73,2.33-.19.59-.39,1.18-.57,1.77a3.59,3.59,0,0,0-.08.35,23.88,23.88,0,0,1-1.09,2.26,10.34,10.34,0,0,1-2.94,3.28,24.09,24.09,0,0,1-4.19,2.34,8.16,8.16,0,0,1-2.77.78,11.27,11.27,0,0,0-2.07.59,3.19,3.19,0,0,1-1.34,0c-.88-.2-1.75-.5-2.63-.75a8.79,8.79,0,0,1-3-1.94c-.89-.76-1.88-1.32-2.8-2-.75-.58-1.48-1.23-2.2-1.91a18.32,18.32,0,0,1-2.36-2.38,37.67,37.67,0,0,1-2.33-3.75c-.76-1.28-1.46-2.62-2.24-3.9a23.71,23.71,0,0,1-1.29-2.57,20.66,20.66,0,0,1-1.09-3.79c-.44-2-.88-4-1.29-6-.28-1.44-.49-2.91-.74-4.37a2.61,2.61,0,0,0-.35-.82c-.45-.75-.93-1.47-1.39-2.2a1,1,0,0,1,.28-1.07c.74-.62.73-.62.54-1.73-.08-.51-.15-1-.18-1.56a31.15,31.15,0,0,1-.25-3.73,31,31,0,0,0-.33-3.38c-.07-.94-.33-1.86-.47-2.79-.1-.61-.17-1.22-.23-1.84s-.16-1.5-.2-2.25a13.69,13.69,0,0,0,0-1.93,13.46,13.46,0,0,1,.11-2.56c0-1.34-.18-2.7-.29-4-.07-.86-.18-1.72-.25-2.59a31.52,31.52,0,0,1-.26-3.49,18.1,18.1,0,0,1,0-3.12,14.85,14.85,0,0,0,0-2.32c0-.9.1-1.82.14-2.72,0,0,0,0,0,0l.06-6.7c0-.42,0-.85,0-1.28,0-.72.12-1.43.18-2.15a1.21,1.21,0,0,0,0-.38,14,14,0,0,1,.07-3.77,5.7,5.7,0,0,0-.06-.58c-.07-.89-.12-1.77-.2-2.66a1.72,1.72,0,0,0-.11-.51,1.59,1.59,0,0,1,0-1.18,3.43,3.43,0,0,0,0-1.07c0-.74,0-1.47-.07-2.2,0-.07-.09-.16-.08-.2a2.63,2.63,0,0,0-.1-2,2.42,2.42,0,0,1,.13-.3,1.34,1.34,0,0,0,.14-.36c0-1.18.1-2.36.07-3.54,0-.43-.22-.83.17-1.14a1.15,1.15,0,0,0-.17-.53,1,1,0,0,1-.18-1c.12-.48,0-1,.18-1.56a6,6,0,0,0-.1-1.6,8.06,8.06,0,0,1,0-1.3c.11-1,.26-2,.41-3,.11-.76.28-1.51.37-2.28s.14-1.48.17-2.21a10.23,10.23,0,0,1,.61-2.73c.38-1.09,1.1-1.23,1.81-1.51a14.36,14.36,0,0,0,2.18-1,11.71,11.71,0,0,1,2.89-1.13c.91-.28,1.82-.49,2.72-.79a17.44,17.44,0,0,1,3.52-.88c1-.11,2-.28,2.93-.37.38,0,.78.12,1.16.1a7.88,7.88,0,0,1,3,.38,8.6,8.6,0,0,0,1.34.16c1,.18,2,.38,2.95.64a8.74,8.74,0,0,1,3.46,1.67,30.48,30.48,0,0,1,2.9,2.8,20,20,0,0,1,2.26,2.77c.84,1.3,1.56,2.75,2.31,4.15.43.77.85,1.55,1.22,2.37.83,1.84,1.75,3.63,2.43,5.57a59.75,59.75,0,0,1,2,6.77c.37,1.71,1,3.32,1.44,5,.34,1.14.68,2.28,1,3.43s.79,2.32,1.09,3.52c.36,1.39.65,2.83.93,4.26s.47,2.67.73,4c.49,2.53,1,5,1.48,7.58C158,92.86,158.12,94.37,158.24,95.87Z"/>
            <path class="cls-2" d="M99.64,105.88c0,1.53,0,3.08,0,4.62,0,.76,0,1.54,0,2.31a26.51,26.51,0,0,1-.44,4.1c-.17,1.24-.27,2.49-.4,3.74-.28,1.91-.48,3.77-.75,5.61s-.58,4-.93,5.91c-.4,2.2-.81,4.39-1.29,6.55a12.89,12.89,0,0,1-1,2.56c-.54,1.14-1.15,2.2-1.72,3.31s-1,2.1-1.54,3.13c-.24.47-.5.92-.77,1.35-.47.7-.93,1.4-1.41,2.07a30.66,30.66,0,0,1-3.67,4.07c-.91.86-1.81,1.76-2.72,2.62a21,21,0,0,1-3.84,2.74c-.93.54-1.9,1-2.86,1.42-.74.33-1.51.57-2.26.9s-1.54.73-2.29,1.15c-1.23.7-2.44,1.5-3.69,2.17a3.7,3.7,0,0,1-1.44.37,15.67,15.67,0,0,1-2.47,0c-1.17-.11-2.32-.33-3.49-.5-.43-.05-.87-.07-1.3-.13s-.94-.15-1.41-.23c-.07,0-.15.07-.23.1a.52.52,0,0,1-.79-.2c-.16-.22-.48-.24-.73-.3a6.87,6.87,0,0,1-2.5-.75c-.08,0-.21.1-.32.1a3.64,3.64,0,0,1-.74,0c-.34-.09-.67-.23-1-.33s-.5.18-.58-.34c0,0-.08,0-.12,0-.73.24-.87.2-1.54-.48a.13.13,0,0,0-.08,0c-1.53-.09-2.78-1.2-4.05-2.19-.87-.66-1.69-1.45-2.55-2.16a30.65,30.65,0,0,1-4-4.43c-1.22-1.51-2.47-3-3.68-4.48-.42-.52-.73-1.18-1.15-1.68a16,16,0,0,1-1.84-3.36c-.3-.61-.52-1.31-.78-2s-.49-1.3-.77-1.93-.51-.93-.74-1.43-.28-.81-.44-1.22-.3-.75-.44-1.14c-.2-.59-.42-1.17-.57-1.79-.31-1.29-.59-2.6-.86-3.9-.14-.64-.21-1.29-.34-1.92-.08-.36-.22-.68-.32-1-.18-.62-.34-1.26-.53-1.88-.09-.26-.27-.48-.34-.75-.12-.49-.15-1-.28-1.51-.32-1.22-.76-2.39-1-3.63a41.5,41.5,0,0,1-1-5.74c0-.54-.2-1.08-.26-1.63s-.06-1.21-.1-1.82c0-.11,0-.27,0-.31-.44-.48-.13-1.12-.18-1.67a17.92,17.92,0,0,0-.34-3.51,10.49,10.49,0,0,1-.22-2.06L22.23,101c-.06-.69-.16-1.39-.18-2.08,0-1.06,0-2.12,0-3.19,0-.77.06-1.55.08-2.33a1.69,1.69,0,0,0,0-.45,17.92,17.92,0,0,1,.1-4.33c0-.23,0-.47,0-.7l.09-3.08c0-1.1,0-2.2.1-3.3.07-1.42.34-2.8.45-4.21a9.31,9.31,0,0,1,.59-1.93c.5-1.76,1.07-3.48,1.55-5.25.27-1,.43-2.06.63-3.09a2.72,2.72,0,0,1,1.13-1.78,11.35,11.35,0,0,1,1.65-1c.2-.11.5-.2.65-.06.59.51,1,.08,1.41-.39a13.86,13.86,0,0,1,2.35-2.2c1.21-.87,2.39-1.85,3.61-2.72s2.62-1.73,3.91-2.65,2.88-1.86,4.35-2.74a35.76,35.76,0,0,1,3.63-1.88c.87-.4,1.79-.64,2.66-1s2-.84,2.94-1.28a24.59,24.59,0,0,0,3-1.42,9.07,9.07,0,0,1,3.62-.87c.95-.13,1.9-.22,2.84-.4s1.84-.42,2.76-.61a11.74,11.74,0,0,1,1.63-.26c1.22-.07,2.44-.16,3.66-.12a11.9,11.9,0,0,1,5,1.13l4.14,2.07a4.72,4.72,0,0,1,1.71,1.82c.47.74,1.08,1.32,1.61,2s.95,1.33,1.43,2c.36.5.72,1,1.07,1.49a30.58,30.58,0,0,1,3,5.45c.72,1.63,1.49,3.22,2.16,4.89.74,1.84,1.4,3.75,2.08,5.64.25.69.54,1.35.73,2.08.49,2,.93,4,1.39,6,.21.89.43,1.76.6,2.66s.27,1.76.43,2.63c.24,1.33.5,2.65.75,4,.16.83.29,1.67.44,2.5s.28,1.41.41,2.13c.07.44.08.89.14,1.32.14,1,.29,2,.42,3s.23,2,.32,2.94C99.42,102.91,99.57,104.38,99.64,105.88Z"/>
          </g>
          <path class="cls-1" d="M26.47,121a.43.43,0,0,1,0-.25l.18.09A.52.52,0,0,1,26.47,121Z"/>
        </g>
      </g>
    </g>
  </g>
</svg>
