<svg xmlns="http://www.w3.org/2000/svg" width="207.48" height="204.7" viewBox="0 0 207.48 204.7">
  <defs>
    <style>
      .cls-1 {
        fill: #194159;
      }

      .cls-2 {
        fill: #f9f6f0;
      }
    </style>
  </defs>
  <g id="Layer_2" data-name="Layer 2">
    <g id="Layer_1-2" data-name="Layer 1">
      <g>
        <path class="cls-1" d="M207.41,179.89a43.41,43.41,0,0,1-2.32,16.6,9.06,9.06,0,0,1-2.06,3.69,8.51,8.51,0,0,1-3.75,1.74c-7.07,1.81-14.41,2-21.68,2.21Q100.37,206,23.16,201.68c-6.1-.34-12.71-.93-17.25-5.24C.08,190.91-.15,181.51,0,173.24q1.07-45.15,2.13-90.31c.57-24.1,1.14-48.23.06-72.32C2,5.72,8,3.73,12.65,3.33A937.88,937.88,0,0,1,201.87,6.51C201.13,64.34,204.28,122.14,207.41,179.89Z"/>
        <g id="Email_Icon" data-name="Email Icon">
          <path class="cls-2" d="M139.27,98.25l0,0"/>
          <path class="cls-2" d="M19.18,60.19c0-2.1-1.38-18.15-.85-19.76,1.46-4.47.09,4.91,0,0,0-1.91.46-4.43,1.84-4.42q77.1.09,154.21.94c1.45-1.6,3.76.08,4.43,2.48s.26,5.07,0,7.62c-.9,8.28-.26,16.72-.14,25.1.45,30.8-4.29,59.16-2.29,89.84a35.42,35.42,0,0,1-.67,8.7s-.46-.07-1.59.83-11.86.47-13.16.37c-39.31-3.17-76.08-.7-115.39-3.86a112.11,112.11,0,0,0-23.46,0c.26-2.56-.64-5.92-.1-8.18M91.66,117c2.63.57,5.28-.72,7.75-2.15,9-5.27,17.36-12.7,25.56-20.21,7.25-6.65,14.49-13.42,21-21.37,2.88-3.5,5.62-7.22,8.36-10.94l13.55-18.4q-30.21-.8-60.44-1.3c-26.69-.45-53.39-.74-80.09-.06,19.1,21.78,38.22,43.58,56.11,67.26,2.37,3.14,4.93,6.47,8.17,7.17m10.66,5.34c-2.93,1.54-6,2.78-9.14,2.63-6.28-.3-11.73-6.1-15.93-12.57q-21.53,22.88-43,45.74c27,2.66,53.23,1.44,80.28,3.44,8.13.61,15.89.3,24,.9,7.36.55,12.5,0,19.86.3C144.84,141.83,133.25,128,117,111.18a59.09,59.09,0,0,1-14.69,11.16m53.45-50.83a157.37,157.37,0,0,1-33.22,34.84c4.06,5.62,9,9.85,13.52,14.71,10.7,11.48,19.16,26.46,29.21,39a4.38,4.38,0,0,0,1.95,1.67C167.5,136,169,110.37,171.7,85c.06-14.45.29-9.63.06-14.45L170.89,52Q163,61.29,155.77,71.51M26.39,76.37c-2.64,25.57,2.13,51.45,1.9,77.27L64,116.09a97.46,97.46,0,0,0,8.51-9.79C64.18,93,55.26,85.57,45.91,73.62h0q-10.5-12.11-20.51-25M150.86,151.44c.38.68.78,1.33,1.2,2,.08.11.18.23.29.18a7.64,7.64,0,0,0-1.49-2.14m-5.73-8.26a3.2,3.2,0,0,0-.57-.8m9.66,13.82c0,.18.22.25.25.07s-.13-.3-.24-.3-.17.28-.06.29"/>
        </g>
      </g>
    </g>
  </g>
</svg>
