<svg xmlns="http://www.w3.org/2000/svg" width="1968.85" height="1856.5" viewBox="0 0 1968.85 1856.5">
  <g id="LinkedIn" transform="translate(1259.305 1187.444)">
    <g id="LinkedIn-2" data-name="LinkedIn" transform="translate(-1259.305 -1187.444)">
      <path id="Path_1548" data-name="Path 1548" d="M18.959,1257.734c2.358-2.251,2.207-4.471.63-6.629-3.256-4.456-3.182-6.308.52-9.42.778-.649,1.827-1.548,1.881-2.392.159-2.455-.525-5.011-.121-7.4.434-2.564,1.781-4.972,2.621-7.481a5.033,5.033,0,0,0,.271-2.642,83.909,83.909,0,0,1-2.657-21.81c.152-8.325-.38-16.526-2.84-24.593-.442-1.446.6-4.135,1.853-5.16,2.919-2.384,1.721-3.564-.238-5.753a13.626,13.626,0,0,1-3.351-7.106c-.875-8.083-.986-16.236-1.793-24.327-.3-3.049,2.8-4.479,2.7-6.418-.1-1.712-3.032-2.947-2.681-5.855.786-6.52-.055-13.508,2.057-19.5,1.431-4.057.482-6.59-.166-10.1s.732-7.372,1.148-11.093c.613-5.48,1.642-10.983,1.6-16.463-.043-5.566,1.41-11.038.314-16.705-.523-2.713.847-5.785,1.387-8.693a50.531,50.531,0,0,0,.138-15.908c-.331-2.556,1.2-5.3,1.245-7.966a42.693,42.693,0,0,0-.969-10.444c-.474-2-.59-2.611,1.58-3.041.958-.188,1.679-1.579,2.507-2.423-1-.719-1.95-1.931-3.023-2.056-2.4-.282-4.514-.211-2.149-3.393.408-.547.836-1.8.612-1.993-5.341-4.706-1.212-4.174,2.21-4.229.092,0,.635-2.384.158-2.885-4.872-5.073-6.171-10.522-4.156-17.526.894-3.111-.694-7.348-2.159-10.624-2.014-4.5-3.581-8.521-.936-13.391.74-1.36-.16-3.885-.826-5.683-1.363-3.682-3.637-7.114-.954-11.21.4-.61-.588-2.071-.81-3.158-.844-4.135-3.352-8.341.665-12.289.444-.438.045-1.72.06-2.611.056-3.338.091-6.684.194-10.022.055-1.775.316-3.541.342-5.316.091-6.254-.33-12.414,2.754-18.409,1.5-2.916.777-6.911,1.326-10.381,1.158-7.3,2.448-14.587,3.77-21.865.656-3.612,1.516-7.184,2.257-10.78,1.337-6.473,2.741-12.945,3.884-19.457a4.064,4.064,0,0,0-1.5-3.174c-1.881-1.438-1.239-2.416.205-3.377,2.7-1.806,3.216-4.331,3.007-7.379-.231-3.369.206-6.793-.128-10.147a30.6,30.6,0,0,0-2.072-9.269c-.879-1.983-2.159-3.029.988-3.609.468-.086,1.225-1.2,1.093-1.565-2.5-6.892.505-13.738.482-20.6-.015-4.359-1.68-9.381,1.148-13.678-4.73-6.313,1.4-13.02-1.025-20.113-2.007-5.869.577-13.373,1.386-20.121s3.815-13.059,2.957-20.223c-.52-4.346.9-8.914,1.357-13.392.448-4.4,2.995-9.01-1.376-13.049-.4-.365.85-2.564,1.4-3.885,2.241-5.4,3.4-10.633-1.842-15.163a2.141,2.141,0,0,1-.243-2.1c.354-.473,1.382-.572,2.123-.59a16.594,16.594,0,0,1,2.666.338,17.728,17.728,0,0,0-.851-3.206c-1.957-4.141-4.116-8.19-5.93-12.389-.243-.564.849-2.288,1.673-2.628,3.72-1.534,4.433-2.113,3.943-4.672-.72-3.756-4.012-6.812-1.908-11.5.6-1.341-3.479-4.409-2.86-7.932.314-1.79.394-2.88,2.587-2.724.7.049,1.466-.838,2.2-1.3a26.728,26.728,0,0,1-2.594-1.772,25.377,25.377,0,0,1-2.1-2.265,11.79,11.79,0,0,1,2.624-.507c.559.013,1.106.553,1.658.856.088-.705.461-1.907.224-2.043-7.689-4.4-4.445-12.292-6.424-18.519-2.928-9.216,2.166-16.936,2.234-25.415,0-.19,1.323-.37,2.419-.163a4.338,4.338,0,0,0,1.84.506l-1.449-.9c-2.268-2.819-3.862-5.8-3.151-9.652,1.077-5.828,1.994-11.687,2.973-17.533a11.774,11.774,0,0,0,.173-1.491c.527-13.854,1.567-27.715,1.36-41.559-.112-7.475-3.148-14.714-5.13-22.008-1.517-5.584-3.838-11.068-2.7-17.274.353-1.917-2.325-4.209-2.821-6.5a137.085,137.085,0,0,1-3.1-18.236,179.263,179.263,0,0,1-.072-20.311c.329-9.171-.123-18.577,1.832-27.424,1.929-8.727,2.5-17.322,2.993-26.122.365-6.484.077-12.907.244-19.3.115-4.414,1.574-9.793.657-13.586-1.568-6.487-.266-12.737-1.086-19.009-.516-3.954-1.364-7.9-1.5-11.862-.314-9.332,1.807-18.45,2.755-27.655.988-9.6-.23-19.466-.923-29.184-.758-10.633-2.881-21.178-1.686-31.923.184-1.657-.366-3.4-.148-5.048.252-1.9,1.253-3.717,1.451-5.619.654-6.284,1.043-12.6,1.651-18.885.138-1.425.9-2.784,1.1-4.211.278-2.011,1.218-4.916.264-5.94-4.162-4.467-1.832-9.936-2.7-14.8-.643-3.62.8-7.813,2.027-11.515,1.743-5.253,5.062-9.933,5.606-15.675.1-1.068,1.2-2.15,2.056-3.018,5.609-5.722,11.322-11.285,19.484-13.34a11.176,11.176,0,0,0,3.771-2.177,38.465,38.465,0,0,1,13.637-6.783c4.343-1.174,7.934-4.382,12.583-5.467,8.249-1.926,16.322-4.6,24.5-6.85,4.224-1.165,8.5-2.143,12.77-3.141,10.026-2.343,19.889-5.277,30.221-6.41,7-.768,13.818-3.1,20.775-4.429,4.408-.844,8.938-1.028,13.384-1.7,5.363-.816,10.685-1.9,16.046-2.74a34.151,34.151,0,0,1,6.112-.334c6.557.169,12.8-1.916,19.129-2.635,7.456-.848,14.732-2.27,22.053-3.651,7.727-1.457,15.442-2.974,23.163-4.46a13.252,13.252,0,0,1,1.472-.218c6.818-.528,13.64-1.016,20.456-1.58,3.975-.329,7.883.406,11.971-1.28,2.643-1.089,6.366.453,9.606.8,1.753.186,3.775.975,5.223.383,6.215-2.539,12.749-.394,18.915-1.574,13.079-2.5,26.582.017,39.593-4.313,6.061-2.017,13.025-1.416,19.592-1.792,10.81-.62,21.781-.154,32.4-1.891,7.957-1.3,15.771-.747,23.632-1.27,7.342-.488,14.674-1.206,22.024-1.466,2.64-.093,5.747-1.347,7.952,1.462,2.2-2.814,5.3-1.559,7.943-1.469,10.824.369,21.646.9,32.331,2.979,2.26.44,4.678.076,7.022.062a104.121,104.121,0,0,1,26.849,3.113,7.822,7.822,0,0,0,1.559.019c11.77.517,23.542.992,35.307,1.584,4.5.227,8.908-.192,13.52,1.226,3.465,1.065,7.8-1.088,11.764-1.179,9.636-.219,19.285.131,28.918-.126,10.473-.28,20.966-.643,31.394-1.595,13.453-1.227,26.68-4.264,40.27-4.743,7.933-.28,15.8-2.089,23.73-2.919,3.317-.347,7.178-.944,9.971.348,4.881,2.256,9.972,1.749,14.308.789a55.944,55.944,0,0,1,15.835-1.081c10.373.66,20.692-.334,31.034-.166,11.2.183,22.4.041,33.606.041s22.412.165,33.614-.07c5.519-.116,11.03-1.016,16.549-1.48,5.261-.443,10.569.734,15.822-1.436,3.377-1.392,7.278.451,11.194-1.305,2.416-1.082,6.254-.16,9.474-.355,10.459-.636,20.934-1.035,31.4-1.628,5.222-.3,10.42-1.083,15.642-1.145,3.729-.044,7.6,1.575,11.171,1,8.216-1.321,16.6-2.472,24.624-1.141,12.343,2.05,24.624.776,36.913,1.233,2.142.08,4.315-.872,6.488-1.232a9.981,9.981,0,0,1,3.792-.209c11.616,2.786,23.327.485,34.9,1.022,7.989.371,16.455-1.657,24.312,1.972,1.29.6,3.088.015,4.651.1,9.686.5,19.527.159,28.994,1.878,5.714,1.037,10.8.215,16.244-.134a45.683,45.683,0,0,1,16.447,1.649c3.838,1.221,7.442,1.214,11.163,1.233,9.342.048,18.464,1.4,27.665,2.966,5.73.979,11.937-1.468,17.557,1.777,7.981-3.752,15.439.093,23.084,1.515a34.736,34.736,0,0,0,5.457.054c21.935.512,43.878.782,65.789,1.654,12.969.516,26.039,1.137,38.8,3.292,10.811,1.826,21.8,1.669,32.535,4.257,7.958,1.918,16.283,2.332,24.46,3.279,9.724,1.126,19.52,1.724,29.174,3.244,11.577,1.822,23.045,4.061,34.8,4.709,7.684.423,15.689.857,22.826,3.346,6.207,2.164,13.508.509,18.832,5.518a3.392,3.392,0,0,0,2.908.342,28.225,28.225,0,0,1,19.856-.027c1.306.457,2.986-.248,4.495-.3,6.809-.25,13.618-.462,20.419-.68,1.259-.04,2.517-.1,3.776-.063q11.773.379,23.545.807a33,33,0,0,1,6.105.377c6.371,1.457,12.461-1.824,19.105-.361,6.465,1.421,13.485.377,20.254.292,9.865-.123,19.5,1.414,29.229,2.9,7.9,1.2,16.135-.1,24.187.362,5.644.325,11.21,1.812,16.83,2.657a20.374,20.374,0,0,0,6.105.293c12.351-1.971,24.663.64,37.022.167,12.742-.487,25.531-.31,38.3-.055,14.376.288,28.791.5,43.1,1.734,6.387.553,12.664-.849,19.285.95,6.551,1.78,13.969.277,21,.451,2.431.06,4.886,1.358,7.254,1.171,4.792-.378,6.52,3.167,7.075,6.25,1.415,7.875,6.5,11.131,13.438,12.9.907.23,2.361,1.4,2.275,1.918-1.485,8.693.555,17.383-.86,26.31-1.188,7.451-3.705,14.524-4.6,21.938-.234,1.979.821,4.081.844,6.131.094,10.942.649,21.93-.141,32.816-.672,9.317-3.205,18.485-4.44,27.782-1.352,10.21-3.065,20.5-2.932,30.74.117,9.711,2.728,19.364,3.674,29.1.922,9.582,1.993,19.171-.641,28.82-1.376,5.023-1.125,10.474-1.767,15.714-.352,2.931-1.29,5.808-1.469,8.74-.281,4.765-2.877,9.2-.344,14.469,1.532,3.176.321,7.683.274,11.591a133.482,133.482,0,0,0,3,28.436c1.251,6.148,1.2,12.565,1.688,18.866.555,7.077,1.259,14.151,1.525,21.239a108.344,108.344,0,0,1-3.033,31.545c-.672,2.613.868,5,.3,8.135a241.2,241.2,0,0,0-3.385,55.7c.578,10.886,1.681,21.769,3.119,32.578,2.025,15.208,5.566,30.2,4.745,45.755-.3,5.734,1.173,11.539,1.345,17.326.133,4.246.578,8.815-.2,12.715-2.189,11.011-1.29,22.17-2.329,33.2-1.188,12.586-2.267,25.635.876,38.432.821,3.34-1.4,7.364-.821,10.842,1.4,8.457,1.649,17.04,2.853,25.431,2.4,16.77.43,33.491,1.274,50.2-3.393,6.78.266,14.569-3.057,21.407-.508,1.055-.094,2.572-.062,3.877a85.829,85.829,0,0,1-3.111,26.063,2.549,2.549,0,0,0,0,1.548c3.439,8.38-2.791,17.221,1.219,25.562-1.274,12.57,4.526,24.124,5.206,36.428.172,3.033,1.454,6.082,1.251,9.052-.36,5.222,2.024,9.6,3.314,14.321,1.024,3.744,2.369,7.442,2.978,11.249.836,5.206,1.212,10.5,1.618,15.759.391,5.011,1.047,10.147,1.188,14.993.313,11.194,1.993,22.529-.985,33.786-1.251,4.745-.837,9.944-1.485,14.97-2.9,22.334-2.83,44.933-1.352,67.291.774,11.726,2.454,23.889,6.723,35.349,1.7,4.55,1.384,9.818,2.228,14.72.875,5.073,2.345,10.053,3.025,15.134,1.266,9.443,1.837,18.98,3.268,28.392,1.868,12.265.2,24.734,1.821,36.835a154.272,154.272,0,0,1,.735,36.866c-.977,9.232.805,18.754-2.392,27.775-.25.711.586,1.743.664,2.65.281,3.033,1.314,6.355.43,9.037-.993,3.025-.016,5.574-.164,8.138-.258,4.409,1.165,8.122,1.853,12.171,1.391,8.107,2.033,16.338,3.276,24.476,1.376,9.021,4.081,17.948,4.432,26.993.711,17.948.211,35.943.211,53.923-4.346,2.611,1.087,6.074-.876,9.318-1.556,2.579-1.626,6.082-2.236,9.2-1.6,8.2-3.346,16.385-4.636,24.64-.891,5.722-1.134,11.538-1.626,17.323-.547,6.551-1.415,13.109-1.485,19.676a172.124,172.124,0,0,0,2.978,32.324c.891,4.925,1.04,9.99,1.673,14.97a16.584,16.584,0,0,0,1.415,4.089c.461,1.11,1.563,2.157,1.563,3.228-.008,7.3-.109,14.579,3.229,21.364-2.838,3.213-.555,6.332-.125,9.662,2.431,18.722,2.283,37.609,1.313,56.378-.3,5.973-1.939,12.3-.813,18.058a83.058,83.058,0,0,1,1.149,12.719,108.138,108.138,0,0,1-2.978,29.995c-1.149,4.839-.79,10.03-1.759,14.939-1.219,6.191-3.08,12.249-4.722,18.355-.117.438-1.063.789-1.016,1.1,1.2,9.217-6.332,15.768-7.317,24.382-1.376,11.976-8.575,21.959-12.234,33.247-3.533,10.89-9.224,21.365-15.564,30.972a57.065,57.065,0,0,1-17.495,16.494c-4.19,2.572-9.631,4.44-14.478,6.387-9,3.611-18.6,5.245-27.392,9.365a30.054,30.054,0,0,1-10,2.2c-8.364.735-16.768,1.024-25.14,1.681-3.19.242-6.34,1.016-9.521,1.5a5.313,5.313,0,0,1-2.329-.016c-8.833-2.939-16.807.641-24.444,3.963-6.473,2.814-13.8,2.877-19.84,6.895-1.079.719-3.049.117-4.612.117-7.817,0-15.642-.2-23.452.055-8.912.289-18.144-.321-26.625,1.845-10.045,2.572-20.575,1.821-30.409,5.7-4.143,1.642-9.67,2.189-13.743.805-3.041-1.032-4.307.789-6.066,1.2-11.491,2.611-23.068.938-34.583,1.157-2.056.039-3.8-1.055-5.394,1.149a2.932,2.932,0,0,1-2.783.532c-5.871-3.1-12.109-1.048-18.151-1.446-34.146-2.267-68.346-1.376-102.523-1.743-5.339-.055-10.639-2.533-15.978-2.627-5.456-.1-10.874.766-15.963-1.931-8.74,3.236-17.839.665-26.7,1.634-3.526.391-6.692-2.525-10.522-.211-3.049,1.837-7.348.383-10.256-.258-9.443-2.087-18.464.946-27.72.618-20.035-.711-40.173.727-60.161-.516-15.963-.993-32.043.227-47.771-1.735-9.5-1.188-19.316,1.251-28.47-2.658-6.348,3.127-13.4-.031-19.59,1.853-4.729,1.438-9.295.664-13.8.985-17.448,1.235-34.982,1.688-52.485,1.735-14.11.039-28.251-.586-42.322-1.673-3.854-.3-7.544.117-11.218-.031-8.677-.352-17.3-2.017-25.937-3.229-1.165-.164-2.376-1.329-3.385-1.125-16.385,3.393-33,1.774-49.374,1.04-10.459-.469-20.966-1.243-31.417-.954-10.811.3-21.693.633-32.426,1.657-13.117,1.251-26.289,1.806-39.352,3.135-24.3,2.478-48.576.727-72.856,1.071-5.8.078-11.64.321-17.464.25-7.028-.094-14.188.782-21.067-.25-6.762-1.024-13.242,1.368-19.84.227-2.666-.461-5.378.75-8.122-1.329-1.352-1.032-4.385.047-6.645.328-.93.117-1.79.915-2.7.962-10.723.579-21.454,1.04-32.177,1.618-5.275.281-10.5-.391-15.855,1.266-3.222,1-7.294-.8-10.994-1.251a8.044,8.044,0,0,0-2.2.32,25.516,25.516,0,0,0,1.365,2.2c.67.884,2.368,2.2-.344,2.048-2.909-.164-6.058-.516-8.589-1.8-2.81-1.423-5.186-2.064-7.492.18-2.931,2.845-6.136,2.47-8.994.61-3.236-2.111-6.62-2.025-10.127-2.033a26.967,26.967,0,0,1-4.641-.141c-1.4-.242-2.7-1.134-4.1-1.36a13.688,13.688,0,0,0-4.656.078c-.289.055-.282,2.7-.36,2.7-3.188-.109-6.526,1.579-9.55-1.11a7.144,7.144,0,0,0-4.715-1.626c-6.561.453-13.091-.829-19.778,1.141-3.569,1.055-8.12-1.235-12.233-1.986-1.7-.312-3.417-.6-5.138-.8-3-.352-2.84.782-1.14,2.564l-2.253,2.111c-6.21-7.356-14.684-4.041-22.293-4.628-3.006-.227-6.083-.9-8.043,3.267-1.269,2.7-9.625,1.923-12.428-.75-2.466-2.353-4.619-4.26-7.637-.829-.4.453-1.928.68-2.088.446-2.228-3.307-5.588-1.923-8.526-2.189-4.489-.407-8.94.43-13.52-1.313-2.689-1.024-6.353.531-9.582.891-1.221.141-3.192.7-3.563.18-3.285-4.628-8.414-1.493-12.088-3.088-6.262-2.713-12.941-.047-19.269-2.533-1.72-.672-5.155.055-7.941-.273-11.519-1.344-23.328-1.134-34.567-3.612-8.219-1.806-16.869.672-24.894-4.018-3.949-2.314-9.8-1.681-14.806-1.79a51.25,51.25,0,0,1-17.546-3.01,4.08,4.08,0,0,0-1.48-.2,56.622,56.622,0,0,1-14.555-1.212c-9.972-2.267-20.586-1.641-30.624-3.713-10.281-2.118-20.465-.68-30.665-1.329-5.771-.359-11.548-.649-17.325-.907-5.911-.258-11.852-.164-17.73-.735-7.933-.766-15.817-2.032-23.727-3.041a6.491,6.491,0,0,0-3.1.031c-5.906,2.447-11.378-.148-16.977-1.274-.478-.094-1.087-.477-1.4-.3-7.023,3.877-13.331-.891-19.967-1.579a44.646,44.646,0,0,0-4.687-.023c-11.725,0-23.551.954-35.146-.266s-23.611,0-34.823-4.425c-10.291,1.665-18.9-7.223-29.322-4.682-2.835.688-6.008.844-8.416,2.267-6.339,3.76-12.182,3.221-18.049-.712a166.341,166.341,0,0,1-25.789-20.833c-2.645-2.666-5.447-5.66-8.782-7.043-5.729-2.392-6.471-7.028-6.98-11.96a30.568,30.568,0,0,1,.061-9.349c.974-4.557-1.314-8.021-3.579-11.046-2.217-2.955-6.518-4.393-5.973-9.2.03-.266-.648-.844-1.042-.891-5.985-.688-7.04-6.113-9.656-10.014-6.291-9.373-12.692-18.675-18.69-28.236-1.478-2.353-1.447-5.62-2.353-8.388-1.35-4.12-2.929-8.161-4.376-12.25a3.86,3.86,0,0,1-.432-2.189c1.237-3.44,1.166-8.263-1.145-10.139-2.86-2.322-3.062-5.089-2.914-8.24.237-5.042.07-10-2.478-14.61-.563-1.016-1.043-2.814-.539-3.572,2.6-3.877-.357-7.52-.239-11.28.116-3.674-.82-7.4-1.474-11.061a10.364,10.364,0,0,0-1.528-3.26c-2.453-4.135-2.089-8.114,1.156-11.5,2.272-2.369,3.006-3.448-.785-5.1-2.729-1.18-2.738-3.752-.511-6.332,4.387-5.081,6.706-10.9,4.861-17.776a2.407,2.407,0,0,1,.01-1.548c5.081-10.077.6-21.31,3.814-31.6.306-.985.554-1.985.859-2.963a47.469,47.469,0,0,0-.681-6.246c-1.694-2.259-.967-6.668,1.566-9.49,2.927-3.26,3.263-4.26.068-5.746-2.531-1.18-2.668-2.462-2.516-4.471.4-5.339-1.96-10.233-2.557-15.283-1.027-8.708-.586-17.6-.466-26.414a5.95,5.95,0,0,1,2.445-4.237c1.657-1.063,5.444-1.118-.027-1.939-.39-.055-.912-.993-.925-1.532-.085-3.385-.126-6.777.023-10.155.032-.735.9-1.431,1.38-2.142.56.633,1.533,1.227,1.6,1.907.214,2.064-.013,4.174.149,6.246.035.446.983,1.141,1.507,1.134a1.921,1.921,0,0,0,1.478-1.173c.19-1.54-.023-3.119.09-4.675.272-3.729-.969-7.614,1.438-11.155.4-.586-.6-2.126-.957-3.228-.688.766-1.387,1.524-2.06,2.306s-1.322,1.587-1.982,2.384c-.383-1.071-1.369-2.4-1.041-3.174a76.747,76.747,0,0,1,4.4-8.333c.794-1.368,2.659-2.642,2.593-3.877a16.559,16.559,0,0,0-2.1-6.871c-3.093-5.6-3.1-10.725,1.587-15.111,2.086-1.954.013-2.04-.387-2.455a11.671,11.671,0,0,1-2.639-12.641c1.923-4.8.833-8.575-.728-12.828-.582-1.587-.893-4.667-.138-5.128,6.839-4.214,2.781-10.194,2.852-15.455.012-.907-.732-1.813-.833-2.752-2.184-20.325-1.5-40.72-1.528-61.1,0-1.368,1.336-2.775,1.236-4.1-.185-2.454,1.627-4.432.557-7.348-.871-2.369-.157-6.817,1.595-8.341,3.732-3.26-2.241-6.441.6-8.716,3.111-2.486,1.894-5.644,2.2-8.99M4.888,1611.463l1.449.117a3.223,3.223,0,0,1-1.449-1.681,10.515,10.515,0,0,0-.037-2.212,5.926,5.926,0,0,0-.889-1.556c-.212.406-.693.907-.59,1.2a43.122,43.122,0,0,1,1.516,4.128M1873.98,864.919c-3.369-3.5-.938-7.114-.25-10.725.8-4.167,4.339-9.1-1.024-12.132-3.213-1.814-2.869-2.853-1.72-5.581,1.212-2.885,2.924-6.785,1.876-9.091-1.438-3.135,0-4.972.672-7.317.125-.438,1.095-.93,1.016-1.094-2.58-5.652-1.227-10.874,1.65-15.939-2.931-5.347-.625-10.561-.047-15.978,1.118-10.4,1.259-20.91,1.712-31.379.148-3.381-.891-7.134.266-10.065,1.329-3.365-1.345-5.943-.3-8.982a18,18,0,0,0,1.313-7.076c-.149-1.746-1.821-3.36-2.822-5.03-1.157-1.928.438-3.864.477-5.746.1-5.063-4.612-10.03-.555-15.176.368-.468-.078-2.169-.672-2.715-3.784-3.445-2.822-7.044-.86-10.935,1.055-2.079,4.151-5.4-1.947-4.94-.32.023-1.157-1.574-1.055-2.33.328-2.673,1.391-5.313,1.376-7.959-.024-2.914-2.017-6.157-1.243-8.67,2.259-7.353.946-14.736,1.329-22.084.227-4.228-.6-8.556,2.494-12.3a4.9,4.9,0,0,0,.555-4.331c-3.807-7.906,1.188-16.266-1.462-24.168,3.541-8.256.993-16.58.258-24.877-.563-6.355-1.118-12.712-1.845-19.049-.618-5.373,2.2-11.4-3.033-15.983-.516-.453-.094-2.006-.063-3.048.117-4.779-.3-9.55-.078-14.341.125-2.677.938-5.556-1.868-7.877-1.04-.855-1.087-3.21-1.134-4.9-.149-4.686.883-9.623-.274-14.011-1.72-6.564-1.986-12.688.133-19.114.774-2.352,1.47-5.421.594-7.482-1.735-4.088.7-7.28,1.071-10.868.4-3.908-1.579-8.365,2.658-11.44a2.078,2.078,0,0,0,.266-2.022c-4.98-6.692,3.08-13.958-.954-20.646,3.51-15.641-.43-31.217-.578-46.826-.055-5.831-2.126-11.617-2.908-17.473-.782-5.832-1.306-11.716-1.563-17.593-.266-5.981.266-12.006-.156-17.969-.4-5.592,2.822-11.113.149-16.714a2.65,2.65,0,0,1,.328-2.154c3.408-5.228,2.728-11.094,2.744-16.849.016-8.338.25-16.685-.078-25.01-.274-6.938-1.993-13.78-2.744-20.627-.8-7.358-5.019-14.5-1.954-22.289a18.7,18.7,0,0,0,1.517-8.681c-1.087-8.784,3.416-16.58,3.854-25.2.313-6.348,2.4-12.9,2.392-19.391-.016-11.51-.9-23.018-1.423-34.527-.008-.26.109-.591-.016-.772-3.424-5.148-.469-10.03,1.032-14.727.852-2.682.227-3.023-1.947-3.288-3.463-.421-7.106-.369-10.327-1.493-12.7-4.428-25.914-4.156-39.008-4.5-14.845-.392-29.713.184-44.55-.169-14.376-.341-28.713.374-43.167-1.119-14.853-1.535-29.854-2.438-44.793-3.315-20.848-1.224-41.767-1.171-62.655-1.8-2.666-.081-5.284-1.284-7.958-1.416-2.533-.126-5.1.743-7.645.7-5.449-.1-10.905-.338-16.33-.842-3.768-.349-7.379.843-11.241.217-4.315-.7-8.841-.009-13.266-.19-10.467-.428-20.934-1-31.394-1.56a5.33,5.33,0,0,1-2.791-.75c-3.51-2.624-7.52-2.417-11.554-2.364-4.424.059-8.857.016-13.281.011-.93,0-14.36-2.942-15.126-3.1a66.934,66.934,0,0,0-8.732-1.538c-9.936-.654-20.411.678-29.7-2.072-11.108-3.288-22.654-1.273-33.637-5.434-6.59-2.5-14.548-1.391-21.88-1.93-6.824-.5-13.7-.614-20.442-1.656-10.733-1.659-21.458-3.064-32.332-3.046-4.237.006-8.6.7-12.281-2.509a4.544,4.544,0,0,0-3.6-.539c-12.2,3.239-24.609.68-36.889,1.484a17.675,17.675,0,0,1-3.854-.124c-6.105-.952-12.171-2.4-18.308-2.893-10.7-.855-21.45-1.135-32.176-1.655a2.635,2.635,0,0,1-.774-.013c-6.754-2.632-13.547-2.7-20.763-1.8-5.621.7-11.632-.267-17.276-1.448-7.684-1.611-15.111-4.585-23.131-1.542-1.126.426-2.775-.721-4.213-.928-5.183-.746-10.592-2.594-15.486-1.7a53.044,53.044,0,0,1-11.147,1.1c-9.17-.293-18.339-.858-27.493-1.534-4.737-.351-9.709,1.488-14.251-1.443-.633-.407-1.915.224-2.908.343-3.228.389-6.918,1.933-9.584.88-4.331-1.714-8.513-1.213-12.742-1.244q-26.571-.193-53.149,0c-5.042.042-9.951-1.36-15.173-.289-3.44.706-7.332-1.259-11.022-1.241-8.662.041-17.26-.036-25.969,1.2C963.612,65.8,951.8,65.485,940.113,66q-18.046.793-36.084,1.562a9.932,9.932,0,0,0-1.563.016,140.9,140.9,0,0,1-29.971,3.1c-23.506-.186-47,.491-70.5-1.333-9.842-.764-19.864,1.036-29.82,1.292-10.155.261-20.322.058-30.482.058a21.222,21.222,0,0,0-4.679.048,116.647,116.647,0,0,1-27.637,3.08c-1.043-.011-2.245-.346-3.1.053-6.841,3.19-14.113,2.93-21.4,3.14-7.609.219-15.31.389-22.759,1.743-3.733.679-7.261-.259-10.428.13-12.851,1.575-25.673,2.976-38.613,2.685-7.088-.159-14.161-.978-21.24-1.5-7.858-.578-15.677.457-23.648-1.264-6.721-1.452-14.1.395-21.015-.5-6.667-.86-13.088-2.342-19.992-1.571-4.876.545-10.011-.58-14.951-1.422-6.128-1.045-12.174.118-18.257.075-6.513-.046-13.047.307-19.535-.1-6.3-.4-12.831,1.82-18.9-1.473-6.09,3.026-12.6,1.009-18.9,1.54-1.811.153-3.681-.207-5.463.065-6.1.933-12.142,2.273-18.26,3.022-6.524.8-13.178.674-19.653,1.716a249.749,249.749,0,0,1-40.414,3.04c-7.3-.017-14.595-.137-21.884.068-2.659.074-6.293,2.3-7.759,1.22-4.739-3.5-9.109.243-13.549.03-9.757-.467-19.558,2.488-29.526,1.847a27.867,27.867,0,0,0-6.042.477c-5.12.805-10.2,1.893-15.333,2.564-5.491.717-11.048.927-16.538,1.649-6.625.869-13.189,2.224-19.821,3.033-6.269.765-12.628.818-18.879,1.681-9.548,1.317-19.052,2.975-28.543,4.665-4.317.769-8.547,2.014-12.838,2.946-5.27,1.144-10.547,2.981-15.848,3.079-7.619.141-14.315,3.526-21.585,4.705-5.819.944-11.65,1.95-17.367,3.366-6.394,1.583-13.245,2.908-13.524,11.788-.069,2.16-1.013,4.278-1.349,6.446-.611,3.939-1.039,7.906-1.6,11.854-.462,3.26-1.653,6.57-1.359,9.75.471,5.1,2.444,10.069,2.8,15.161.508,7.26-.317,14.617.257,21.867.547,6.911-2.724,13.728-.176,20.619.219.591-.232,1.43-.374,2.153-.9,4.577-2.606,9.162-2.562,13.729.17,17.505.89,35,1.448,52.505.03.951.555,1.879.655,2.838a71.123,71.123,0,0,1,.793,9.8c-.112,3.186-1.079,6.331-1.45,9.52-1.011,8.691.556,17.251-2.635,26.242-3.347,9.433-3.16,20.3-3.467,30.575-.249,8.35-1.423,16.845,1.3,25.169,1.514,4.625,2.181,9.528,3.209,14.311,2.365,11.007,4.46,22.08,7.169,33a77.85,77.85,0,0,1,2.312,22.791c-.157,2.587,1.477,5.324,1.165,7.853-1.217,9.836-2.935,19.607-4.374,29.417-1.119,7.634-1.656,15.39-3.374,22.88-.633,2.763-1.767,4.809.12,7.436.467.649-.559,2.278-.711,3.481-.313,2.5-1.459,5.448-.553,7.43,2.292,5.011.955,10.067,1.348,15.074.163,2.072-.532,4.365.127,6.215a57.34,57.34,0,0,1,3.034,19.846,35.449,35.449,0,0,0,.142,5.419c.913,6.111,2.689,12.184,2.835,18.3.357,14.991.443,30-1.365,44.96-.851,7.039-.987,14.162-1.657,21.228-.5,5.3-2.276,10.344-2.156,15.874.115,5.334-2.305,10.7-2.373,16.068-.292,22.924-.15,45.855-.1,68.783.009,4.259,1.476,8.332.153,12.826s-1.241,9.413-1.734,14.15c-.547,5.253-.716,10.569-1.639,15.759-1.849,10.381-4.109,20.684-6.18,31.034C80.3,844.7,79.69,850.911,77.807,856.7c-2.727,8.4-2.762,17.1-4.087,25.64a84.209,84.209,0,0,0-1.211,12.766c0,4.167.877,8.333,1.145,12.515.6,9.42,1.061,18.847,1.6,28.267a18.873,18.873,0,0,0,.423,2.165c.9,5.1,2.209,10.17,2.569,15.314.331,4.737,3.583,9.537.159,14.352-.2.281.164.938.223,1.431.96,8.028,2.031,16.049,2.775,24.1.165,1.782-1.588,3.885-1.15,5.48,1.466,5.355,1.358,10.757,1.167,16.15-.113,3.182-1.163,6.324-1.447,9.521-.537,6.035-.5,12.062-1.244,18.152-1.242,10.2-1.92,20.5-3.421,30.714-.766,5.214.226,10.467-1.377,15.838-1.4,4.675,1,9.795.077,15.1-.963,5.519.813,11.483,1.209,17.268.61,8.9.616,17.87,1.808,26.68.478,3.541-.2,7.215.484,10.225a152.652,152.652,0,0,1,3.992,34.247c-.028,10.686,0,21.364-.012,32.051a37.213,37.213,0,0,1-.149,5.417c-.913,6.113-2.034,12.187-2.956,18.3-1.112,7.379-.286,15.76-3.637,21.88-3.588,6.559-.542,13.563-4.2,19.434.521,14.634.606,29.307,1.7,43.894.893,11.913,3.307,23.7,4.433,35.6.66,6.973-.464,14.126.285,21.075s-.14,13.758-.3,20.606c-.108,4.628-1.591,9.217-2.286,13.844-.851,5.667-2.36,11.437-1.874,17.01.207,2.384-.849,4.323-.489,6.574.408,2.541.762,5.417-.021,7.763-3.419,10.225-1.628,20.786-.978,30.894.639,9.943,1.229,20.036,2.511,30.018,1.093,8.513-2.1,16.94-2.5,25.289-.358,7.45-3.331,14.094-3.67,21.341-.161,3.455-.14,7.317-1.671,10.209-3.515,6.66-1.039,13.5-1,20.035.043,8.2,3.029,16.393,4.7,24.554,2.587,12.633,2.895,25.336,4.347,37.991A57.7,57.7,0,0,0,76.3,1668.63c1.01,2.924,3.237,5.417,4.834,8.153,2.077,3.565,3.624,7.528,6.174,10.7,8.069,10.03,16.817,19.527,24.666,29.721,4.435,5.761,9.623,10.9,12.113,18.417,1.865,5.636,5.362,12.468,14.04,11.132.871-.141,1.861.461,2.79.735,6.021,1.821,11.969,3.948,18.078,5.386,8.354,1.978,17.125,2.6,25.154,5.4,5.7,1.994,11.179,2.267,16.923,2.548,5.009.25,10.082,1.8,14.961,1.259,4.191-.453,7.816-.751,11.5,1.54.948.594,2.544.445,3.773.234,11.183-1.931,21.853,2.6,32.975,2.447,10.326-.141,20.677,1.438,31.014,2.29,3.72.305,7.349-.219,11.183,1.282,3.074,1.212,7.1.141,10.682-.133,2.974-.227,5.98-1.321,8.877-1.047,7.416.711,14.752,2.314,22.172,2.931,10.178.852,20.406,1.11,30.611,1.657,9.426.493,18.85,1.032,28.274,1.548.52.031,1.122-.164,1.551.031,7.164,3.314,15.132,2.494,22.631,4.425,8.153,2.1,16.8,2.243,25.216,3.393,10.828,1.478,21.624,3.189,32.457,4.628,5.488.735,11.353.11,16.469,1.829,7.869,2.642,15.917,1,23.87,2.486,8.5,1.579,17.432.93,26.038,3.354,2.893.813,6.4-.586,9.635-.954a16.262,16.262,0,0,1,3.673-.25c2.685.344,5.34,1.313,8.011,1.329,21.1.109,42.211.227,63.312-.07,4.531-.063,9.039,2.642,13.557.133,8.746,3.221,17.818.844,26.711,1.556,7.594.6,15.322-1.243,22.84,1.462,1.478.539,3.454-.227,5.184-.508,1.444-.227,3.122-1.282,4.25-.836,7.242,2.853,14.736,1.407,22.061,1.337,19.329-.18,38.654-.876,57.979-1.509,2.658-.086,5.792-2.15,7.848-1.274,5.058,2.157,10.092,1.3,15.087,1.227,6.824-.094,13.586.273,20.528-1.094,6.043-1.2,12.719,1.266,19.09,1.11,34.482-.86,69.042,2.322,103.484-2.783,11.288-1.665,22.99-.164,34.513-1.618,7.082-.9,14.368-.711,21.622-.477,6.48.2,13.016-.047,19.558.141,21.411.61,42.823-.344,64.242,1.548,14.821,1.313,29.776,1.173,44.675,1.735,3.627.141,7.239.7,10.866.758,4.049.07,8.364-1.165,12.093-.133,11.437,3.158,22.92-1.509,34.255.922,6.637-2.939,13.641-1.438,20.458-1.422,5.558.008,11.491.274,16.6-.586,11.624-1.962,23.115-.993,34.607-.938,14.368.07,28.7-.86,43.167,1.071,14.446,1.931,29.236,1.2,43.862,1.939,7.9.391,15.931-1.6,23.694,1.235,4.049-3.69,8.06,2.142,11.835.18,4.417-2.306,8.982-1.454,13.469-1.384s9.3,2.283,13.352,1.2c10.006-2.666,19.973-.618,29.916-1.18,3.909-.219,8.013,1.759,11.82,1.243a48.644,48.644,0,0,1,15.47-.1c9.326,1.618,18.972,1.595,28.486,1.822,33.911.813,67.853-1.313,101.772,1.384,5.957.477,12.132,4.268,18.246.258.336-.219.993.008,1.485.1,2.416.461,4.847,1.462,7.223,1.344,9.686-.493,19.4,1.243,29.1-1.306,5.527-1.462,11.523-1.11,17.284-1.767,4.682-.531,9.623-.571,13.938-2.2,9.4-3.541,19.41-3.049,29-5.331,5.918-1.407,12.515.32,18.675-.43,5.621-.688,11.249-.383,16.877-1.063,6.215-.751,12.554-1.5,18.011-3.917,16.393-7.262,33.552-9.678,51.164-10.506,8.388-.391,16.9-.3,25.093-1.821,4.6-.86,9.944-.234,13.93-3.995,3.69-3.479,8.685-6.027,11.233-10.139,3.76-6.066,5.886-13.141,8.638-19.825.821-2,1.415-4.1,2.111-6.16.344,1.775.672,3.549,1.047,5.316.149.711.4,1.4.61,2.095.735-.633,2.111-1.266,2.111-1.9.008-7.489,6.605-12.492,7.309-19.684.2-1.954.109-4.339,1.188-5.714,4.323-5.566,3.838-12.523,5.777-18.738a89.276,89.276,0,0,0,3.58-23.913c.328-10.374,3.869-20.5.109-31.16-.977-2.759.008-7.231.031-10.921a34.723,34.723,0,0,1,.211-6.879c.446-2.189,1.72-4.2,2.462-6.34a4.836,4.836,0,0,0-.18-2.236c-.422-2.423-1.345-4.862-1.243-7.262.234-5.527,1.4-11.038,1.36-16.549-.055-7.082-.954-14.157-1.446-21.239-.547-7.856-1.016-15.72-1.61-23.577a5.393,5.393,0,0,0-1.133-2.634c-2.322-3.088-1.743-6.66-2-10.139-.3-4.151,1.79-8.912-2.885-12.148-.508-.352-.6-2.369-.109-2.9,1.681-1.853.758-3.01.211-5.113-1.227-4.651-.25-9.857-1.321-14.579-1.235-5.456.438-10.975-1.688-16.526a16.1,16.1,0,0,1,.875-11.78c1.837-3.58,2.2-6.129.829-9.787-.93-2.47-.664-5.566-.32-8.3.758-5.871,1.884-11.7,2.9-17.534s2.126-11.64,3.1-17.472c.618-3.674,1.157-7.371,1.563-11.077.625-5.769-.883-11.585,1.384-17.409,1.141-2.939.485-6.723.109-10.068-.328-3,1.618-5.707.234-8.943a8.6,8.6,0,0,1,1.462-9.725c.735-.782,1.454-2.916,1.251-3.057-4.549-3.056-3.713-7.786-4.721-12.257-1.376-6.09-1.853-11.57.117-17.589a7.961,7.961,0,0,0-2.556-9.068c-1.845-1.54-3.877-5.284-3.182-6.9,1.165-2.7-.453-4.487-.453-6.66-.008-2.65-.9-5.308-1.454-7.95-.375-1.837-.821-3.651-1.243-5.48,2.814-.32,2.2-1.579,1.352-3.565a15.966,15.966,0,0,1-1.54-7.114,77.215,77.215,0,0,1,2.212-13.133c.828-3.283.961-5.832-.821-9.177-1.587-2.986-.821-7.215-1.094-10.9,5.222-1.071,1.97-2.806.625-4.933-1.595-2.548-2.7-5.425,1.751-6.91,2.377-.8,1.337-2.8.281-3.94-3.455-3.752-3.166-8.263-3.1-12.82a98.751,98.751,0,0,0,.1-10.436c-.344-3.877-.055-7.809-.086-11.718a12.645,12.645,0,0,0-.289-3.784,58.23,58.23,0,0,1-2.916-17.581c-.149-7.348.125-14.978-1.735-21.958a96.005,96.005,0,0,1-2.892-29.526,9.673,9.673,0,0,0-1.806-6.324c-3.877-5.808-6.332-12.218-3.252-19.52.664-1.571.156-3.979-.531-5.707-1.118-2.8-3.111-13.211-2.111-15.736.516-1.3,2.689-2.111,2.861-3.322.211-1.5-1.087-3.158-1.329-4.808a25.51,25.51,0,0,1-.039-5.464c.3-4.292-2.892,1.016-3.017-1.079-.133-2.251-.289-4.722.461-6.762a16.879,16.879,0,0,0-.539-13.039,15.72,15.72,0,0,1-1.509-6.363c.125-3.745-.2-7.473-.094-11.21.086-3.236-.876-6.707,2.525-9.185.688-.5.876-2.548.469-3.541a22.874,22.874,0,0,1,.031-17.55c.782-2.056.594-4.495.766-6.77.156-2.111.211-4.229.289-6.348.078-2.15.133-4.3.2-6.441.071-2.533,2.822-3.995,3.15-5.519.453-2.118-2.3-4.714-2.634-7.239-.868-6.512-1.157-13.1-1.681-19.66s-.93-13.133-1.65-19.668c-.141-1.313-1.7-2.423-2.134-3.776-.9-2.744-4.565-5.12-1.133-8.654.563-.578-.352-2.744-.8-4.1-.594-1.829-2.251-3.76-1.954-5.355,1.306-6.871-3.611-12.257-4-18.918-.3-5.073-2.564-10.092-1.618-16.174M9.579,1480.134c.714-.2,1.95-.235,2.054-.6a40.668,40.668,0,0,0,1.025-5.636c.017-.125-.654-.352-1.006-.524a35.372,35.372,0,0,0-2.073,6.762M59.609,1237.8a17.456,17.456,0,0,0,.485,1.97c2.279-.32,4.545-.743,6.8-1.2a16.839,16.839,0,0,0,1.989-.665,9.624,9.624,0,0,0-2.451-.844,19.233,19.233,0,0,0-6.826.743M15.832,1375.383c0,.516.2,1.36-.03,1.509-2.926,1.8.85,3.26.224,4.917-.038.1.338.36.521.539a24.312,24.312,0,0,0,.79-4.182,2.792,2.792,0,0,0-1.5-2.783M548.184,19.1a2.847,2.847,0,0,0,.52-.545.656.656,0,0,0-.032-.505c-2.415-.544-4.329-3.449-7.26-1.559a30.632,30.632,0,0,0,6.772,2.609M1909.94,1477.789c-2.994-.446-2.439,1.759-2.244,3.33.07.524,1.3.907,1.993,1.36a8.975,8.975,0,0,0,.25-4.69M1126.655,47.239l-2.345,1.887c.5.413.993.826,1.485,1.24.805-1.042,1.618-2.085.86-3.127m175.887,1775.289c1.376.188,2.752.383,4.12.571.023-.352.219-.883.055-1.04-1.173-1.1-2.165-3.135-4.174.469M79.152,727.336a2.453,2.453,0,0,1,.773.012c1.338.473,2.662.982,3.991,1.479.106-.367.371-1.014.294-1.058a21.5,21.5,0,0,0-3.854-1.925c-.529-.172-1.316.45-1.2,1.492m1869.874,811.427c-.242,0-.633-.1-.711.016-.54.8-1.009,1.634-1.5,2.462,1.517-.047,3.041-.094,4.557-.133-.516-.524-1.04-1.04-2.345-2.345m-68.01-876.31c-.594-.782-1.2-1.563-1.79-2.345l-1.337,1.334a3.8,3.8,0,0,0,3.127,1.011m-1565-608.179,1.794,2.345,1.333-1.333a3.8,3.8,0,0,0-3.127-1.012M18.178,1399.616a5.606,5.606,0,0,0,.723-2,10.969,10.969,0,0,0-.79-2.619A7.868,7.868,0,0,1,17,1396.075c-1.85,1.227-.4,1.939,1.173,3.541m7.035-336.922,1.794,2.345,1.333-1.337a3.8,3.8,0,0,0-3.127-1.008m27.36,19.543a3.383,3.383,0,0,0,.5-.516c.079-.133.035-.336.046-.508-.963.141-1.926.274-2.889.407a2.181,2.181,0,0,0,2.345.618m1852.676,79.735c-.508-.508-1.016-1.024-1.524-1.532-.234.813-.469,1.626-.7,2.431,1-.039,2-.078,2.22-.9m49.249,202.466a26.789,26.789,0,0,0-1.759-2.306c-.086-.094-.758.344-1.157.539a3.82,3.82,0,0,0,2.916,1.767M68.208,449.043a5.623,5.623,0,0,0-1.466.023,23.9,23.9,0,0,0-2.312.889,5.667,5.667,0,0,0,1.935.6,1.737,1.737,0,0,0,1.843-1.513m-9.381,683.225q1.07-1.278,2.14-2.548c-.4-.2-1.072-.633-1.16-.539a3.4,3.4,0,0,0-.98,3.088M1630.865,1836.6c-.141-.664-.281-1.329-.422-1.986l-2.345,2.345a3.774,3.774,0,0,0,2.767-.359M39.284,943.873c-1.119-.258-2.229-.594-3.362-.743-.367-.047-.8.391-1.2.61a5.956,5.956,0,0,0,1.577.875c.7.156,1.464.039,2.982-.743m762.957,900.542c.524-.258,1.047-.524,1.563-.782-.516-.258-1.04-.524-1.563.782M40.847,836c-.828-.219-1.653-.438-2.491-.6-.025-.008-.175.633-.267.969A3.768,3.768,0,0,0,40.847,836M17.4,1422.286c.521-.258,1.042-.524,1.563-.782-.521-.258-1.042-.524-1.563.782M68.989,592.1c-.828-.214-1.653-.438-2.491-.6-.026,0-.175.632-.267.969a3.771,3.771,0,0,0,2.758-.369M54.137,863.356c.659-.141,1.318-.274,1.977-.414-.092-.336-.242-.977-.267-.969-.838.164-1.664.383-1.709,1.384M25.213,1173.7c.138.657.275,1.313.413,1.978.338-.094.974-.242.969-.266-.162-.844-.386-1.665-1.382-1.712m40.649-4.69c.828.211,1.653.438,2.491.6.025,0,.175-.633.267-.969a3.767,3.767,0,0,0-2.758.368M76.025,760.168,78,759.755c-.092-.338-.242-.974-.267-.969-.838.162-1.664.386-1.71,1.382M27.558,1011.883c.261.524.521,1.04.782,1.563.261-.524.521-1.04-.782-1.563m-15.634,486.23c-.215.828-.438,1.649-.6,2.494,0,.024.632.172.969.266a3.771,3.771,0,0,0-.369-2.759m3.909-85.208c.313.211.625.414.938.625-.052-.469-.1-.938-.938-.625M570.854,19.879l.938.625c-.052-.469-.1-.938-.938-.625M33.03,1122.106c-.313-.211-.625-.414-.938-.625.052.469.1.938.938.625m1876.128,370.536c-.312-.211-.625-.414-.938-.625.055.469.109.938.938.625M42.411,1068.949c.313.211.625.414.938.625-.052-.469-.1-.938-.938-.625m4.69-31.269c.313.211.625.414.938.625-.052-.469-.1-.938-.938-.625m-34.4,625.377c.313.211.625.414.938.625-.052-.469-.1-.938-.938-.625m1881.6-679.315c-.2.313-.414.625-.625.938.469-.055.938-.1.625-.938M1880.234,819.58c-.2.313-.414.625-.625.938.469-.055.938-.1.625-.938m7.817,930.248c.211-.313.422-.625.625-.938-.469.055-.938.1-.625.938M48.665,739.062l-.938-.625c.052.469.1.938.938.625M86.187,468.586l-.938-.625C85.3,468.43,85.354,468.9,86.187,468.586Z" transform="translate(0 0)" fill="#4b5673"/>
      <path id="Path_1549" data-name="Path 1549" d="M13.44,1724.313a1.784,1.784,0,0,1-1.12-1.61,35.256,35.256,0,0,1,.8-4.182,12.919,12.919,0,0,0,1.105,1.087C16.372,1721.264,15.4,1722.616,13.44,1724.313Z" transform="translate(-2.688 -375.117)"/>
      <path id="Path_1550" data-name="Path 1550" d="M14.253,1744.424c1.439-.133,1.81.328,1.524,1.556-.113.485-.666.868-1.019,1.3A19.959,19.959,0,0,1,14.253,1744.424Z" transform="translate(-3.111 -380.766)"/>
      <path id="Path_1551" data-name="Path 1551" d="M23.849,1607.788a2.191,2.191,0,0,1-1.449-.508A2.192,2.192,0,0,1,23.849,1607.788Z" transform="translate(-4.889 -350.836)"/>
      <path id="Path_1552" data-name="Path 1552" d="M1000.912,1274.335c1.556,1.939,3.088,4.284,4.675,6.59.2.289.719.375,1.087.555.164-.453.563-.969.461-1.352-.688-2.572-.735-5.847-2.384-7.52-3.658-3.713-2.376-8.56-3.369-12.679-.5-2.072-.524-4.518-1.618-6.715-2.119-4.268-2.462-8.716-2.158-13.531.3-4.683-1.157-9.451-1.266-14.2-.07-2.892-1.227-6.027,1.3-8.865.766-.868-.234-3.346-.5-5.073a48.133,48.133,0,0,1-.876-5.089c-.2-5.128,3.111-10.6-1.6-15.251a16.461,16.461,0,0,0-1.5-13.727c-.227-.414.25-1.517.719-1.97,3.268-3.174,2.681-6.269,1.048-10.233a27.761,27.761,0,0,1-1.689-11.749c.406-7.184-1.532-13.868-3.345-20.575-1.614-5.972-.455-11.327,2.133-16.643.242-.508.586-1.485.438-1.587a30.726,30.726,0,0,0-3.179-1.72,16.323,16.323,0,0,0-.861,1.8c-.317.915-.536,1.861-.8,2.8-.26-.938-.571-1.861-.771-2.807-.507-2.4-.964-4.815-1.44-7.223a2.082,2.082,0,0,0-.144-.719c-1.714-2.6,4.659-.328,2.143-3.666a11,11,0,0,1-2.027-5.355c-.21-2.2.5-4.479.568-6.731.124-4.2.106-8.4.056-12.6-.008-.68-.735-1.368-.691-2.025q.913-13.672,2-27.313c.052-.657,1.186-1.47,1.015-1.853-3.286-7.426-.292-14.8-.022-22.193.047-1.282-1.027-2.674-1.751-3.917-1.992-3.424-2-3.377,1.818-6.027.933-.641,2.359-1.728.378-2.7-5.175-2.541-5.761-8.341-4.655-11.749,2.523-7.778-1.9-10.882-6.731-14.454-1-.743-2.92-1.673-2.824-2.251,1.189-7.1-4.584-6.889-8.633-8.746-6.813-3.125-7.39-6.929-1.893-12.23,2.9-2.792,6.322-5.032,9.231-7.812,5.43-5.187,10.791-10.463,15.914-15.95,2.652-2.841,5.646-5.079,9.281-5.951,9.013-2.162,17.417-6.306,27.016-6.813,4.354-.23,9.091-1.966,13.461-3.2,5.206-1.463,10.123-.807,15.111-.914a27.05,27.05,0,0,0,4.972-.115,205.23,205.23,0,0,1,21.365-3.114c3.369-.278,6.848,1.265,10.287,1.356,8.333.22,16.674.082,25.015.052.719,0,1.884-.049,2.095-.46,3.275-6.344,9.983-3.965,14.947-5.483,7.544-2.309,14.259,2.652,16.729,10.466,4,12.672,8.271,25.269,11.913,38.043,1.821,6.362,2.408,13.067,3.784,19.569.383,1.8,1.3,4.448,2.548,4.839,1.384.43,4.276-.813,5.042-2.158,2.462-4.336,7.481-5.081,10.577-8.466,4.51-4.927,11.773-4.365,16.995-7.949,5.7-3.907,11.312-7.937,18.691-7.733,4.542-4.67,11.046-4.786,16.58-7.159,5.308-2.278,10.506-5.026,16.033-6.54,18.433-5.049,35.811-13.142,54.173-18.348a13.632,13.632,0,0,1,2.806-.758c9.678-.567,19.363-1.073,29.049-1.591,11.335-.605,22.686-1.16,34-1.826,12.39-.729,24.859-2.283,37.132-1.02,12.758,1.315,25.633,1.652,38.328,5.261,9.615,2.737,18.449,7.38,28.064,9.716,9.764,2.373,18.667,6.557,27.368,11.333a216.1,216.1,0,0,1,30.784,20.152c12.828,10.2,22.709,22.8,32.59,35.636,4.737,6.152,10.381,11.585,14.923,18.066,5.964,8.536,13.711,15.65,18.847,25.038,4.479,8.193,11.155,15.142,16.283,23.014,6.48,9.943,12.656,20.082,17.3,31.112,2.986,7.106,7.036,13.758,10.162,20.81,4,9.021,7.95,18.1,11.2,27.407,3.025,8.677,4.815,17.784,7.708,26.524,3.017,9.138,6.77,18.034,10.069,27.087,2.963,8.161,5.886,16.338,8.575,24.593,3.362,10.342,6.52,20.755,9.662,31.175,1.118,3.721,2.056,7.512,2.853,11.319,1.993,9.576,3.784,19.184,6.043,28.728,2.908,12.328,6.95,24.335,9.607,36.71,1.3,6.035,4.339,11.781,3.135,18.245,5.636,11.312,2.47,24.5,7.637,35.928.391.868.094,2.025.188,3.049,1.032,11.03,2.048,22.068,3.142,33.1.305,3.041,1.04,6.05,1.282,9.091.266,3.346-.031,6.738.3,10.068.68,6.739.68,13.516,2.916,20.137,1.415,4.174,1.47,8.88,1.681,13.367.657,14.11,1.079,28.236,1.618,42.346q.751,20,1.595,40c.054,1.18.266,2.7,1.024,3.432,2.666,2.548,1.4,5.019,1.173,8.1-.571,7.52-1.946,15.251,1.227,22.748.977,2.306,1.564,5.832.469,7.747-3.1,5.456-3,11.468-3.737,17.19-1.274,9.912-5.707,18.519-9.7,27.3-1.657,3.627-10.483,4.964-15.548,3.541-13.876-3.908-27.735-8.044-42.432-7.035-4.378.3-8.435-.156-11.929-3.408-1.087-1.008-3.229-1.219-4.886-1.227-14.071-.094-28.142-.047-42.213-.062-2.322-.008-4.346,1.4-6.23,1.806-6.457,1.4-12.335,5.542-19.324,4.464-.258-.039-.571.086-.774-.023-6.23-3.213-12.742-5.988-18.558-9.834-4.01-2.65-6.926-6.91-10.546-10.209-3.15-2.869-6.621-5.386-9.92-8.091-2.54-2.079-5.034-4.213-7.544-6.324,2.275-3.588-1.126-8.513,2.5-11.624,2.673-2.282,3.432-3.979.07-6.168-2.22-1.446-2.314-3.1-.125-4.878,2.157-1.759,1.43-3.455.5-5.949-1.446-3.862-1.556-8.247-2.072-12.429-.649-5.292-.211-10.6-.055-15.9.156-5.472.493-10.991-.07-16.408-.954-9.248.524-18.425.149-27.642a12.069,12.069,0,0,0-2.244-6.949c-3.588-5.277-4.94-11.687-5.488-17.964-.578-6.723-.922-13.657.094-20.278,1-6.5-.18-12.32-1.634-18.448-.836-3.533-2.7-7.27-.336-11.288.68-1.157-.922-3.611-1.368-5.5-2.071-8.646-4.753-17.167-4.776-26.2a7.717,7.717,0,0,0-1.532-4.018c-3.8-5.519-5.558-11.8-7.059-18.191-.2-.868-.586-2.376-.266-2.572,4.331-2.642,1.048-4.315-.68-6.168a23.714,23.714,0,0,1-5.222-8.013c-2.65-6.957-7.286-13.141-10.037-20.067-3.416-8.6-5.871-17.557-12.3-24.64-.7-.766-.188-2.5-.664-3.6-4.581-10.717-8.779-21.646-16.486-30.714a8.8,8.8,0,0,1-1.876-4.643c-.282-3.26-2.087-5-4.659-6.629-1.383-.875-2.173-2.681-3.244-4.065-2.439-3.158-4.706-6.473-7.372-9.427-2.1-2.33-4.378-4.315-3.6-7.935.352-1.665-.391-2.2-2.228-3.01a15.467,15.467,0,0,1-6.965-6.2c-3.51-6.434-7.246-12.195-13.828-16.158-3.26-1.962-6.52-5.636-7.567-9.185-1.587-5.37-6.606-7.254-9.4-11.39-4.049-6-11.147-9.967-17.057-14.657-6.082-4.839-13.227-6.215-20.841-6.355-3.963-.078-7.919-1.47-11.859-1.391-10.483.219-20.9,1.125-31.058,4.182-5.136,1.548-10.561,2.111-15.72,3.6-9.975,2.877-19.41,7.262-29.057,10.952-7.927,3.025-12.406,10.686-20.645,12.5a4.213,4.213,0,0,0-2.345,1.79c-4,6.3-10.311,10.717-13.54,17.823-1.845,4.049-3.33,8.38-7.082,11.96-4.706,4.495-5.933,11.312-6.809,18.2-1.173,9.271-1.438,18.691-4.049,27.9-1.188,4.182-1.2,9.381-.571,14.266a23.067,23.067,0,0,1-.883,10.428c-1.548,4.7-.234,10.287-.508,15.47-.719,13.672,2.6,26.7,6.707,39.469a175.584,175.584,0,0,1,7.473,32.09c1.235,9.818,4.651,19.652,4.073,29.3-.391,6.676,1.383,12.906,1.055,19.441-.289,5.73,1.243,11.671,2.7,17.331,3.385,13.149,7.051,26.234,10.905,39.258,4.252,14.368,8.849,28.634,13.25,42.963a14.993,14.993,0,0,1,.743,4.378c0,6.269,1.485,12.226,2.955,18.292,1.1,4.542.837,9.428,1.517,14.2a188.3,188.3,0,0,0,10.584,41.791c2.189,5.652,3.643,13.2,1.657,18.456-2.689,7.129-1.376,14.775-4.761,21.458-.109.227-.539.4-.516.555.743,6.09-3.229,10.639-5.042,15.9-1.368,3.971-3.471,5.886-7.661,5.667-3.737-.2-7.254-.352-10.975-1.821-5.136-2.032-10.452-3.635-15.509-5.972-5.027-2.314-10.131-5.613-15.392-6.019-12.187-.954-23.327-6.3-35.678-6.84-10.491-.461-20.95-2.478-31.543-2.955-7.677-.352-15.314-2.791-22.936-2.658-4.128.07-10.241-1.141-12.453,5.378-.688,2.009-7.129,3-9.568,2.361-6.59-1.751-13.344-2.947-19.8-5.081a33.754,33.754,0,0,1-11.452-6.152c-5.363-4.659-10.123-9.748-18.081-9.443-2.173.078-7.09-6.887-6.23-9.185,1.47-3.932-1.423-7.6-.086-11.241,1.243-3.385,3.314-6.473,4.393-9.889a12.761,12.761,0,0,0,.133-6.918c-1.321-4.8-.062-9.662-.891-14.6a69.058,69.058,0,0,1-.578-15.806c.508-6.864-.617-13.7-.109-20.6.539-7.262.25-14.587.07-21.88-.109-4.495.289-8.912-1.251-13.516-1.376-4.1,1.806-9.013-.313-13.438-1.36-2.83-.821-5.151-.3-8.177.813-4.761-.7-9.928-1.282-14.915a3.149,3.149,0,0,0-1.462.2,21.181,21.181,0,0,0-2.2,2.157c-.321-1.141-1.008-2.314-.891-3.408.453-4.479-1.407-9.177,1.376-13.5.383-.594,1.548-5.034-2.384-2.017a30.627,30.627,0,0,1-2.158-5.347c-1.133-5.425-5.362-10.772-.727-16.463-1.548-3.94-.055-8.575-2.994-12.257-4.331-5.433-5.5-11.265-2.932-18.1.719-1.9-1.36-4.9-2.275-7.356-1.61-4.284-3.307-8.536-4.964-12.8,2.744-1.313,1.235-2.329.532-4.51-2.548-7.872-6.34-15.7-4-24.523a6.91,6.91,0,0,0-1.54-5.464c-1.931-2.111-1.657-3.33.227-5.058a2.806,2.806,0,0,0,0-2.65c-2.15-3.315-.484-8.122-4.323-10.772-.406-.281-.438-1.384-.344-2.056.758-5.667-.922-14.243-3.072-20.2a22.58,22.58,0,0,0-5.628-8.63,22.553,22.553,0,0,1-3.862-4.659c-.735-1.29-.727-3-1.047-4.526,1.36.829,2.76,1.61,4.081,2.509a28.339,28.339,0,0,1,2.361,1.986c.258-1.2,1.149-2.814.672-3.518a112.671,112.671,0,0,0-9.725-13.149c-2.822-3.1-3.807-4.972-2.048-8.193,1.9-3.471,1.54-8.45-1.524-9.334-5.98-1.728-5.378-6-5.363-10.749m583.164-141.882c-2.361-2.345-4.651-4.769-7.114-7-1.063-.962-2.986-1.227-3.651-2.329-4.362-7.278-8.623-14.634-12.625-22.115a58.683,58.683,0,0,1-4.659-11.343c-1.274-4.495-6.176-5.378-8.106-9.029s-1.72-8.466-6.011-10.85c-.148-.078.391-1.313.54-2.025.461-2.22-.766-11.132-1.947-11.609-7.075-2.853-10.522-10.014-16.745-13.907-1.524-.954-6.5-1.54-2.345-5.519.2-.187-1.415-3.346-2.259-3.385-6.809-.3-8.841-6.473-13-10.006-6.942-5.886-12.038-13.555-20.551-18.144-4.769-2.564-9.232-6.34-14.243-9.1-4.909-2.713-10.936-2.72-15.22-6.692-8.8.211-16.471-4.565-25.375-5.206-8.888-.641-17.776-2.885-26.883-2.611-3.346.1-6.692.258-10.045.258-2.994.008-5.988-.258-8.982-.234-3.018.031-6.035.188-9.045.446-3.119.266-6.215.969-9.334,1.047-9.959.242-19.981-.664-29.83,1.6-6.9,1.595-13.758,3.479-20.739,4.612-9.943,1.618-18.714,6.488-28.15,9.467-8.294,2.619-16.69,4.948-24.866,7.9-7.692,2.767-15.056,6.449-22.74,9.24a156.291,156.291,0,0,0-38.883,21.153c-3.33,2.431-5.386,6.543-8.333,9.592-3.385,3.494-6.684,7.465-10.85,9.654-2.416,1.274-4.049,2.15-4.972,4.651-1.344,3.6-2.939,7.114-4.385,10.686-2.079,5.136-4.581,6.676-10.311,6.9-7.364.282-14.337.11-20.848-4.557-3.69-2.642-8.865-3.158-10.944-8.106a2.8,2.8,0,0,0-2.111-1.384c-7.168.063-12.124-4.69-17.94-7.731-4.088-2.142-4.221-4.714-2.494-7.9,1.259-2.322,3.3-4.229,5-6.316.657-.805,1.907-1.618,1.876-2.392-.172-4.018-.618-8.028-1.055-12.038-.618-5.722-2.314-11.577-1.532-17.088a13.206,13.206,0,0,0-.531-6.551c-1.376-3.94-2.384-8-3.565-11.867-1.141-3.768-2.681-7.3-2.666-11.366.008-.6-.712-1.378-1.306-1.748a12.49,12.49,0,0,0-2.634-.952c.281.737.836,1.5.774,2.2a4.323,4.323,0,0,1-1.157,2.318,2.367,2.367,0,0,1-1.79-.829c-.516-1.15-1.3-2.867-.821-3.648,2.15-3.5-.125-3.389-2.408-3.254-8.122.478-16.236,1.2-24.366,1.5a74.614,74.614,0,0,0-23.139,4.575c-1.61.586-3.815-.715-4.479,2.619-.375,1.884-1.454,3.2-.446,5.441,1.657,3.651.813,7.973.414,11.577-.328,2.939-1.22,5.167.25,8.232.993,2.079.352,5.1-.031,7.637-.954,6.387-2.846,13.242-.907,19.1,1.563,4.706-.383,8.154-.516,12.132-.141,4.229-1.313,8.427-1.407,12.648-.219,10.155-.07,20.317-.07,30.479,0,1.563.406,3.26-.062,4.667-2.509,7.434-1.962,14.735-.008,22.193,1.423,5.464,2.173,11.1,3.2,16.666,1.087,5.918-.047,12.195,2.924,17.815a3.1,3.1,0,0,1,.164,2.244c-3.307,8.966-1.305,17.917.078,26.852.258,1.65,1.923,3.7,1.376,4.753-2.76,5.3-.227,10.319.1,15.463.688,10.717,1.008,21.458,1.665,32.175a61.668,61.668,0,0,0,1.54,9.514c1.219,5.464,1.853,11.249,4.182,16.221,2.189,4.675.938,10.491,5.167,14.29,1.079,11.03,6.051,20.95,8.974,31.456,2.736,9.8,6.058,19.5,7.919,29.471.672,3.6,2.642,6.4,3.276,9.623,1.532,7.809,2.2,15.791,3.33,23.678.234,1.657,1.11,3.205,1.47,4.847.633,2.885,1.087,5.808,1.61,8.716.4,2.181.75,4.37,1.188,6.543,1.149,5.777,2.165,11.585,3.541,17.3,2.032,8.388,3.354,16.956,5.2,25.281,2.713,12.218,4.565,24.569,7.215,36.78,1.415,6.5,2.056,13.18,3.424,19.707,1.978,9.474,4.479,18.8,4.526,28.627.055,10.084.79,20.161,1.071,30.253.047,1.548-1.438,3.322-1.032,4.636,2.455,8.028,1.641,16.408,2.963,24.546.805,4.948.711,10.061,1.751,14.947.657,3.111,1.345,5.55.227,9.013-.962,3,.508,7.489,2.353,10.413.977,1.556,5,1.446,7.684,1.634,13.055.915,26.1-.75,39.258,1.329,11.812,1.861,24.014,1.266,36.037,1.892,2.658.141,3.979-.453,3.432-3.346a33.89,33.89,0,0,1-.664-4.409q-.516-8.794-.876-17.6c-.016-.406.469-.837.727-1.251.367.36.915.649,1.071,1.087a16.727,16.727,0,0,1,1.251,4.159c.618,6.543,1.172,13.1,1.555,19.668.11,2.009.008,3.44,2.767,3.283,2.666-.141,2.126-1.907,1.923-3.236-1.009-6.59-2.244-13.141-3.276-19.731-.485-3.135-1.274-6.4-.789-9.427.211-1.337-.328-1.9-.406-2.814-.766-8.646-5.675-16.025-7.247-24.382-.274-1.454-.3-4.088.391-4.417,5-2.353-.274-4.925.375-7.254-.5.352-1.227.594-1.454,1.071a14.661,14.661,0,0,0-.758,2.814,18.652,18.652,0,0,1-1.079-2.517c-.516-1.884-1.688-4.042-1.188-5.66,1.243-4.01.242-7.153-2.947-9.263a8.509,8.509,0,0,1-3.127-10.968c2.009-4.167-.4-6.066-2.087-8.255a13.645,13.645,0,0,1-3.205-9.2,46.372,46.372,0,0,0-.711-9.545c-.578-3.744-3.322-6.144-3.674-9.537q-1.712-16.533-3.127-33.1c-.258-3.1.164-6.261-.094-9.373-.25-2.931-2.189-6.308-1.243-8.63,1.759-4.331-3-4.354-3.362-6.895-.18-1.274.133-2.627-.07-3.9a35.447,35.447,0,0,0-1.274-4.933c-.93-2.947-3-5.535-.961-9.068,2.384-4.135-4.159-4.472-3.979-7.911a10.4,10.4,0,0,1,.016-1.563c1.337-6.793-.837-13.532-2.564-19.6-1.767-6.23-.469-13.485-5.214-18.9a2.421,2.421,0,0,1,0-2.267c2.7-4.268,1.485-8.818,1.071-13.281-.4-4.354,1.954-8.912-1.055-13.133a3.484,3.484,0,0,1-.008-3.041c3.486-6.535-.1-13.977,2.931-20.684a42.067,42.067,0,0,0,3.158-12.719c.876-8.177,1.165-16.416,1.665-24.624.539-8.9.61-17.862,1.735-26.688.633-4.933,1.743-10.8,4.855-14.219,6.261-6.895,10.412-14.923,15.321-22.568,1.079-1.673,2.455-3.15,3.658-4.745.891-1.181,1.728-2.408,2.572-3.619a49.541,49.541,0,0,1,4.19-5.926c1.509-1.6,3.69-2.556,5.277-4.112,6.488-6.34,12.859-12.8,19.277-19.215,1.1-1.1,2.212-3.158,3.322-3.158,8.044.016,12.859-6.637,19.605-9.427,9.951-4.12,19.34-9.889,29.667-13.258,7.809-2.548,14.868-7.684,23.616-7.231.586.031,1.173-.9,1.837-1.157a36.734,36.734,0,0,1,5.472-1.868c3.142-.672,6.34-1.055,9.506-1.61,5.824-1.016,11.609-2.556,17.471-2.994,7-.524,14.165.633,21.068-.336,6.989-.977,13.649,3.557,20.52.453,11.03,1.97,22.006,4.135,32.293,8.834,5.5,2.509,9.74,5.472,12.406,11.788,2.345,5.558,8.122,9.639,12.242,14.493,1.743,2.048,4.213,3.307,4.878,6.629.344,1.735,4.276,2.494,5.917,4.3,1.735,1.915,2.65,4.573,4.026,6.84.141.234,1.063-.125,1.5.063a10.281,10.281,0,0,1,3.189,1.688c4.276,4.135,8.529,8.3,12.617,12.617,2.048,2.173,3.291,5.292,5.636,6.957,10.084,7.137,17.862,16.322,24.7,26.438,6.613,9.771,13.782,19.215,19.754,29.361,6.754,11.468,14.126,22.615,19.52,34.873,4.948,11.241,10.506,22.224,15.322,33.52,5.011,11.726,9.553,23.663,14.118,35.576,6.981,18.183,11.218,37.155,15.556,56.065a52.575,52.575,0,0,1,1.415,16.5,59.118,59.118,0,0,0,.3,12.789c.281,2.416,1.509,4.8,1.423,7.168a71.279,71.279,0,0,0,3.1,23.764,161.365,161.365,0,0,1,4.729,21.482c.962,5.792,2.463,11.976,1.376,17.526-2.22,11.3-.852,22.545-1.173,33.8a69.755,69.755,0,0,0,1.556,15.736c1.266,6.176,1.962,13.2,9.592,15.345a49.462,49.462,0,0,0,12.422,2.032c16.143.227,32.3.039,48.451.149,2.455.016,2.986-.79,2.986-3.08,0-2.572,1.782-6.011.672-7.536-2.439-3.346,1.188-5.144.868-7.723-.078-.633.453-1.345.711-2.017a6.35,6.35,0,0,1,.766,1.97c.07,3.643-.2,7.317.149,10.928.141,1.431,1.563,2.744,2.4,4.112.727-1.266,1.986-2.486,2.087-3.8.688-8.63,1.079-17.276,1.689-25.914.156-2.2.954-4.339,1.149-6.535.274-3.064,1.305-6.653.133-9.115-1.712-3.573-1.329-6.973-1.227-10.413.148-4.745,1.305-9.474,1.282-14.2-.008-1.657-1.243-3.268.18-4.964,2.7-3.205,1.321-5.644-1.556-8.536.1-3.58.164-6.895-2.947-9.818-1.227-1.149-3.5-4.143-.9-6.605,2.337-2.212,3.338-4.057.907-7.145-1.016-1.282-.321-4.041-.148-6.105.2-2.29.078-8.63-.774-10.1-5.112-8.771-5.276-18.128-2.095-27.282a5.094,5.094,0,0,0-.571-4.894c-3.479-5.144-4.62-9.8-2.416-14.415,1.532-3.2,2.376-6.223-.477-9.005-2.353-2.291-2.892-2.822-3.088-4.19-1.032-7.121-1.6-14.352-3.354-21.286-.711-2.783.656-6.567.016-7.082-4.19-3.354-4.385-8.372-5.628-12.648-1.462-5.042-6.121-10-2.064-15.924.289-.414-.461-1.962-1.118-2.533-3.948-3.4-4.339-8.568-4.776-12.8-1.431-13.766-7.426-26.313-9.568-39.805-.492-3.119-3.432-6.207-.266-9.779.68-.758-1.157-3.51-1.431-5.4-.375-2.564-5.315-4.081-1.735-7.583.313-.3.117-1.47-.188-2.04-2.517-4.69-5.167-9.3-7.653-14.008a26.581,26.581,0,0,1-1.321-4.135c-.844-2.509-1.54-5.089-2.6-7.5-2.15-4.839-4.823-9.467-6.676-14.407a76.991,76.991,0,0,1-3.174-12.719c-.805-4.252-4.065-8.185-1.712-12.93.25-.5-.9-1.626-1.235-2.517-2.189-5.863-6.551-10.866-6.558-17.612,0-2.658-1.829-4.018-4.62-4.487.062-.2,0-12.562-.07-12.57-5.464-.6-3.948-6.91-7.5-9.162-1.438-.915-2.939-2.2-1.016-4.362.266-.3-2.322-2.556-2.157-3.7.211-1.438,1.923-2.65,2.877-4.034.125-.18-.32-.875-.625-1.227-1.876-2.157-3.838-4.2-7.145-4.034m-26.578-48.467c-1.055-3.15-2.533-5.957-5.8-7.379-.555-.235-1.087-.547-1.626-.829-.125.453-.485,1.227-.352,1.321,2.9,2.048,2.337,7.262,7.778,6.887m144.618,440.109c1.219.344,3.385,1.188,3.51.946.938-1.774-.688-1.774-1.72-2.7-2.588-2.337-3.651.954-5.449.719a10.444,10.444,0,0,0,3.659,1.032M1572.35,1111.346c-2,1.947-.148,3.025,1.071,4.057.25.2,1.337-.578,2.033-.907a5.821,5.821,0,0,0-3.1-3.15M1040,1409.182a2.538,2.538,0,0,0-.555-.532.823.823,0,0,0-.516.063,17.71,17.71,0,0,0,.227,4.19c.156.571,1.376.86,2.1,1.274a9.334,9.334,0,0,0,.266-2.2c-.07-.688-.477-1.337-1.524-2.791m167.288,148.527c0-.493.2-1.173-.047-1.423-.274-.273-.946-.156-1.446-.2.266,1.321.539,2.642.805,3.971a2.175,2.175,0,0,0,.688-2.345m-8.6-294.709,2.111-.539c-1.039-.868-2.04-1.775-3.142-2.541-.172-.117-.805.422-1.227.649.492.555.985,1.1,2.259,2.431m464.342,89.116c-.821-.79-1.532-2.244-2.752-.391a7.605,7.605,0,0,1-1.087,1.1,10.679,10.679,0,0,0,2.619.789,1.2,1.2,0,0,0,1.219-1.5m-114.913-282.2c-1.032-.016-2.056-.024-3.088-.031,1.032.531,2.056,1.063,3.088.031m29.705,53.157a3.151,3.151,0,0,0,.524.5c.125.078.328.031.5.039-.141-.962-.274-1.923-.406-2.885a2.18,2.18,0,0,0-.618,2.345m92.243,242.333c-1.118-.258-2.228-.594-3.361-.743-.368-.047-.8.391-1.2.61a5.968,5.968,0,0,0,1.579.875c.7.156,1.462.039,2.978-.743m-107.1-268.13a33.539,33.539,0,0,0,.743-3.362c.047-.367-.391-.8-.61-1.2a6.151,6.151,0,0,0-.875,1.571c-.156.7-.039,1.47.743,2.986m-305.653,66.446c.516-.508,1.024-1.024,1.532-1.532-.813-.227-1.618-.461-2.431-.7.039,1,.078,2.009.9,2.228m365.845,62.538a5.688,5.688,0,0,0,.023,1.462,24.354,24.354,0,0,0,.891,2.314,5.681,5.681,0,0,0,.6-1.931,1.737,1.737,0,0,0-1.516-1.845m-85.207,300.962c.266.524.524,1.04.782,1.564.266-.524.524-1.04-.782-1.564m-487.794-62.538c.211-.313.422-.625.625-.938-.469.055-.938.1-.625.938m-37.523-165.725c-.2.313-.414.625-.625.938.469-.055.938-.1.625-.938m633.976-5.472c.313.211.625.414.938.625-.047-.469-.1-.938-.938-.625m-267.349-325.2.938.625C1380.156,968.447,1380.1,967.977,1379.265,968.29Z" transform="translate(-209.615 -199.523)" fill="#4b5673"/>
      <path id="Path_1553" data-name="Path 1553" d="M750.279,1176.682c-.391,3.776-1.083,7.364-.191,10.5.843,2.955-.586,5.41-.287,8.146a59.347,59.347,0,0,1,.054,10.155c-.711,11.139-1.658,22.263-2.3,33.4-.16,2.783.589,5.613.751,8.427.551,9.56-1.771,19.136.052,28.673,1.666,8.708,2.069,17.6,4.445,26.258,1.363,4.964.255,10.42,1.56,15.759,1.882,7.7,2.125,15.791,3.393,23.663a121.2,121.2,0,0,1,1.541,21.513c-.13,7.293.074,14.595-.053,21.888a153.556,153.556,0,0,0,2.995,32.348c1.355,6.91,1.25,14.126,1.707,21.208.575,8.9,1.394,17.8,1.474,26.711.07,7.809-.416,15.658-2.945,23.225-.548,1.642-.13,3.627-.071,5.449a60.009,60.009,0,0,1-2.838,19.129c-1.488,5.026.306,10.467-.131,15.814-.611,7.481-2.437,14.806-3.014,22.162-.9,11.476-3.365,23.264,1.776,34.575,2.489,5.472,2.03,12.234,7.225,16.541-.45,4.135,1.227,8.239-2.392,12.3-4.827,5.417-9.182,10.741-15.824,14.462-4.1,2.3-9.459,5.886-8.365,12.75a4.976,4.976,0,0,1-1.524,3.948c-8.376,6.676-15.451,15.376-26.681,17.706a4.98,4.98,0,0,1-2.972-.891c-13.086-7.286-27.563-10.3-41.8-14.282-9.221-2.588-16.827-.188-24.875,3.268-3.754,1.6-8.032,3.275-11.935,2.994-8.474-.6-16.932,2.423-25.566-1-3.359-1.329-8.629-2.017-12.506,1.227-8.985-.805-16.491,4.253-24.77,6.246-.246.063-.624-.109-.765.023-5.808,5.331-13.93,4.018-20.5,7.145-.436.211-.926.7-1.284.618-7.162-1.735-11.741,2.947-16.891,6.5-3.146,2.173-6.321,4.894-10.752,1.509-1.726-1.321-4.836-.7-7.228-1.306-8.02-2.048-10.314-10.53-16.344-14.876-.387-.274-.2-1.814.142-2.564,1.828-3.987,1.169-7.794-.7-11.484a34.11,34.11,0,0,1-3.276-11.984c-.471-4.26-2.349-8.357-3.6-12.531-2.916-9.732-7.4-19.332-8.285-29.252-.847-9.537-4.29-19.16-.8-29.268,1.455-4.213-.91-9.764-1.626-14.7-.245-1.688-1.218-3.377-1.063-4.979a21.767,21.767,0,0,0-2.366-12.343c-1.732-3.275-.5-3.533,2.122-3.385,4.394.25,5.358-2.423,4.783-5.918-.55-3.346-1.665-6.6-2.434-9.912a20.99,20.99,0,0,1-.567-4.432c-.006-.547.711-1.094,1.1-1.641.655.539,1.715.969,1.894,1.634.7,2.6,1,5.316,1.719,7.911.17.618,1.389.938,2.126,1.4a5.7,5.7,0,0,0,.875-1.892c.113-2.079.836-4.682-.117-6.144-2.232-3.424-1.295-6.942-1.342-10.4a71.48,71.48,0,0,0-3.119-19.84,9.659,9.659,0,0,1-.072-2.314c-.517-12.3-.953-24.593-1.6-36.874-.252-4.745-1.066-9.467-1.5-14.2-.41-4.495.972-9.177-1.553-13.446-.228-.383,0-1.024-.034-1.54-.515-8.9-.831-17.831-1.618-26.711-.772-8.708-1.976-17.385-3.118-26.055-.183-1.391-1.184-2.65-1.547-4.034-1.11-4.229-4.582-7.9-1.756-13.055,1.087-1.978-.371-5.355-.673-8.1a32.156,32.156,0,0,1-.592-5.972c.248-3.025,1.4-6.011,1.377-9.005-.03-3.432-1.042-6.856-1.4-10.3a21.4,21.4,0,0,1,.27-5.347c.137-.907,1.4-1.97,1.157-2.564-2.888-7.043,1.073-14.18-.98-21.677-1.907-6.965-4.353-14.438-4.619-21.388-.325-8.474-4.249-15.932-4.052-24.491.17-7.387-2.9-14.821-4.274-22.287-.673-3.659-.176-7.317-1.335-11.155-1.642-5.441-1.119-11.5-1.9-17.237-1.063-7.841-2.484-15.635-3.743-23.452-.316-1.954-1.2-4.057-.783-5.855,1.2-5.112-3.538-10.108-.115-15.142-5.636-7.3-2.121-15.806-3.139-23.717-.985-7.653-2.137-15.283-3.085-22.943-.447-3.6,1.309-6.59,2.543-9.857.707-1.876-3.184-5.206-2.555-8.654.87-4.753,4.037-8.443,6.874-11.913,2.086-2.548,2.217-4.854,2.573-7.637.416-3.252-3.686-6.168-.527-9.724.32-.36-1.843-3.252-3.162-4.675-2.8-3.033-6.013-5.683-8.656-8.833a92.471,92.471,0,0,1-8.8-11.984c-2.224-3.729-4.566-7.512-4.091-12.429.3-3.072,1.566-6.824-2.054-9.271a1.7,1.7,0,0,1-.141-1.556c3.984-2.661,4.808-7.572,7.77-10.858,3.68-4.084,7.231-8.483,13.857-8.161,2.118.1,4.467-3,6.492-2.767,12.1,1.409,23.422-5.039,35.459-3.274,5.353.786,10.694,2.924,15.967,2.7,9.017-.377,16.974,3.8,25.4,4.686,10.243,1.072,20.077,4.9,30.74,3.8,5.4-.558,11.064,2.04,16.669,2.724,2.035.249,4.217-1.182,6.376-1.395,9.639-.947,19.465,1.677,29-1.484,11.67,3.341,23.6.421,35.357,1.476,4.451.4,9.062.619,13.244,2,4.57,1.508,8.7,1.022,13.236.32,3.284-.508,6.638.289,10.2-.614a180.05,180.05,0,0,1,25.386-4.711,124.893,124.893,0,0,1,21.855.053c1.907.136,5.875.748,4.88,4.879-.88,3.651,3.16,6.531.94,10.844-1.3,2.517-.128,6.66.718,9.865,3.573,13.524,2.355,27.6,5.735,41.314a246.209,246.209,0,0,1,5.6,34.638c1.088,11.038,2.182,22.037,2.894,33.129.474,7.364,3.26,14.6,2.835,22.17-.15,2.673,1.23,5.66-1.438,8.036-.518.461-.392,2.126-.024,3.017,2.969,7.2.886,14.712,1.516,22.045a66.549,66.549,0,0,1,.388,8.8m-194.258,136.41c.521,7.6.063,15.447,1.905,22.709,1.247,4.909.657,9.553,1.214,14.282s.835,9.506,1.627,14.188c.947,5.6-1.8,10.858-.539,16.791a27.887,27.887,0,0,1,.115,12.468c-1.036,4.018.3,8.615.3,12.961,0,1.821-1.058,3.635-1.049,5.456a22.944,22.944,0,0,0,1.144,5.746c.378,1.384,1.219,2.658,1.5,4.049.878,4.409-1.684,9.216,1.521,13.375-4.108,4.3.473,8.521.139,12.8-.282,3.627-.689,7.426.061,10.913,2.132,9.912,1.749,20.02,2.963,29.987.762,6.269.879,12.609,1.685,18.871a71.138,71.138,0,0,0,2.691,11.366c2.719,9.021.152,18.988,5.049,27.595-2.153,6.395-1.122,13.993-7.071,18.933-1.9,1.587-4.621,2.564-5.827,4.526-2.183,3.549-3.945,4.933-7.182,1.282a6.177,6.177,0,0,0-3.185-1.642,32.1,32.1,0,0,0-4.77-.367c.4,1.649-1.658,2.564-.343,5.034,3.483,6.551,5.567,13.829,8.7,20.59,1.7,3.682,6.5,4.292,10.68,3.979,7.957-.594,14.689-6,22.882-5.339.786.063,1.632-.985,2.494-1.43A27.181,27.181,0,0,1,608.594,1589c2.057.234,4.487.727,6.191-.078,8.425-3.979,16.26.954,24.369,1.266,4.682.18,9.332,1.876,13.99,1.853a81.186,81.186,0,0,0,25.4-4.573c.867-.289,2.193-.453,2.477-1.063,3.668-7.864,9.39-15.58,9.093-24.194-.421-12.195,5-23.42,3.941-35.74-.436-5.066,1.416-11.327,3.227-16.432,2.2-6.215,2.546-12.195,2.568-18.441.03-8.6.2-17.2-.059-25.781-.181-6.051.224-12.515-1.8-18-2.636-7.161.835-14.735-2.829-21.474,2.248-4.776.613-9.459.249-14.352-1.064-14.321.571-28.752-1.7-43.1-1.184-7.5-1.026-15.189-1.732-22.772-.411-4.424-1.284-8.81-2.026-13.2-1.89-11.194-5.123-22.349-5.383-33.575-.273-11.765-1.564-23.522-.643-35.435.994-12.859,1.5-25.719,3.234-38.555,1.4-10.342,1.6-20.9,1.661-31.363.117-20.888.472-41.767-1.263-62.655-.594-7.145-3.68-14.134-1.783-21.482-3.941-7.747-2.575-16.494-4.579-24.648-2.226-9.052-3.338-18.378-5.427-27.47-1.516-6.6-1.879-6.332-8.537-6.559-10.728-.367-21.466-.758-32.162-1.61-7.676-.61-15.279-2.752-22.935-2.861-11.233-.172-22.48.961-33.728,1.344-6.5.219-13.052-.367-19.522.148-6.381.516-12.606-2.431-19.076-.25-2.072.7-3.7.406-5.036,3.057-1.552,3.08,1.067,3.408,1.724,5.019.622,1.524,3.08,3.166,1.178,4.761-3.3,2.783-2.706,6.746-1.7,9.279,1.519,3.83,1.41,7.5,1.134,11.179a40.574,40.574,0,0,0,.514,9.584c1.843,10.538,1.95,21.247,4.052,31.769,1.4,7.02.063,14.54.324,21.826.249,6.91.981,13.813,1.506,20.716.518,6.817.04,13.907,1.809,20.379,2.371,8.677.808,17.643,4.022,26.406,2.6,7.1,1.419,15.564,2,23.42.447,6.035.281,12.258,1.739,18.058a85.432,85.432,0,0,1,2.952,21.4c-.057,12.242-.016,24.484-.016,38.289m-46.9,261.095c-.521.258-1.042.524-1.563.782C508.076,1575.226,508.6,1575.492,509.118,1574.187Z" transform="translate(-91.481 -211.311)" fill="#4b5673"/>
      <path id="Path_1554" data-name="Path 1554" d="M533.929,495.868c12.954-8.867,25.228-18.22,40.3-22.345.921-.253,1.769-1.033,2.667-1.061,10.12-.321,20.356.064,29.9,3.264,13.233,4.438,26.391,9.611,38.164,17.171,12.092,7.765,23.622,16.468,31.595,28.978,1.907,2.992,5.117,5.122,7.423,7.9,5.395,6.5,5.978,14.867,7.637,22.569,2.2,10.2,4.636,20.9,3.73,31.094-1.119,12.6,2.623,25.608-2.921,37.9-.911,2.019.584,5,.119,7.367-.982,4.992-2.528,9.872-3.83,14.8-.064.244.1.61-.024.766-6.724,8.248-6.516,19.221-11.079,28.227-3.085,6.089-7.486,11.538-11.519,17.113-3.51,4.851-6.915,9.9-11.133,14.087a93.215,93.215,0,0,1-14.149,10.989c-11.113,7.411-23.244,12.071-36.839,10.885a67.639,67.639,0,0,1-16.473-3.555c-7.526-2.655-15.077-5.136-22.7-7.5-4.267-1.327-7.984-4.761-11.645-7.634-7.06-5.542-15.116-10.1-19.621-18.349-4.636-8.489-8.923-17.174-13.729-25.564-7.609-13.287-15.537-26.392-23.3-39.59-5.789-9.84-12.006-19.469-17.154-29.637-4.333-8.56-7.42-17.753-10.98-26.7-.223-.56.356-1.391.361-2.1.024-3.342.477-6.782-.156-10a14.017,14.017,0,0,1,5.2-13.871c4.38-3.462,8.508-7.254,12.637-11.021,3.761-3.433,7.784-5.85,13.13-6.146,4.608-.254,8.521-3.333,13.452-3.633,2.172-.132,4.84-4.394,5.954-7.292,2.9-7.541,8.656-12.117,14.976-17.117m100.06-2.345,1.449.115a3.183,3.183,0,0,1-1.449-1.678l-2.5-.625q-.114.511-.229,1.022a4.2,4.2,0,0,1,2.731,1.167m-23.452-10.944,2.5.625q.115-.51.229-1.022a4.2,4.2,0,0,1-2.731-1.167c-3.322-1.3-6.625-2.658-9.983-3.859-.595-.213-1.419.213-2.136.345.47.729.818,1.952,1.43,2.1,3.529.871,7.12,1.489,10.69,2.974M573.8,616.253c2.345,3.974,5.739,7.684,6.821,11.977,2.4,9.5,9.6,13.009,17.424,16.142,5.36,2.146,10.687,4.567,16.257,5.936,4.58,1.126,10.43,1.7,13.417-2.4,3.318-4.561,7.648-8.654,8.213-15.387.371-4.422.1-9.209,1.364-13.387,3.69-12.212,1.329-24.437-.661-36.158-1.585-9.342-8.118-17.488-16.669-23a71.906,71.906,0,0,0-14.125-7.4c-5.337-1.97-9.88-5.932-15.235-8.416-7.735-3.588-16.024-4.125-24.055-6.022-3.866-.914-6.083,1.452-7.623,4.762-2.971,6.384-4.667,13.256-7.141,19.7-2.545,6.632-4.755,11.505,1.883,16.409.456.336.278,1.427.607,2.055,2.353,4.5,4.385,9.22,7.239,13.379C566.074,601.09,569.666,608.2,573.8,616.253Z" transform="translate(-102.221 -103.108)" fill="#4b5673"/>
      <path id="Path_1555" data-name="Path 1555" d="M2428.742,2182.93a2.7,2.7,0,0,1,1.11,2.376q-2.955,10.049-6.246,19.989c-.289.883-1.353,1.517-2.056,2.259a10.078,10.078,0,0,0,.516-2.689C2421.308,2196.837,2426.725,2190.63,2428.742,2182.93Z" transform="translate(-528.574 -476.488)"/>
      <path id="Path_1556" data-name="Path 1556" d="M2435.832,2140.341a79.33,79.33,0,0,1,2.689-7.481,59.529,59.529,0,0,1,.383,7.528c-.313,4.425-.9,8.841-1.579,13.227-.141.868-1.243,1.579-1.9,2.361-.383-.8-1.157-1.626-1.087-2.384C2434.722,2149.425,2435.316,2145.274,2435.832,2140.341Z" transform="translate(-531.365 -465.559)"/>
      <path id="Path_1557" data-name="Path 1557" d="M2440.971,2061.5a16.1,16.1,0,0,1-2.6,1.313,26.364,26.364,0,0,1-.055-5.378,22.209,22.209,0,0,1,1.962-4.627c.359,1.469.836,2.924,1.047,4.409A11.734,11.734,0,0,1,2440.971,2061.5Z" transform="translate(-532.204 -448.086)"/>
      <path id="Path_1558" data-name="Path 1558" d="M2437.359,1992.769c-.164,1.985-.321,3.189-.485,4.4a20.751,20.751,0,0,1-1.04-2.8c-.172-.727.289-1.845-.094-2.228-1.595-1.61-2.048-3.283-1.031-5.324A44.274,44.274,0,0,1,2437.359,1992.769Z" transform="translate(-531.328 -433.681)"/>
      <path id="Path_1559" data-name="Path 1559" d="M2438.961,2096.93a27.179,27.179,0,0,1-.555,5.863c-.665-.2-1.751-.219-1.923-.625C2435.482,2099.736,2436.741,2098,2438.961,2096.93Z" transform="translate(-531.757 -457.716)"/>
      <path id="Path_1560" data-name="Path 1560" d="M1616.562,1423.9a33.084,33.084,0,0,1-4.253-6.457c-.047-.086.578-.539.891-.821A41.363,41.363,0,0,1,1616.562,1423.9Z" transform="translate(-351.933 -309.219)"/>
      <path id="Path_1561" data-name="Path 1561" d="M2432.244,2177.2a22.064,22.064,0,0,1,.016-2.314c.109-.7.313-1.392.477-2.087.36.422,1.024.852,1.016,1.274a37.851,37.851,0,0,1-.445,4.385.688.688,0,0,1-.508.047C2432.581,2178.389,2432.424,2178.162,2432.244,2177.2Z" transform="translate(-530.904 -474.277)"/>
      <path id="Path_1562" data-name="Path 1562" d="M2439.435,2118.93a4.776,4.776,0,0,1,.359,2.588,6.186,6.186,0,0,1-.875,1.579c-.219-.4-.656-.829-.61-1.2A5.537,5.537,0,0,1,2439.435,2118.93Z" transform="translate(-532.231 -462.518)"/>
      <path id="Path_1563" data-name="Path 1563" d="M2411.437,1368.767a3.079,3.079,0,0,1-1.118-2.236,5.515,5.515,0,0,1,.6-1.931,22.94,22.94,0,0,1,.883,2.306A2.747,2.747,0,0,1,2411.437,1368.767Z" transform="translate(-526.122 -297.864)"/>
      <path id="Path_1564" data-name="Path 1564" d="M2387.437,162.765a3.075,3.075,0,0,1-1.118-2.233,5.545,5.545,0,0,1,.6-1.936,23.115,23.115,0,0,1,.883,2.312A2.741,2.741,0,0,1,2387.437,162.765Z" transform="translate(-520.883 -34.618)"/>
      <path id="Path_1565" data-name="Path 1565" d="M2386.633,202.929a3.057,3.057,0,0,1,1.125,2.233,5.724,5.724,0,0,1-.6,1.936c-.3-.768-.665-1.52-.891-2.312A2.79,2.79,0,0,1,2386.633,202.929Z" transform="translate(-520.861 -44.295)"/>
      <path id="Path_1566" data-name="Path 1566" d="M1683.75,1672.384a3.15,3.15,0,0,1,1.008-1.954c.133.961.266,1.923.406,2.884-.172-.008-.375.039-.5-.039A7.741,7.741,0,0,1,1683.75,1672.384Z" transform="translate(-367.527 -364.62)"/>
      <path id="Path_1567" data-name="Path 1567" d="M2379.473,279.268a3.267,3.267,0,0,1-.993-2.1c0-.025.633-.175.969-.267A4.648,4.648,0,0,1,2379.473,279.268Z" transform="translate(-519.172 -60.442)"/>
      <path id="Path_1568" data-name="Path 1568" d="M451.469,1840.927c-.078.446-.547.493-1.016.547A.931.931,0,0,1,451.469,1840.927Z" transform="translate(-98.324 -401.833)"/>
      <path id="Path_1569" data-name="Path 1569" d="M1645.6,1487.646c-.438-.078-.493-.547-.547-1.016A.931.931,0,0,1,1645.6,1487.646Z" transform="translate(-359.08 -324.5)"/>
      <path id="Path_1570" data-name="Path 1570" d="M1019.6,1397.646c-.438-.078-.492-.547-.547-1.016A.931.931,0,0,1,1019.6,1397.646Z" transform="translate(-222.437 -304.855)"/>
      <path id="Path_1571" data-name="Path 1571" d="M1011.846,1373.788a2.2,2.2,0,0,1-1.446-.508A2.171,2.171,0,0,1,1011.846,1373.788Z" transform="translate(-220.549 -299.758)"/>
      <path id="Path_1572" data-name="Path 1572" d="M1826.12,1405.4c.109,6.183.594,11.851,3.111,17.19.2.43.5,1,.367,1.376a28.609,28.609,0,0,1-1.391,2.932c-.563-.625-1.47-1.173-1.642-1.9-1.649-6.864-3.236-13.743-4.714-20.645-.672-3.135-1.118-6.316-1.556-9.482a6.341,6.341,0,0,1,.492-2.118c.735.571,1.907,1,2.134,1.728C1823.994,1397.941,1824.823,1401.49,1826.12,1405.4Z" transform="translate(-397.33 -304.008)"/>
      <path id="Path_1573" data-name="Path 1573" d="M1802.372,1332.333a39.356,39.356,0,0,1-1.352-5.675c3.041-.477,3.2,3.189,4.37,3.612,4.636,1.673.7,5,1.97,7.434,2.165,4.159,2.814,9.115,3.948,13.782.211.86-.289,1.9-.461,2.861a19.068,19.068,0,0,1-2.173-1.673c-3.4-3.486-1.822-8.419-3.518-12.437C1804.139,1337.821,1803.545,1335.234,1802.372,1332.333Z" transform="translate(-393.125 -289.572)"/>
      <path id="Path_1574" data-name="Path 1574" d="M1833.835,1455.811c-.516-2.885-1.18-4.972-1.477-7.106-.1-.7.766-1.516,1.188-2.275.618.563,1.6,1.024,1.8,1.712,1.915,6.7,3.682,13.438,5.534,20.153.117.446.766.836.735,1.219-.18,2.2-.492,4.4-.758,6.605-.774-1.743-1.446-3.541-2.345-5.214a22.846,22.846,0,0,1-3.189-11.093C1835.328,1458.742,1834.359,1457.663,1833.835,1455.811Z" transform="translate(-399.964 -315.725)"/>
      <path id="Path_1575" data-name="Path 1575" d="M1776.549,1243.229c-1,6.246,3.69,11.14,4.221,17.01.234,2.541,1.657,4.956,2.369,7.481.156.563-.414,1.337-.649,2.009-.547-.493-1.384-.891-1.595-1.5-1.9-5.41-4.737-10.764-5.19-16.307-.383-4.636-2.2-8.443-3.455-12.992C1773.555,1240.1,1774.861,1241.666,1776.549,1243.229Z" transform="translate(-386.845 -270.433)"/>
      <path id="Path_1576" data-name="Path 1576" d="M1756.929,1194.416c1.274,3.228,2.095,6.473,3.072,9.67.336,1.118,1.415,2.095,1.5,3.2a70.45,70.45,0,0,1-.078,7.262c-2.666-.93-2.158-3.354-2.783-5.394-1.18-3.838-3.119-7.442-4.346-11.265C1753.856,1196.51,1753.348,1193.97,1756.929,1194.416Z" transform="translate(-382.859 -260.705)"/>
      <path id="Path_1577" data-name="Path 1577" d="M1231.693,1565.956c-5.558-.657-3.541-5.933-5.66-8.9-1.54-2.134-1.4-5.566-1.688-8.458-.133-1.305.516-2.689.805-4.041a18.585,18.585,0,0,1,2.118,3.737C1228.973,1554.026,1230.5,1559.8,1231.693,1565.956Z" transform="translate(-267.245 -337.145)"/>
      <path id="Path_1578" data-name="Path 1578" d="M1858.954,1569.191a1.321,1.321,0,0,1-1.571-.852,43.559,43.559,0,0,1-3.064-16.416c.016-.508.8-1,1.227-1.493.618.563,1.7,1.071,1.775,1.7C1857.969,1557.544,1858.438,1562.977,1858.954,1569.191Z" transform="translate(-404.758 -338.426)"/>
      <path id="Path_1579" data-name="Path 1579" d="M1865.985,1670.955c-.321-4.237-.672-7.684-.946-11.147a2.2,2.2,0,0,1,.531-1.3c.68.149,1.876.438,1.892.743.156,2.548-.109,5.136.148,7.677.219,2.118,1.329,4.182,1.368,6.285.031,1.235-1.259,2.494-1.954,3.745-.344-1.227-.727-2.447-1.016-3.69A13.26,13.26,0,0,1,1865.985,1670.955Z" transform="translate(-407.099 -362.018)"/>
      <path id="Path_1580" data-name="Path 1580" d="M1211.835,1460.868c-.516-.274-1.509-.962-1.485-1.6.172-4.088.453-8.185.946-12.257a19.316,19.316,0,0,1,1.571-4.268,38.861,38.861,0,0,1,.508,4.432C1213.4,1451.659,1214.008,1456.232,1211.835,1460.868Z" transform="translate(-264.194 -314.92)"/>
      <path id="Path_1581" data-name="Path 1581" d="M1868.242,1728.994c0-3.612-.086-6.441.047-9.264a12.5,12.5,0,0,1,.938-3.041,14.265,14.265,0,0,1,1.04,2.642,19.42,19.42,0,0,1,.516,4.722,46.656,46.656,0,0,1-.977,5.746c-.336,1.728-.7,3.447-1.063,5.167C1868.579,1733.239,1868.414,1731.5,1868.242,1728.994Z" transform="translate(-407.792 -374.718)"/>
      <path id="Path_1582" data-name="Path 1582" d="M1260.486,1716.946c-3.322-1.305-6.926-8.255-6.23-11.327.1-.422.524-.766.8-1.149a12.651,12.651,0,0,1,.735,1.243C1257.367,1709.192,1258.923,1712.678,1260.486,1716.946Z" transform="translate(-273.759 -372.05)"/>
      <path id="Path_1583" data-name="Path 1583" d="M1792.768,1299.5c1.227,2.681,2.056,4.979,2.892,7.27-4.714.469-3.346-3.87-4.761-6.011-.266-.406-.75-.75-.836-1.18-.336-1.7-.547-3.44-.813-5.159C1793.487,1293.845,1790.305,1298.231,1792.768,1299.5Z" transform="translate(-390.556 -282.533)"/>
      <path id="Path_1584" data-name="Path 1584" d="M1693.459,1092.93a77.462,77.462,0,0,1,3.463,8.364c.188.547-.36,1.352-.571,2.032-.547-.438-1.524-.844-1.564-1.329C1694.507,1098.785,1690.6,1096.221,1693.459,1092.93Z" transform="translate(-369.419 -238.564)"/>
      <path id="Path_1585" data-name="Path 1585" d="M1770.956,1235.438c-3.518-.969-4.127-4.135-4.628-7.286a1.93,1.93,0,0,1,1.032-1.61c.578-.141,1.814.274,1.915.672C1769.963,1229.786,1770.424,1232.429,1770.956,1235.438Z" transform="translate(-385.551 -267.722)"/>
      <path id="Path_1586" data-name="Path 1586" d="M1235.826,1594.057c.328,4.237.774,7.684.9,11.147.031.883-.953,1.806-1.47,2.713-.328-.493-.954-.985-.946-1.47.086-4.55.274-9.1.453-13.649a.74.74,0,0,1,.516-.047C1235.49,1592.869,1235.647,1593.1,1235.826,1594.057Z" transform="translate(-269.424 -347.658)"/>
      <path id="Path_1587" data-name="Path 1587" d="M1869.341,1690.93c.391,4.808.407,9.232.367,13.649a4.24,4.24,0,0,1-.5,1.337c-.344-.461-1.024-.962-.985-1.392C1868.591,1699.865,1866.629,1695.081,1869.341,1690.93Z" transform="translate(-407.719 -369.095)"/>
      <path id="Path_1588" data-name="Path 1588" d="M1859.833,1603.811c-.516-2.869-1.18-4.941-1.485-7.067-.094-.7.727-1.54,1.126-2.314.641.539,1.829,1.071,1.837,1.61.031,3.01-.227,6.019-.406,9.029a.8.8,0,0,1-.516.047C1860.169,1605,1860.013,1604.772,1859.833,1603.811Z" transform="translate(-405.637 -348.031)"/>
      <path id="Path_1589" data-name="Path 1589" d="M1851.407,1517.557c-.156,3.025-.313,5.261-.469,7.5-.524-1.884-1.032-3.768-1.579-5.644a13.2,13.2,0,0,1-.969-3.393c.008-.531,1.188-1.063,1.829-1.595A12.8,12.8,0,0,1,1851.407,1517.557Z" transform="translate(-403.465 -330.568)"/>
      <path id="Path_1590" data-name="Path 1590" d="M1844.726,1499.1c-.469-3.268,1.094-3.83,2.6-1.775,1.188,1.618,1.259,4.1,1.649,6.23.109.625-.383,1.368-.594,2.048-.547-.453-1.337-.805-1.595-1.384C1846.11,1502.694,1845.656,1501.068,1844.726,1499.1Z" transform="translate(-402.647 -326.571)"/>
      <path id="Path_1591" data-name="Path 1591" d="M1239.508,1648.771a58.472,58.472,0,0,1-.868-7.731c.367.047.844-.039,1.087.164,2.885,2.416,1.8,5.464,1.251,8.419a.655.655,0,0,1-.516.07A6.939,6.939,0,0,1,1239.508,1648.771Z" transform="translate(-270.369 -358.205)"/>
      <path id="Path_1592" data-name="Path 1592" d="M1149.4,1033.179c0,2.056.039,3.33-.016,4.6a5.174,5.174,0,0,1-.445,1.337c-.368-.4-.915-.743-1.071-1.212a26.734,26.734,0,0,1-1.509-5.456c-.125-1.2.578-2.494.907-3.744A24.2,24.2,0,0,1,1149.4,1033.179Z" transform="translate(-250.222 -224.544)"/>
      <path id="Path_1593" data-name="Path 1593" d="M1816.2,1380.034c.148-2.5-4.284-4.7-.281-6.692a1.756,1.756,0,0,1,1.579.227C1820.549,1376.266,1818.892,1378.4,1816.2,1380.034Z" transform="translate(-396.011 -299.75)"/>
      <path id="Path_1594" data-name="Path 1594" d="M1211.829,1491.649a6.325,6.325,0,0,0-1.509-2.4,22.555,22.555,0,0,1,2.5-.383c.805,2.986,1.485,6,2.1,9.037.078.383-.313.868-.485,1.305-.539-.367-1.431-.641-1.556-1.11A50.868,50.868,0,0,1,1211.829,1491.649Z" transform="translate(-264.188 -324.985)"/>
      <path id="Path_1595" data-name="Path 1595" d="M1862.25,1627.2c.164-1.986.328-3.2.493-4.4.883.719,2.243,1.282,2.525,2.181a10.837,10.837,0,0,1,.024,4.542c-.047.344-1.595.93-1.8.735C1862.9,1629.679,1862.641,1628.765,1862.25,1627.2Z" transform="translate(-406.49 -354.223)"/>
      <path id="Path_1596" data-name="Path 1596" d="M1215.406,1427.633c-.485,2.15,1.337,4.831-1.876,4.518-.532-.055-1.282-2.431-1.126-3.627.164-1.313,1.259-2.5,1.947-3.744A11.061,11.061,0,0,1,1215.406,1427.633Z" transform="translate(-264.638 -311)"/>
      <path id="Path_1597" data-name="Path 1597" d="M1232.25,1584c2.142-2.384,3.369-1.939,3.072.813-.149,1.423,1.376,4.112-1.892,3.705C1232.891,1588.446,1232.641,1586.085,1232.25,1584Z" transform="translate(-268.975 -345.416)"/>
      <path id="Path_1598" data-name="Path 1598" d="M1272.379,1763.9c-.571-.578-.9-.75-.915-.946-.164-2.1-.281-4.214-.414-6.324a46.9,46.9,0,0,1,2.126,5.019A2.463,2.463,0,0,1,1272.379,1763.9Z" transform="translate(-277.444 -383.436)"/>
      <path id="Path_1599" data-name="Path 1599" d="M1264.333,1734.766a26.439,26.439,0,0,1-1.493-3.971c.672-.07,1.345-.133,2.017-.2A13.534,13.534,0,0,1,1264.333,1734.766Z" transform="translate(-275.652 -377.754)"/>
      <path id="Path_1600" data-name="Path 1600" d="M1236.746,1616.9c.571-.219.907-.031.9.133-.094,1.868-.242,3.737-.375,5.605A26.085,26.085,0,0,1,1236.746,1616.9Z" transform="translate(-269.953 -352.914)"/>
      <path id="Path_1601" data-name="Path 1601" d="M1212.238,1466.93a16.58,16.58,0,0,1,1.509,3.76c.141.571-.375,1.306-.586,1.962a11.532,11.532,0,0,1-.883-2.345A23.4,23.4,0,0,1,1212.238,1466.93Z" transform="translate(-264.597 -320.2)"/>
      <path id="Path_1602" data-name="Path 1602" d="M1221.829,1364.057a20.136,20.136,0,0,1-.5,2.853c-.352-.18-1.024-.375-1.009-.532a34.69,34.69,0,0,1,.461-3.588.674.674,0,0,1,.5-.039C1221.5,1362.876,1221.649,1363.1,1221.829,1364.057Z" transform="translate(-266.37 -297.453)"/>
      <path id="Path_1603" data-name="Path 1603" d="M1248.712,1682.892a4.792,4.792,0,0,1,2.384.031l-2.345,2.345A4.748,4.748,0,0,1,1248.712,1682.892Z" transform="translate(-272.538 -367.31)"/>
      <path id="Path_1604" data-name="Path 1604" d="M1876.994,1662.43a1.074,1.074,0,0,1-.1,1.235,23.741,23.741,0,0,1-2.032,1.712c-.2-.406-.649-1.079-.563-1.165A10.9,10.9,0,0,1,1876.994,1662.43Z" transform="translate(-409.118 -362.874)"/>
      <path id="Path_1605" data-name="Path 1605" d="M1236.75,1628.891a4.737,4.737,0,0,1,2.369.023c-.094.336-.242.969-.266.969A3.283,3.283,0,0,1,1236.75,1628.891Z" transform="translate(-269.957 -355.522)"/>
      <path id="Path_1606" data-name="Path 1606" d="M1244.25,1670.346c.524-.524,1.048-.258,1.563,0C1245.3,1670.6,1244.774,1670.87,1244.25,1670.346Z" transform="translate(-271.594 -364.536)"/>
      <path id="Path_1607" data-name="Path 1607" d="M1220.711,1386.93a3.225,3.225,0,0,1,.993,2.1c.008.023-.633.172-.969.266A4.841,4.841,0,0,1,1220.711,1386.93Z" transform="translate(-266.426 -302.738)"/>
      <path id="Path_1608" data-name="Path 1608" d="M1852.25,1536.346c.524-.524,1.047-.258,1.563,0C1853.3,1536.6,1852.774,1536.87,1852.25,1536.346Z" transform="translate(-404.307 -335.286)"/>
      <path id="Path_1609" data-name="Path 1609" d="M1221.813,1532.346c-.516.524-1.04.258-1.563,0C1220.774,1532.088,1221.3,1531.822,1221.813,1532.346Z" transform="translate(-266.355 -334.413)"/>
      <path id="Path_1610" data-name="Path 1610" d="M1220.747,1374.93c.446.078.5.547.547,1.016A.931.931,0,0,1,1220.747,1374.93Z" transform="translate(-266.461 -300.119)"/>
      <path id="Path_1611" data-name="Path 1611" d="M1213.6,1479.646c-.438-.078-.492-.547-.547-1.016A.931.931,0,0,1,1213.6,1479.646Z" transform="translate(-264.783 -322.754)"/>
      <path id="Path_1612" data-name="Path 1612" d="M576.753,1080.891a4.742,4.742,0,0,1,2.368.023c-.092.336-.242.969-.267.969A3.269,3.269,0,0,1,576.753,1080.891Z" transform="translate(-125.893 -235.905)"/>
    </g>
  </g>
</svg>
