<svg xmlns="http://www.w3.org/2000/svg" xmlns:xlink="http://www.w3.org/1999/xlink" width="209.913" height="208.397" viewBox="0 0 209.913 208.397">
  <defs>
    <filter id="Union_4" x="0" y="37.047" width="171.726" height="171.351" filterUnits="userSpaceOnUse">
      <feOffset dy="3" input="SourceAlpha"/>
      <feGaussianBlur stdDeviation="3" result="blur"/>
      <feFlood flood-opacity="0.161"/>
      <feComposite operator="in" in2="blur"/>
      <feComposite in="SourceGraphic"/>
    </filter>
    <filter id="Union_3" x="47.188" y="0" width="162.726" height="162.351" filterUnits="userSpaceOnUse">
      <feOffset dx="-2" dy="1" input="SourceAlpha"/>
      <feGaussianBlur stdDeviation="1.5" result="blur-2"/>
      <feFlood flood-color="#f9f6f0"/>
      <feComposite operator="in" in2="blur-2"/>
      <feComposite in="SourceGraphic"/>
    </filter>
  </defs>
  <g id="Drew_s_brand-dark_blue_cream-edited_shadow" data-name="Drew&apos;s brand-dark blue,cream-edited shadow" transform="translate(-1525 -1953.5)">
    <g transform="matrix(1, 0, 0, 1, 1525, 1953.5)" filter="url(#Union_4)">
      <g id="Union_4-2" data-name="Union 4" transform="translate(0 37.05)" fill="#194159">
        <path d="M69.7,122.187h62.637A30.363,30.363,0,0,0,162.726,91.8V36.388A30.363,30.363,0,0,0,132.338,6H39.388A30.363,30.363,0,0,0,9,36.388V91.8A30.43,30.43,0,0,0,25.826,119l-12.6,40.35Z" stroke="none"/>
        <path d="M 31.1160888671875 135.6057739257813 L 35.37151336669922 121.9817352294922 L 37.90898132324219 113.8579406738281 L 30.29524230957031 110.0544738769531 C 28.553466796875 109.1843490600586 26.97662353515625 108.0945739746094 25.59111022949219 106.8277969360352 C 24.20559692382813 105.5610198974609 23.01141357421875 104.1172485351563 22.03494262695313 102.5391235351563 C 21.05848693847656 100.9609985351563 20.29974365234375 99.24851989746094 19.78512573242188 97.44435119628906 C 19.2705078125 95.64018249511719 19.00001525878906 93.74430847167969 19.00001525878906 91.79938507080078 L 19.00001525878906 36.38764953613281 C 19.00001525878906 33.57719802856445 19.57162475585938 30.89774703979492 20.60470581054688 28.45944595336914 C 21.63778686523438 26.02114486694336 23.13232421875 23.82399368286133 24.97816467285156 21.97815132141113 C 26.82400512695313 20.13230895996094 29.02116394042969 18.63776969909668 31.45947265625 17.60469436645508 C 33.89776611328125 16.57161712646484 36.57721710205078 16 39.38766479492188 16 L 132.3379211425781 16 C 135.1483764648438 16 137.8278198242188 16.57161712646484 140.2661285400391 17.60469436645508 C 142.7044372558594 18.63776969909668 144.9015808105469 20.13230895996094 146.7474212646484 21.97815132141113 C 148.59326171875 23.82399368286133 150.0877990722656 26.02114486694336 151.1208801269531 28.45944595336914 C 152.1539611816406 30.89774703979492 152.7255706787109 33.57719802856445 152.7255706787109 36.38764953613281 L 152.7255706787109 91.79938507080078 C 152.7255706787109 94.60983276367188 152.1539611816406 97.28928375244141 151.1208801269531 99.72758483886719 C 150.0877990722656 102.165885925293 148.59326171875 104.363037109375 146.7474212646484 106.2088775634766 C 144.9015808105469 108.0547180175781 142.7044372558594 109.5492553710938 140.2661285400391 110.5823364257813 C 137.8278198242188 111.6154098510742 135.1483764648438 112.1870269775391 132.3379211425781 112.1870269775391 L 69.70051574707031 112.1870269775391 L 66.70551300048828 112.1870269775391 L 64.20357513427734 113.8333511352539 L 31.1160888671875 135.6057739257813 M 13.22299194335938 159.3507080078125 L 69.70051574707031 122.1870269775391 L 132.3379211425781 122.1870269775391 C 136.5335388183594 122.1870269775391 140.5305786132813 121.3367004394531 144.1661071777344 119.7989959716797 C 147.8016204833984 118.2612838745117 151.0756225585938 116.0361862182617 153.8251800537109 113.2866363525391 C 156.5747222900391 110.5370864868164 158.7998199462891 107.2630767822266 160.3375396728516 103.627555847168 C 161.875244140625 99.99203491210938 162.7255706787109 95.99500274658203 162.7255706787109 91.79938507080078 L 162.7255706787109 36.38764953613281 C 162.7255706787109 32.19203186035156 161.875244140625 28.19499206542969 160.3375396728516 24.55947303771973 C 158.7998199462891 20.92395401000977 156.5747222900391 17.64995002746582 153.8251800537109 14.90039825439453 C 151.0756225585938 12.15084648132324 147.8016204833984 9.925746917724609 144.1661071777344 8.388035774230957 C 140.5305786132813 6.850324630737305 136.5335388183594 6.000000953674316 132.3379211425781 6.000000953674316 L 39.38766479492188 6.000000953674316 C 35.19205474853516 6.000000953674316 31.19502258300781 6.850324630737305 27.55950927734375 8.388035774230957 C 23.92398071289063 9.925746917724609 20.64997863769531 12.15084648132324 17.90042114257813 14.90039825439453 C 15.15086364746094 17.64995002746582 12.92575073242188 20.92395401000977 11.38804626464844 24.55947494506836 C 9.850341796875 28.19499588012695 9.000015258789063 32.19203186035156 9.000015258789063 36.38764953613281 L 9.000015258789063 91.79938507080078 C 9.000015258789063 94.77656555175781 9.428192138671875 97.65377044677734 10.22634887695313 100.3727722167969 C 11.02449035644531 103.0917739868164 12.19259643554688 105.6525726318359 13.67243957519531 107.9969482421875 C 15.15228271484375 110.3413238525391 16.94384765625 112.4692687988281 18.9888916015625 114.3225708007813 C 21.033935546875 116.1758728027344 23.33248901367188 117.7545318603516 25.82630920410156 119.0003280639648 L 13.22299194335938 159.3507080078125 Z" stroke="none" fill="#f9f6f0"/>
      </g>
    </g>
    <g transform="matrix(1, 0, 0, 1, 1525, 1953.5)" filter="url(#Union_3)">
      <g id="Union_3-2" data-name="Union 3" transform="translate(53.69 3.5)" fill="#f9f6f0">
        <path d="M 140.5560150146484 141.4782257080078 L 95.77353668212891 112.0101852416992 L 94.52256011962891 111.1870193481445 L 93.02506256103516 111.1870193481445 L 30.38765907287598 111.1870193481445 C 26.95818328857422 111.1870193481445 23.63394355773926 110.516471862793 20.50725364685059 109.1939697265625 C 17.48470687866211 107.9155197143555 14.76911067962646 106.0842819213867 12.43592071533203 103.751091003418 C 10.10272979736328 101.4179000854492 8.271492004394531 98.70230865478516 6.993039608001709 95.67975616455078 C 5.670539379119873 92.55307006835938 4.999991893768311 89.22882843017578 4.999991893768311 85.79937744140625 L 4.999991893768311 30.38763999938965 C 4.999991893768311 26.95818710327148 5.670539379119873 23.63394927978516 6.993039608001709 20.50725936889648 C 8.271492004394531 17.48471069335938 10.10272979736328 14.76911544799805 12.43592071533203 12.43592548370361 C 14.76911067962646 10.10273456573486 17.48470687866211 8.271496772766113 20.50725364685059 6.993044376373291 C 23.63394355773926 5.670544624328613 26.95818328857422 4.999996662139893 30.38765907287598 4.999996662139893 L 123.3379211425781 4.999996662139893 C 126.7673721313477 4.999996662139893 130.0916137695313 5.670544624328613 133.2183074951172 6.993044376373291 C 136.2408447265625 8.271496772766113 138.9564514160156 10.10273456573486 141.2896423339844 12.43592548370361 C 143.6228179931641 14.76911544799805 145.4540710449219 17.48471069335938 146.7325134277344 20.50725936889648 C 148.0550231933594 23.63394927978516 148.7255706787109 26.95818710327148 148.7255706787109 30.38763999938965 L 148.7255706787109 85.79937744140625 C 148.7255706787109 90.60737609863281 147.3767852783203 95.2855224609375 144.8250122070313 99.32804107666016 C 142.3377990722656 103.2683334350586 138.8244476318359 106.4494247436523 134.664794921875 108.5274047851563 L 130.8579406738281 110.4291381835938 L 132.1266632080078 114.4910430908203 L 140.5560150146484 141.4782257080078 Z" stroke="none"/>
        <path d="M 131.6094970703125 129.6057739257813 L 127.3540725708008 115.9817352294922 L 124.8166046142578 107.8579406738281 L 132.4303436279297 104.0544738769531 C 139.3974761962891 100.573974609375 143.7255706787109 93.57906341552734 143.7255706787109 85.79938507080078 L 143.7255706787109 30.38764762878418 C 143.7255706787109 19.14585494995117 134.5797119140625 10.00000095367432 123.3379211425781 10.00000095367432 L 30.38766098022461 10.00000095367432 C 19.14586639404297 10.00000095367432 10.00001335144043 19.14585494995117 10.00001335144043 30.38764762878418 L 10.00001335144043 85.79938507080078 C 10.00001335144043 97.04117584228516 19.14586639404297 106.1870269775391 30.38766098022461 106.1870269775391 L 93.02507019042969 106.1870269775391 L 96.02007293701172 106.1870269775391 L 98.52201080322266 107.8333511352539 L 131.6094970703125 129.6057739257813 M 149.5025939941406 153.3507080078125 L 93.02507019042969 116.1870269775391 L 30.38766098022461 116.1870269775391 C 13.60518932342529 116.1870269775391 1.300407893722877e-05 102.5818557739258 1.300407893722877e-05 85.79938507080078 L 1.300407893722877e-05 30.38764762878418 C 1.300407893722877e-05 13.6051778793335 13.60518932342529 1.062729779732763e-06 30.38766098022461 1.062729779732763e-06 L 123.3379211425781 1.062729779732763e-06 C 140.120361328125 1.062729779732763e-06 153.7255706787109 13.6051778793335 153.7255706787109 30.38764762878418 L 153.7255706787109 85.79938507080078 C 153.7255706787109 97.70812225341797 146.87451171875 108.0171508789063 136.8992767333984 113.0003280639648 L 149.5025939941406 153.3507080078125 Z" stroke="none" fill="#194159"/>
      </g>
    </g>
  </g>
</svg>
