<svg xmlns="http://www.w3.org/2000/svg" width="2363.043" height="1366.9" viewBox="0 0 2363.043 1366.9">
  <g id="Medium" transform="translate(1181.521 683.45)">
    <g id="Medium-2" data-name="Medium" transform="translate(-1181.521 -683.45)">
      <path id="Path_1678" data-name="Path 1678" d="M4.327,683.005c-1.832-12.814-6.582-24.418-2.413-36.673a6.368,6.368,0,0,0-.048-4.625c-2.327-4.058-2.733-7.73.264-11.662.649-.851.576-2.731.132-3.86-3.6-9.159,1.727-18.325-.028-27.345-2.371-12.185-.705-24.5.588-36.3,2.534-23.135-.384-46.26,1.928-69.17.987-9.783-1-20.459,5.319-29.727,1.706-2.5.3-7.157.25-10.822-.082-6.477,1.172-12.557,5.078-17.9.364-.5,1.01-1.406.874-1.565-6.8-7.922,3.319-11.766,4.94-17.443,2.117-7.414,5.749-14.875,9.072-22.167,3.17-6.957,8.533-13.287,8.044-21.654,6.784-7.582,7.488-17.574,10.514-26.637,1.958-5.865,3.974-11.741,5.41-17.744,1.886-7.886,4.448-14.343,13.364-17.37,6.3-2.139,11.283-7.549,17.973-9.676,11.621-3.7,11.564-3.826,23.091-.33,3.144.953,5.9,1.287,8.9-1.421,17.394-15.693,37.448-27.361,58.212-37.967,10.2-5.211,19.673-12.1,30.242-16.3,17-6.753,32.191-16.907,48.939-24.238,14.314-6.265,28.566-13.2,42.557-20.291,10.017-5.08,20.58-8.5,30.43-13.457a223.56,223.56,0,0,1,23.034-9.636c10.979-4.076,21.718-9.7,33.077-11.658,21.628-3.718,41.962-11.781,63.187-16.8,17.275-4.088,33.658-11.909,50.486-17.934,9.005-3.225,18.016-6.508,27.215-9.084,5.463-1.53,11.273-2.027,16.967-2.479,11.038-.877,22.1-1.738,33.162-1.96a125.939,125.939,0,0,0,29.378-3.936c8.238-2.135,16.814-3.163,25.3-4.078,9.681-1.044,19.6-.54,29.113-2.318,11.095-2.072,22.135-1.352,33.2-1.839,6.52-.287,13.575-3.2,19.391-1.511,10.8,3.146,21.749,1.448,32.55,2.9,13.582,1.831,26.539,5.448,39.521,8.923,16.064,4.3,31.6,10.543,47.446,15.7,7.344,2.389,13.891,6.461,21.515,8.587,5.952,1.66,10.768,7.891,15.726,12.483,6.066,5.618,11.627,11.78,17.641,17.458,5.439,5.135,11.4,9.725,16.765,14.931,10.244,9.936,20.934,19.543,30.136,30.39,10.475,12.349,21.44,24.312,29.791,38.528,8.436,14.36,19.033,27.434,28.264,41.35,3.737,5.633,6.295,12.039,9.507,18.031,8.63,16.094,17.44,32.09,25.94,48.249,5.17,9.829,10.34,19.7,14.75,29.883,7.73,17.852,14.53,36.059,19.38,54.97,2.54,9.871,5.94,19.52,8.99,29.259a372.391,372.391,0,0,1,11.03,45.444,240.529,240.529,0,0,0,5.96,23.508c5.2,18.265,9.47,36.8,14.48,55.059,3.83,13.931,5.98,28.18,8.77,42.136,2.91,14.514,7.12,29.066,6.99,44.372a193.651,193.651,0,0,0,3.98,39.276c2.22,11.152.59,22.229,1.93,33.2.8,6.585-.54,12.91-.27,19.367.27,6.655.06,13.329.06,19.994,0,7,.58,14.059-.16,20.98-.86,8.108-2.81,16.106-4.39,24.131-1.76,8.923-3.92,17.776-5.39,26.743-2.35,14.294-4.14,28.648-7.85,42.729-2.25,8.535-2.38,17.612-4.32,26.252-3.57,15.9-4.73,32.218-9.62,47.955-3.99,12.815-4.99,26.528-8.42,39.558-4.74,17.94-9.21,36.15-16.26,53.23-5.78,13.99-14.31,26.98-23.66,39.22-5.72,7.47-10.52,15.65-15.97,23.34-4.42,6.22-9.56,11.96-13.74,18.33-13.943,21.26-32.01,38.87-50.447,55.95-10.908,10.1-23.582,18.33-35.668,27.12-9.675,7.03-19.722,13.56-29.488,20.47-7.686,5.45-14.9,11.58-23.554,15.57a48.987,48.987,0,0,0-5.553,3.49c-3.431,2.18-6.622,4.99-10.344,6.4-12.389,4.69-23.359,12.5-36.8,15.12-8.293,1.62-15.87,6.62-23.983,9.51-13.378,4.75-26.759,9.66-40.461,13.29-11.718,3.1-22.928,7.45-34.209,11.63-11.856,4.39-23.1,10.23-34.46,15.82-9.031,4.44-18.709,8.31-29.336,8.92-8.826.5-17.533,2.91-26.361,3.65-4.682.4-9.505-1.02-14.275-1.52a65.731,65.731,0,0,0-6.878-.29,140.556,140.556,0,0,1-34.356-3.94c-2.2-.54-4.647-.09-6.979-.07-15.772.09-31.3-1.48-46.543-5.88-4.1-1.18-8.033.76-11.5,3.55-.742.6-7.305,2.93-3.162-3.3.061-.09-1.864-2.14-2.991-2.28-11.426-1.49-22.886-2.7-34.316-4.16a11.985,11.985,0,0,1-5.138-1.99c-3.839-2.66-7.54-2.45-11.731-.8a17.658,17.658,0,0,1-7.642.77c-3.721-.3-.815-1.72-.246-2.72.536-.93,1.05-1.88,1.573-2.82-1.282-.13-2.76-.71-3.8-.26-1.421.61-2.4,2.19-3.773,2.99-1.032.59-2.854,1.27-3.547.8-8.618-5.97-19.887-.77-28.539-6.93-1.821-1.3-5.11-.34-7.516-1.09-1.9-.59-6.36-.74-2.433-4.79.39-.4-.181-1.73-.306-2.64-.707.41-1.418.8-2.12,1.21-4.372,2.55-8.259,2.22-13.039-.09-10.524-5.06-21.656-8.85-32.313-13.67a219.312,219.312,0,0,1-19.606-10.59c-6.205-3.6-12.45-7.21-18.263-11.39-10.254-7.37-21.508-13.18-31.132-21.63-10.011-8.79-21.345-16.05-31.779-24.38-4.865-3.89-8.813-8.9-13.453-13.09-11.845-10.71-23.838-21.26-35.785-31.85-5.558-4.93-11.854-9.23-16.564-14.86-7.969-9.53-18.974-16.69-23.4-29.06-12.821-10.29-16.6-26.41-24.9-39.59-5.139-8.15-11.579-16.24-13.3-26.44-.207-1.23-3.024-1.97-4.566-3.03-5.518-3.8-7.674-9.05-7.278-17.21.042-.86-.433-2.48-.827-2.53-5.359-.7-4.66-6.25-7.268-8.84-9.645-9.57-10.578-22.34-13.923-34.31-2.493-8.93-5.558-17.69-8.359-26.53-1.868-5.89-4.584-11.685-5.3-17.716-.553-4.654-2.339-8.32-4.154-12.364-3.148-7.012-4.017-15.56-8.564-21.313-7.118-9.006-5.843-20.232-10.742-29.7-4.785-9.245-8.234-19.273-11.424-29.229-5.478-17.1-10.985-34.239-15.147-51.681-2.656-11.13-2.882-22.836-4.263-34.275-.572-4.735-1.219-9.464-2-14.168-2.446-14.681-3.362-29.473-4.24-44.322-.529-8.947-3.648-17.735-5.5-26.616a22.7,22.7,0,0,1-.226-4.907c.111-8.032-.683-15.842-3.867-23.4-.948-2.25-.146-5.237-.146-8.887m578-523-1.854-.146a4.069,4.069,0,0,1,1.854,2.146l1.853.147a4.071,4.071,0,0,1-1.853-2.147m-310,526,1.853.147a4.071,4.071,0,0,1-1.853-2.147,51.373,51.373,0,0,0-5.338-.94,7.176,7.176,0,0,0-2.516.794,14.151,14.151,0,0,0,3.07,1.1c1.574.187,3.187.048,4.784,1.048m146,336.005c-1.067-.27-2.134-.54-3.2-.8-.1.43-.2.87-.293,1.3a5.385,5.385,0,0,1,3.493,1.5c1.907,1,3.783,2.06,5.744,2.94.432.2,1.164-.28,1.758-.45-.456-.5-.82-1.23-1.384-1.45a20.322,20.322,0,0,1-6.118-3.04m328-620.005,1.853.147a4.071,4.071,0,0,1-1.853-2.147c-.469-.468-.88-1.248-1.418-1.348a16.829,16.829,0,0,0-4.784-.336c-.557.06-.987,1.3-1.475,2.007,1.564.226,3.123.5,4.695.659a4.038,4.038,0,0,1,2.982,1.018m-232,372,3.2.8q.147-.652.293-1.307a5.367,5.367,0,0,1-3.493-1.493c-2.907-1-5.775-2.153-8.745-2.9-.867-.219-2.025.708-3.049,1.11.942.932,1.8,2.536,2.843,2.666,2.943.367,5.962.128,8.951,1.128m183,75c-3.67.149-7.246.346-9.569-3.514-3.423-5.686-13.205-6.642-11.939-15.929.015-.107-1.191-.24-1.675-.578-2.341-1.639-3.357-3.08.537-4.038,1.152-.283,2.108-1.311,3.193-1.928.753-.429,1.574-.738,2.364-1.1-.707-.707-1.29-1.71-2.143-2.069-3.122-1.312-6.43-2.2-9.493-3.63-6.441-3-4.065-11.891-8.309-14.777-5.135-3.494-9.751-6.532-11.952-12.449a3.823,3.823,0,0,1-.017-.995c-.3-4.311-3.1-5.331-6.756-4.94a6.367,6.367,0,0,0-3.158,1.4c-.233.19.347,1.806.9,2.474,3.945,4.726,7.988,9.368,11.982,14.052,1.041,1.221,2.7,2.383,2.921,3.76,1.394,8.547,6.065,15.12,11.911,21.1.871.892,1.993,1.987,2.117,3.087,1.027,9.134,6.532,14.423,14.628,17.622,1.146.453,3.259.927,3.266,1.414.08,5.9,5.481,4.573,8.473,6.077,3.078,1.545,6.613,1.923,8.964,5.039,1.037,1.375,3.083,2.038,4.754,2.854a2.129,2.129,0,0,0,1.929-.154,1.865,1.865,0,0,0-.075-1.838,128.581,128.581,0,0,1-10.857-10.942h3.91a12.036,12.036,0,0,0-1.354-3.35,37.417,37.417,0,0,0-4.829-4.831c-.665-.562-2.151-1.064-2.648-.715a4.86,4.86,0,0,0-1.92,2.993c-.07.517,1.617,1.876,2.4,1.8,3.411-.342,3.762,1.516,2.439,4.106m117-663a12.738,12.738,0,0,0-3.566-.924,21.48,21.48,0,0,0-4.34,1.018,22.908,22.908,0,0,0,2.843,2.777c1.251.871,2.756,1.367,4.072,2.158a130.362,130.362,0,0,0,33.989,14.15c3.637.966,6.262,5.662,10.948,2.876-3.3-2.352-6.6-4.717-9.921-7.044a13.642,13.642,0,0,0-2.413-1.38c-10.139-4.366-19.758-10-31.612-13.631m-90,850.005c-2.818-5.49-5.294-11.19-8.616-16.35-1.382-2.15-4.416-3.53-6.985-4.51-1.656-.63-3.833.11-5.776.23a43.079,43.079,0,0,1,4.2,3.66,39.817,39.817,0,0,1,3.177,4.57c1.563,2.34,2.787,5.02,4.738,6.97a21.411,21.411,0,0,0,9.265,5.43m-306-708.005c-4.849-2.72-9.211-.421-13.431,1.6-1.193.571-2.707,2.937-2.36,3.73.661,1.509,2.437,3.3,3.96,3.524,5.523.8,9.082-2.483,11.831-8.852m287,747.005,4.657-.66c-.7-.93-1.218-2.15-2.137-2.74-3.091-1.98-6.284-3.82-9.516-5.57-2.993-1.61-6.056-2.26-8.681.71-.417.47-.358,1.36-.518,2.06,6.538-2.08,8.987,5.22,16.2,6.2m-29-617.005c-3.972-2.333-7.821-4.931-11.981-6.858-1.483-.687-3.721.255-5.614.453a23.633,23.633,0,0,0,3.986,2.727c4.524,1.919,8.061,6.235,13.609,3.678m-325-73a42.955,42.955,0,0,0,4.707-4.9c.384-.531-.341-2.768-.973-2.979-3.887-1.3-5.734,1.907-7.914,4.134-.739.754.192,2.038,4.18,3.746m-165,29c-6.064,3.468-7.82,8.039-4.9,13.039.435.745,1.375,1.2,2.082,1.782a25.469,25.469,0,0,0,.8-2.661c.646-3.392-1.607-7.354,2.015-12.16m495,645.005h3.92c-.443-1.14-.609-2.53-1.38-3.37-2.5-2.7-6.65-6.55-9.037-3.43-2.655,3.47,4.971,2.37,6.5,6.8m-67-773.005c3.516.334,7.031.694,10.554.922.179.012.8-1.316.593-1.686-1.656-3.039-8.5-3.129-11.147.764m-27,197,4.718,1.282c-.592-1.094-.924-2.56-1.836-3.2-1.441-1.005-3.342-1.321-4.917-2.171-2.1-1.134-4.082-2.5-6.114-3.766,1.872,1.951,3.726,3.918,5.628,5.838.42.424,1.009.68,2.521,2.013m52,558.005-2.589,1.41c.974.86,1.816,2.14,2.95,2.5a79.117,79.117,0,0,0,7.99,1.73,30,30,0,0,0-8.351-5.64m-37-549.005c-.409.925-1.231,2.628-1.168,2.66a49.842,49.842,0,0,0,7.379,3.432c1.094.366,2.516-.25,3.789-.421a28.107,28.107,0,0,0-2.834-2.645,14.472,14.472,0,0,0-7.166-3.026m173,505-12.106-3.894c-.131.465-.4,1.329-.375,1.338q6.372,2.187,12.795,4.219c.144.045.453-.43-.314-1.663m-276-64,4.823,1.177a47.845,47.845,0,0,0-3.257-5.466c-.425-.554-2.594-.6-2.624-.5-.447,1.559-.668,3.182,1.058,4.789m232-766c-2.989,0-5.978-.035-8.965.031a5.609,5.609,0,0,0-1.712.646,11.967,11.967,0,0,0,1.485,2.094c4.133,3.8,6.788-1.176,9.192-2.771m-668,754a10.428,10.428,0,0,0-2.906,1.588c-.253.26.491,2.236.937,2.3a13.906,13.906,0,0,0,5.805-.03c1.152-.354,1.876-2.1,2.792-3.228-1.543-.209-3.085-.418-6.628-.628m534-774,2.65-.65a64.2,64.2,0,0,0-3.486-6.025c-.269-.38-2.066-.236-2.567.262a2.77,2.77,0,0,0-.266,2.614c.607,1.09,1.751,1.882,3.669,3.8m-195,629a3.579,3.579,0,0,0-.71-.675c-.167-.091-.605-.036-.664.082-1.324,2.652-.945,5.046,1.57,6.675.841.545,2.207.283,3.332.39a12.52,12.52,0,0,0-.5-3.348c-.366-.842-1.327-1.426-3.025-3.124m-361-261a42.856,42.856,0,0,0,4.942-.035c2.6-.3,5.168-.837,7.75-1.273-2.543-.23-5.228-1.072-7.587-.519s-5.883-2.843-5.1,1.827m469,425a12.719,12.719,0,0,0-3.365-.492c-.271.025-.834,2.171-.5,2.46a15.364,15.364,0,0,0,4.667,2.918c.766.275,1.979-.691,2.99-1.094-.931-.93-1.862-1.861-3.792-3.792m-110,76.005a7.678,7.678,0,0,0,1.413.55c.151.02.612-.59.553-.69a27.489,27.489,0,0,0-2.995-4.68c-.228-.25-1.943.81-2.971,1.26,1,.85,2,1.7,4,3.56m296-548.005c-1.6-1.6-3.191-3.2-4.843-4.747a8.97,8.97,0,0,0-1.1.993q1.914,2.427,3.977,4.732c.148.165.638.022,1.97-.978m-545,129v-4l-4.586.586a8.963,8.963,0,0,0,4.586,3.414m860,274-3,2.415,1.89,1.585c1.04-1.333,2.07-2.666,1.11-4m-450-256c.333-.827,1.165-2.107.9-2.4-.692-.764-2.267-1.768-2.753-1.471-1.155.707-1.884,2.11-2.784,3.232a24.152,24.152,0,0,0,4.634.634m128,246c-.333.828-1.165,2.107-.9,2.4.693.764,2.268,1.768,2.753,1.471,1.155-.707,1.884-2.11,2.785-3.232a24.2,24.2,0,0,0-4.634-.635m73,123c-.56,3.722,2.107,3,4.179,2.964.528-.009,1.049-.465,1.573-.715a34.912,34.912,0,0,0-2.911-3.2c-.354-.311-1.213-.049-2.841.951m-615-661,2.671-.67c-.253-.443-.478-1.248-.761-1.27a23.018,23.018,0,0,0-4.9-.005,18.539,18.539,0,0,0-3.655,1.3c1.549.215,3.1.431,6.647.646m42,440a7.018,7.018,0,0,0,1.875-.029,8.451,8.451,0,0,0,3.044-1.3c.263-.217-.371-2.27-.68-2.292a6.489,6.489,0,0,0-3.214.683c-.8.4-1.359,1.277-1.025,2.943m436,270.005c.9-.44,1.8-.88,2.693-1.31a19.292,19.292,0,0,0-4.005-1.9c-1.045-.24-2.266.29-3.409.48a9.551,9.551,0,0,0,4.721,2.73m98-14q2.376-1.635,4.752-3.25c-.524-.25-1.045-.71-1.573-.72-2.072-.03-4.739-.76-3.179,3.97m-295-531.005c2.091.334,4.176.732,6.279.952.487.05,1.037-.51,1.559-.789a6.39,6.39,0,0,0-2.067-1.11,11.443,11.443,0,0,0-5.771.947m219,547.005q2.309-.7,4.616-1.39c-.936-.81-2.032-2.39-2.77-2.24-1.083.22-1.91,1.69-1.846,3.63m-599-233.005c-2.091-.333-4.176-.731-6.279-.951-.487-.051-1.037.51-1.559.789a6.392,6.392,0,0,0,2.066,1.11,11.448,11.448,0,0,0,5.771-.948m331-55c.009,1.334-.005,2.669.111,3.993a9.425,9.425,0,0,0,1.778,0,3.714,3.714,0,0,0-1.889-3.993m592-428,6.838-1.162c-2.388-.171-4.774-.36-7.164-.482-.213-.011-.449.419.326,1.644m-486,486,4.616-1.383c-.936-.808-2.032-2.393-2.77-2.241-1.083.223-1.91,1.688-1.846,3.624m-433,105,2.294,3,1.706-1.705a4.859,4.859,0,0,0-4-1.295m504-734-2.3-3-1.7,1.706a4.856,4.856,0,0,0,4,1.294m-53,771c-1-1.333-1.957-2.7-3.056-3.95-.134-.151-1.036.376-1.582.588a9.134,9.134,0,0,0,4.638,3.362m-271-269c.8.334,1.83,1.152,2.368.906,1.375-.631,2.325,4.4,3.478.231.113-.408-1.873-1.505-2.985-2.093-.491-.259-1.233-.044-2.861.956m-28-20c-.631.7-1.843,1.992-1.812,2.023,2.736,2.7,3.771-.459,5.418-1.629a4.068,4.068,0,0,0-3.606-.394m509,207-2.692.692c1.323,1.1,2.6,2.268,4.014,3.245.225.155,1.033-.533,1.572-.83-.632-.7-1.263-1.405-2.894-3.107m-116,120a3.542,3.542,0,0,0-.679.715c-.09.167.047.455.083.689,1.6-.535,3.217-1.025,4.777-1.658.218-.089.149-.884.213-1.352a11.84,11.84,0,0,0-4.394,1.606m-497-95c2.091.334,4.176.732,6.279.952.487.05,1.037-.51,1.559-.789a6.39,6.39,0,0,0-2.067-1.11,11.443,11.443,0,0,0-5.771.947m319,447.005a3.418,3.418,0,0,0-.666.69.9.9,0,0,0,.044.65c1.527.24,3.058.5,4.6.59.2.01.446-.84.671-1.29a24.217,24.217,0,0,0-4.646-.64m-141-753.005-3.956-.044c1.319.682,2.637,1.363,3.956.044m174-322c-1.432-.333-2.851-.758-4.3-.946-.469-.061-1.018.5-1.531.779a7.811,7.811,0,0,0,2.018,1.12c.9.2,1.873.047,3.815-.953m-37,311-2.647.647c.549.451,1.038,1.159,1.659,1.3,1.571.366,2.155-.109.988-1.95m-288,38a7.191,7.191,0,0,0,1.875-.029,30.553,30.553,0,0,0,2.958-1.138,7.269,7.269,0,0,0-2.476-.768,2.221,2.221,0,0,0-2.357,1.935m158-42a3.653,3.653,0,0,0-.666.7.891.891,0,0,0,.044.647c1.527.244,3.058.5,4.6.591.2.012.446-.839.671-1.29a23.985,23.985,0,0,0-4.646-.647m240,412,1.957,1.958q.445-1.555.89-3.11c-1.282.051-2.565.1-2.847,1.152m-22-28-.153,3.848,3.11-.89-2.957-2.958m233-81-3.262-2.738c-.246.513-.81,1.372-.687,1.485a4.341,4.341,0,0,0,3.949,1.253m-636-10c1.431.334,2.851.759,4.3.947.469.061,1.019-.5,1.532-.78a7.84,7.84,0,0,0-2.018-1.12c-.9-.2-1.873-.047-3.815.953m993-73c.01-1.318.03-2.637.04-3.955-.68,1.318-1.36,2.637-.04,3.955m-667-23c-1.432-.333-2.851-.758-4.3-.946-.469-.061-1.018.5-1.531.779a7.811,7.811,0,0,0,2.018,1.12c.9.2,1.873.047,3.815-.953m-56-102-.543-2.542-3,3a4.84,4.84,0,0,0,3.543-.458m-101-1-2.738,3.262c.513.246,1.371.81,1.484.688a4.343,4.343,0,0,0,1.254-3.95m833,21c-1.43-.333-2.85-.758-4.3-.946-.47-.061-1.02.5-1.54.779a7.84,7.84,0,0,0,2.02,1.12c.9.2,1.88.047,3.82-.953m-1035-87,2.529-.528c-.118-.432-.309-1.246-.342-1.24-1.072.208-2.128.494-2.187,1.768m487,81c-1.059-.274-2.115-.56-3.187-.768-.033-.006-.224.808-.342,1.24a4.825,4.825,0,0,0,3.529-.472m-447,13-2.529.529c.118.432.309,1.246.342,1.24,1.072-.208,2.128-.494,2.187-1.769m548,0q.5,1,1,2c.333-.666.667-1.333-1-2m404-34c.33.667.66,1.334,1,2,.33-.666.66-1.333-1-2m-697,45,.528,2.529c.432-.117,1.247-.309,1.24-.342-.207-1.071-.494-2.128-1.768-2.187m-118-174c-1.059-.274-2.115-.56-3.187-.768-.033-.006-.224.808-.342,1.24a4.825,4.825,0,0,0,3.529-.472m-139,67q.5,1,1,2c.333-.666.667-1.333-1-2m288,132q.5,1,1,2c.333-.666.666-1.333-1-2m248,306.005c.333.66.666,1.33,1,2,.333-.67.667-1.34-1-2m-180-800.005q-.5-1-1-2c-.334.667-.667,1.334,1,2m17,275c1.059.274,2.115.56,3.187.768.032.006.224-.808.341-1.24a4.823,4.823,0,0,0-3.528.472m-215,97q-.5-1-1-2c-.334.667-.667,1.334,1,2m308-322-2.529.529c.118.432.309,1.246.342,1.24,1.072-.208,2.128-.494,2.187-1.769m231,723.005c-1.059-.28-2.115-.57-3.187-.77-.033-.01-.224.81-.342,1.24a4.874,4.874,0,0,0,3.529-.47m-14-2c1.059.27,2.115.56,3.187.76.033.01.224-.8.341-1.24a4.837,4.837,0,0,0-3.528.48m-456-258.005c1.059.275,2.115.561,3.187.769.032.006.224-.808.341-1.24a4.826,4.826,0,0,0-3.528.471m206-430c1.059.275,2.115.561,3.187.769.032.006.224-.808.341-1.24a4.826,4.826,0,0,0-3.528.471m-346,18c1.059.275,2.115.561,3.187.769.032.006.224-.808.341-1.24a4.826,4.826,0,0,0-3.528.471m350,424c-1.059-.274-2.115-.56-3.187-.768-.033-.006-.224.808-.342,1.24a4.825,4.825,0,0,0,3.529-.472m366,4c-1.059-.274-2.115-.56-3.187-.768-.033-.006-.224.808-.342,1.24a4.825,4.825,0,0,0,3.529-.472m-708-126c1.059.275,2.115.561,3.187.769.032.006.224-.808.341-1.24a4.826,4.826,0,0,0-3.528.471m-72-204c1.059.275,2.115.561,3.187.769.032.006.224-.808.341-1.24a4.826,4.826,0,0,0-3.528.471m570,434c1.059.275,2.115.561,3.187.769.032.006.224-.808.341-1.24a4.826,4.826,0,0,0-3.528.471m241-387q.5,1,1,2c.333-.666.667-1.333-1-2m-610,296-2.529.529c.118.432.309,1.246.342,1.24,1.072-.208,2.128-.494,2.187-1.769m727-131c-.67.334-1.34.667-2,1,.66.334,1.33.667,2-1m-691,11c.274-1.058.561-2.115.768-3.187.006-.032-.808-.224-1.24-.341a4.822,4.822,0,0,0,.472,3.528m33,149c-1.059-.274-2.115-.56-3.187-.768-.033-.006-.224.808-.342,1.24a4.825,4.825,0,0,0,3.529-.472m209-7,.8-1.2c-.6.067-1.2.134-.8,1.2m-274-148q.4-.6.8-1.2c-.6.067-1.2.134-.8,1.2m724,0c-.27.4-.54.8-.8,1.2.6-.066,1.2-.133.8-1.2m-631-189-1.2-.8c.067.6.133,1.2,1.2.8m-117,345q-.4.6-.8,1.2c.6-.066,1.2-.133.8-1.2m105,7,1.2.8c-.067-.6-.134-1.2-1.2-.8m-196,4-1.2-.8c.066.6.133,1.2,1.2.8m864,4,1.2.8c-.07-.6-.14-1.2-1.2-.8m-49-37c-.27.4-.54.8-.8,1.2.6-.067,1.2-.134.8-1.2m-13-325,1.2.8c-.07-.6-.14-1.2-1.2-.8m-803,377q.4-.6.8-1.2c-.6.067-1.2.134-.8,1.2m-97,5-1.2-.8c.066.6.133,1.2,1.2.8m-76,26-1.2-.8c.067.6.133,1.2,1.2.8m402-376-1.2-.8c.066.6.133,1.2,1.2.8m-292,152-1.2-.8c.066.6.133,1.2,1.2.8m-16,126-1.2-.8c.066.6.133,1.2,1.2.8m8,126,1.2.8c-.067-.6-.134-1.2-1.2-.8m415-487,.8-1.2c-.6.067-1.2.134-.8,1.2m-205-17,1.2.8c-.067-.6-.134-1.2-1.2-.8m-186,104,1.2.8c-.067-.6-.134-1.2-1.2-.8m-46,454-1.2-.8c.066.6.133,1.2,1.2.8m119-569-.8,1.2c.6-.066,1.2-.133.8-1.2m-87,243-1.2-.8c.066.6.133,1.2,1.2.8m362,334-1.2-.8c.067.6.133,1.2,1.2.8m-61-603q-.4.6-.8,1.2c.6-.066,1.2-.133.8-1.2m492,142,.8-1.2c-.6.067-1.2.134-.8,1.2m-594,250q-.4.6-.8,1.2c.6-.066,1.2-.133.8-1.2m-90-436q.4-.6.8-1.2c-.6.067-1.2.134-.8,1.2m-157,195,1.2.8c-.067-.6-.134-1.2-1.2-.8m172,232,1.2.8c-.067-.6-.134-1.2-1.2-.8m10-506,1.2.8c-.067-.6-.134-1.2-1.2-.8m255,499,.8-1.2c-.6.067-1.2.134-.8,1.2m-176,0q.4-.6.8-1.2c-.6.067-1.2.134-.8,1.2m231,315.005c-.4-.27-.8-.54-1.2-.8.066.6.133,1.2,1.2.8m-408-534.005-1.2-.8c.066.6.133,1.2,1.2.8m294-298-1.2-.8c.067.6.133,1.2,1.2.8m132,504-1.2-.8c.066.6.133,1.2,1.2.8m104-16-1.2-.8c.066.6.133,1.2,1.2.8m-636-104,1.2.8c-.067-.6-.133-1.2-1.2-.8m627-429-.8,1.2c.6-.066,1.2-.133.8-1.2m247,1039.005c.4.26.8.53,1.2.8-.067-.6-.134-1.2-1.2-.8m-381-513.005.8-1.2c-.6.067-1.2.134-.8,1.2m-261-7-1.2-.8C317.193,685.8,317.26,686.405,318.327,686.005Z" transform="translate(0 0)" fill="#4b5673"/>
      <path id="Path_1679" data-name="Path 1679" d="M1252.33,207.005c0-3-1.24-7.081.25-8.775,3.19-3.636-.09-4.759-.95-7.26-1.04-3.046-7.89-6.835-.15-10.236a3.064,3.064,0,0,0-.5-2c-3.57-3.129-3.31-6.381-1.25-10.36a9.367,9.367,0,0,0,.21-6.586c-1.14-3.378.02-5.623,2.31-7.691,4.58-4.137,4.59-4.112,3.22-8.96-.42-1.5-1.6-3.709-1.02-4.421,7.44-9.013,3.92-20.644,7.5-30.618,2.03-5.667.98-12.046.89-18.2-.14-8.452,3.6-16.846,8.03-24.452,1.71-2.945,2.81-6.422,5.06-8.844,4.42-4.751,10.72-6.264,16.8-7.517,9.46-1.949,18.85-3.56,27.74-7.93,13.95-6.847,28.55-11.953,44.1-14.283,9.87-1.478,19.56-4.165,29.3-6.441,7.28-1.7,14.58-3.356,21.73-5.483,12.36-3.677,25.66-2.8,37.73-7.86,1.14-.475,2.64-.053,3.97-.087q39.075-.993,78.16-2a99.517,99.517,0,0,1,28.38,3.82,75.962,75.962,0,0,0,19.12,2.084c23.09.076,45.04,5.923,66.81,12.618a158.346,158.346,0,0,1,37.67,17.615c9.89,6.224,19.21,13.408,28.48,20.561a319.385,319.385,0,0,1,33.17,28.8c10.24,10.42,17.91,22.736,27.12,33.889,7.41,8.973,12.39,19.775,20.6,28.3,2.98,3.092,4.85,7.261,7.16,10.978,5.44,8.739,11.63,17.126,16.08,26.348,5.91,12.255,12.76,24.1,19.22,35.933,7.49,13.718,11.11,28.872,18.96,42.24,2.84,4.838,3.61,10.492,4.78,16.076,1.67,8.02,6.3,15.37,8.73,23.3,6.9,22.505,18.37,43.074,27.45,64.626,5.86,13.9,11.97,27.756,16.99,41.95,5.35,15.145,11.61,30.017,14.35,46.109,2.13,12.54,6.17,24.745,9.14,37.154,2.39,10.038,4.19,20.223,6.74,30.221,1.83,7.171,4.76,14.059,6.66,21.216,4,15.047,9.59,29.682,11.36,45.328.7,6.185,2.61,12.229,3.89,18.354a97.377,97.377,0,0,1,2.02,20.509c-.04,6.666.19,13.339-.06,20-.5,13.52-1.19,27.03-3.9,40.35-.39,1.92-.03,3.989-.06,5.988-.07,4.966,1.33,10.634-.61,14.721-2.5,5.276,1.69,8.84.88,13.662-3.1,18.328-1.81,36.953-2.46,55.456-.28,7.769-2.69,15.468-4.2,23.186-.42,2.134-1.79,4.333-1.48,6.312,1.58,10.253-2.35,19.691-4.39,29.294-1.66,7.778-3.24,15.548-3.6,23.41-.52,11.307.13,22.664-.2,33.987-.37,12.73-.45,25.559-2.2,38.131a115.726,115.726,0,0,1-7.91,27.647c-6.24,15.184-12.27,30.331-15.92,46.42q-5.355,23.655-12.04,47c-2.46,8.55-6.01,16.83-9.56,25.02-3.92,9.04-8.27,17.92-12.69,26.74-6.22,12.43-13.56,24.38-18.86,37.18-10.33,24.92-25.2,47.48-36.17,72.01-5.27,11.8-8.74,24.5-14.85,35.8-6.76,12.5-12.01,26.39-25.29,34.52-4.65,2.85-7.72,8.15-12.08,11.62a185.731,185.731,0,0,1-20.86,14.8c-6.05,3.58-12.92,5.76-19.34,8.76a308.066,308.066,0,0,1-57.74,19.87c-4.38,1.06-8.03,7.66-13.47,2.15-4.29,3.87-9.48,1.14-14.19,1.95-7.78,1.35-15.95,1.6-23.24,4.28-8.86,3.26-17.75,2.24-26.23,1.34-12.02-1.28-24.44-2.64-35.65-7.76-7.39-3.38-15.96-2.76-22.81-7.77a133.83,133.83,0,0,0-14.41-8.62c-9.48-5.23-19.47-9.69-28.46-15.66-7.83-5.2-16.13-9.77-24.19-14.27-10.04-5.62-19.11-13.2-29.79-17.21-7.78-2.91-11.84-9.55-17.91-13.99-17.52-12.81-31.37-29.38-44.53-46.92-11.73-15.62-22.07-32.64-36.93-45.88a35.9,35.9,0,0,1-10.81-17.51c-.8-2.85-4.42-4.79-5.69-7.62-4.93-10.99-10.35-21.75-12.33-33.94-1.02-6.27-4.72-12.05-6.47-18.25-5.3-18.83-11.26-37.57-14.93-56.74a285.275,285.275,0,0,0-8.51-34.56,29.623,29.623,0,0,0-5.7-9.6c-5.89-6.986-12.24-13.594-18.28-20.462-4.42-5.024-3.87-9.059,1.57-12.829.74-.513,1.84-.535,2.54-1.077,6.9-5.3,8.58-8.454,5.73-16.748a38.06,38.06,0,0,1-1.69-13.26,99.707,99.707,0,0,0-3.85-28.393c-1.13-4.014-.29-8.615-.17-12.944.23-8.387-3.16-16.541-3.3-24.426-.28-15.933-7.86-29.986-8.96-45.576-.68-9.6-3.77-19.03-5.67-28.557-.32-1.6.02-3.318-.11-4.969-.86-11.045,1.3-22.111-1.64-33.259-1.36-5.189-.11-11.81,2-16.935,1.72-4.152.46-6.875-.14-10.518-1.32-7.948-.86-16.208-2.36-24.1-2.43-12.789-1.11-26.047-5.64-38.61-1.78-4.908-2.96-11.13-1.5-15.846,2.18-7.015-2.73-13-.99-19.667.24-.9-.19-2.659-.03-4.3.43-4.366-1.07-8.884-1.08-13.342-.01-4.321,1.1-8.632,1.36-12.968,1.08-17.818.95-35.767,2.46-53.468,1.98-23.229.44-46.4,1.82-69.527.45-7.706-.56-15.732,2.41-23.255.31-.788-.18-1.865-.17-2.807.15-13.67-2.7-27.453,1.52-40.972-2.56-6.995,1.69-14.217-1.61-21.683-2.39-5.391-2.92-12.982-1.03-18.467,1.66-4.79-2.19-7.063-1.58-10.906.45-2.881-2.43-6.572-1.51-9.033,1.92-5.12-.65-9.671-.24-14.441.24-2.824-.36-4.391-3.67-4.083-.71.067-2.37-1.56-2.24-2.057,1-3.841,2.44.5,2.75.075,1.25-1.72,2.84-3.668,2.99-5.631.4-5.3-.66-10.81.34-15.947,1.17-5.974,2.19-11.483-1.64-16.794-.34-.475-.69-1.57-.52-1.7,7.8-5.972-1.52-15.962,5.21-22.281a4.817,4.817,0,0,0,.57-4.54c-4.12-7.2-1.19-14.877-1.58-22.271-.15-3.037,3.53-6.266,3.39-9.312-.11-2.2-3.64-4.241-5.63-6.361-.66-.7-1.95-1.915-1.83-2.067,4.03-5.425.59-11.635,1.91-17.251.91-3.85,1.91.254,3.42.755a5.5,5.5,0,0,0,2.35.647c-.62-.382-1.24-.764-1.85-1.147m351,392-.15,1.854a4.04,4.04,0,0,1,2.15-1.854c.05-.617.09-1.235.14-1.853a4.045,4.045,0,0,1-2.14,1.853m239,167-1.86-.146a4.074,4.074,0,0,1,1.86,2.146l1.85.147a4.024,4.024,0,0,1-1.85-2.147m-294-312-1.86-.147a4.074,4.074,0,0,1,1.86,2.146l1.85.147a4.025,4.025,0,0,1-1.85-2.146m20,354-1.86-.146a4.074,4.074,0,0,1,1.86,2.146l1.85.147a4.024,4.024,0,0,1-1.85-2.147m-235-129-.15,1.854a4.04,4.04,0,0,1,2.15-1.854c.05-.617.09-1.235.14-1.853a4.045,4.045,0,0,1-2.14,1.853m266-208c.05-.617.09-1.235.14-1.853a4.046,4.046,0,0,1-2.14,1.853l-.15,1.854a4.04,4.04,0,0,1,2.15-1.854m-128,2c.05-.617.09-1.235.14-1.853a4.046,4.046,0,0,1-2.14,1.853l-.15,1.854a4.04,4.04,0,0,1,2.15-1.854m404,264a24.686,24.686,0,0,0,3.82-.046,15.334,15.334,0,0,0,3-1.13c-.84-.274-1.78-.927-2.51-.749-1.82.439-3.55,1.259-6.31,1.925l-.15,1.854a4.04,4.04,0,0,1,2.15-1.854m-148-438a6,6,0,0,0-6.74,2.834c-.08.126.8,1.172,1.01,1.1a56.744,56.744,0,0,0,6-2.292c.41-.186.49-1.078,1.73-1.645l2.54-.546c-.13-.436-.26-.871-.4-1.307a16.447,16.447,0,0,1-4.14,1.853m-280,508c-1.57-.232-3.36-.069-4.64-.795-1.67-.938-2.75-2.91-4.42-3.831-1.48-.818-3.41-.81-5.15-1.167.65,1.175,1.27,2.363,1.94,3.524,3.21,5.554,11.82,5.611,13.31,13.12.19.939,2.58,1.448,3.95,2.139.46.229.94.406,1.41.606.2-.582.74-1.358.54-1.716-1.22-2.17-3.63-4.235-3.65-6.355-.02-2.035,2.58-4,3.62-6.185.51-1.087.64-3.147-.03-3.836a15.569,15.569,0,0,0-5.18-3.138c-.34-.146-2.06,1.482-1.93,1.956.36,1.284,1.46,2.341,2.07,3.584.29.584.12,1.389-1.84,2.094m-16-24-1.41-3.411c-.53,1.053-1.68,2.268-1.46,3.123.38,1.432,2,2.527,2.42,3.961a15.273,15.273,0,0,1,.57,6.076c-.18,1.483-1.38,2.839-2.12,4.251,1.8-.47,3.76-.638,5.37-1.475,3.06-1.586,3.75-5.987,1.62-8.769a10.369,10.369,0,0,0-4.99-3.756m33-541c-2.03-1.144-5.31-1.223-4.13-5.118.1-.345-1.62-1.241-2.49-1.882-.43,1.038-1.52,2.542-1.17,3.041,3.74,5.356,7.67,10.583,11.7,15.725.28.358,2.13.066,2.61-.483a2.828,2.828,0,0,0-.01-2.667,103.227,103.227,0,0,0-6.51-8.616m367,471a3.442,3.442,0,0,0-.69.72c-.08.167.02.647.11.667,7.02,1.558,14.04,3.128,21.09,4.547.71.143,1.61-.64,2.43-.993a27.506,27.506,0,0,1-2.61-.952c-5.79-2.794-11.88-4.228-20.33-3.989m-380-466q2.01.981,4.04,1.962c-.04-1.346.31-2.871-.2-4a97.236,97.236,0,0,0-4.72-8.787,14.608,14.608,0,0,0-2.01-2.287c-.7,1.336-2.26,2.93-1.95,3.958.86,2.846,2.5,5.455,4.84,9.158m408,240c-.61-.255-16.58-1.3-16.92-1.061a4.976,4.976,0,0,0-.71.69c-.45.465-.9.933-1.34,1.4.52.324,1.06.948,1.57.926,6.14-.263,12.27-.621,17.4-1.955m-79-17c-.01-1.008,4.08-2.449.26-2.776-3.94-.338-8.06,1-12.04,1.864-.86.187-1.49,1.481-2.22,2.265.97.549,2.01,1.658,2.89,1.548a45.633,45.633,0,0,0,11.11-2.9m155,447-4.7.7a15.7,15.7,0,0,0,2.85,1.257,12.251,12.251,0,0,0,2.98.042c3.52-.09,7.38.973,9.77-2.9a43.55,43.55,0,0,0-10.9.9m-264-274c-1.14-.467-2.31-1.386-3.4-1.3a12.027,12.027,0,0,0-4.77,1.6,2.676,2.676,0,0,0-.71,2.523,2.557,2.557,0,0,0,2.3,1.081c2.52-.963,6.96,2.861,6.58-3.912m-152-38c3.6.368,6.87,3.9,10.78,1.18a16.631,16.631,0,0,0,2.13-2.094c-.79-.362-1.6-1.069-2.36-1.027-3.86.206-7.7.608-10.55,1.941m308,172c-1.52,1.146-3.05,2.292-4.57,3.438,1.78-.068,3.7.269,5.3-.308a16.771,16.771,0,0,0,5.39-3.427c.6-.548.24-2.146.31-3.265-.69.4-1.36.859-2.08,1.191a22.786,22.786,0,0,0-4.35,2.371m68,10c3.38.667,6.74,1.415,10.14,1.942.83.128,1.77-.472,2.65-.737-.69-.4-1.42-.758-2.07-1.212-3.73-2.568-7.62-2.942-10.72.007m-21,207c-.7-1.358-1.06-3.331-2.16-3.923-1.46-.781-3.49-.479-5.28-.642,1.11,1.189,2.13,2.464,3.34,3.537a4.481,4.481,0,0,0,4.1,1.028m-539-331q-2.5.712-5,1.424c.31.842.59,2.392.95,2.413,2.84.164,6.38,1.076,4.05-3.837m328,70,4.59-3.4c-1.34.279-2.68.582-4.03.83-1.21.223-2.46.28-3.65.6a35.866,35.866,0,0,0-3.53,1.358c1.54.2,3.08.409,6.62.613m142-14c1.77,2.388,4.04,2.638,6.53,1.379.35-.175.5-1.581.44-1.6a35.29,35.29,0,0,0-5.54-1.7c-.73-.132-1.62.591-1.43,1.924m-355,229c-2.92,2.138-2.5,4.235.19,6.136a9.388,9.388,0,0,0,2.59.864c-.26-1.817-.46-3.648-.81-5.447a1.653,1.653,0,0,0-1.97-1.553m82-434c-.11,2.558.41,4.032,2.68,1.263,1.6-1.95,2.95-4.107,4.41-6.171-2.03,1.3-4.06,2.606-7.09,4.908m397,81a18.442,18.442,0,0,0,3.27-1.358c.63-.4.93-1.308,1.38-1.988a7.026,7.026,0,0,0-1.66-.631c-2.32-.265-2.67.039-2.99,3.977m-319,741.005c.56-3.84-2.25-3.13-4.26-2.88-.68.09-1.17,1.66-1.74,2.56a11.476,11.476,0,0,0,6,.32m110-190,5.39.6c-1.43-1.17-2.71-2.76-4.35-3.38-1.32-.49-3.08.21-4.64.37.2.47.3,1.22.63,1.34a8.567,8.567,0,0,1,2.97,1.07m-374-432.005c-4.15-.584-4.04,2.264-3.97,5a5.276,5.276,0,0,0,.62,1.654c.68-.449,1.58-.754,1.99-1.381.63-.976.92-2.17,1.36-5.273m441,213c.69.692,1.36,1.4,2.08,2.069.66.619,1.37,1.19,2.07,1.783.11-1.117.72-2.562.25-3.285a30.059,30.059,0,0,0-4.05-4.215,4.183,4.183,0,0,0-.35,3.648m-284-28c2.31-1.9,3.98-4.039,2.72-7.275-1.34,1.521-2.77,2.969-3.96,4.6-.52.7-.53,1.775,1.24,2.679m-200,10-.6,3.4a45.648,45.648,0,0,0,3.49-4.336c.12-.192-1.23-1.344-1.89-2.051a4.911,4.911,0,0,1-1,2.988m161-567h4c-.2-1.528-.39-3.057-.59-4.585a8.9,8.9,0,0,0-3.41,4.585m-180,552-.51-4.5c-1.11.778-2.76,1.322-3.21,2.381-.99,2.3.24,3.435,3.72,2.12m479-457a11.654,11.654,0,0,1,2.14-1.954c.96-.521,4.05.661,1.61-2.118-.54-.616-2.55-.691-3.3-.172-.83.579-1,2.121-.45,4.244m12-64c-.92-1.079-1.9-3.081-2.75-3.026-1.32.086-2.55,1.565-3.83,2.454,1.53.191,3.05.382,6.58.572m-274,610-2.67.67c.25.443.47,1.248.76,1.27a23,23,0,0,0,4.9.005,18.47,18.47,0,0,0,3.65-1.3c-1.55-.216-3.09-.431-6.64-.646m304-366c-.47-1.138-.67-2.628-1.51-3.3-.65-.52-2.89-.363-3.1.09-1.07,2.391.04,3.508,4.61,3.21m48,210c-1.59,1.083-3.17,2.166-4.76,3.249.53.25,1.05.706,1.58.715,2.07.036,4.74.757,3.18-3.964m-394,372.005c3.72.56,3-2.11,2.96-4.18-.01-.53-.46-1.05-.72-1.58a35.4,35.4,0,0,0-3.19,2.91c-.32.36-.05,1.22.95,2.85m94-694.005a6.484,6.484,0,0,0-.55,1.414c-.03.151.55.612.69.552,1.4-.61,2.8-1.245,4.14-1.986a18.306,18.306,0,0,0,2.11-1.589,11.94,11.94,0,0,0-2.82-.339c-.88.1-1.72.615-3.57,1.948m215-5c-.74,1.119-4.1,2.732.41,2.908,1.17.046,2.39-1.044,3.59-1.612a4.863,4.863,0,0,0-4-1.3m-283-33c.47,1.139.66,2.629,1.5,3.3.65.52,2.9.363,3.1-.09,1.07-2.391-.03-3.508-4.6-3.211m373,273c1.1.228,2.39.911,3.27.566,1.07-.418,1.8-1.7,2.68-2.614a16.139,16.139,0,0,0-3.47-.882c-.82-.029-1.66.6-2.48,2.93m-218,18c-.65,1.355-1.29,2.71-1.94,4.065a28.873,28.873,0,0,0,3.46-1.644,14.071,14.071,0,0,0,2.11-2.052,4.141,4.141,0,0,0-3.63-.369m186-268c-1.14.467-2.27.933-3.4,1.4,1.03.534,2.23,1.681,3.07,1.464,1.43-.368,2.63-1.6,3.93-2.464a4.058,4.058,0,0,0-3.6-.4m-322,520.005c.56-3.73-2.11-3-4.18-2.97-.53.01-1.05.47-1.58.72a35.54,35.54,0,0,0,2.92,3.2c.35.31,1.21.05,2.84-.95m-103-39.005a3.594,3.594,0,0,0,.67-.707c.09-.167.04-.6-.08-.663-3.53-1.956-4.43.94-5.51,3.18-.19.387.73,1.3,1.13,1.974.93-.928,1.86-1.856,3.79-3.784m28-494a7.053,7.053,0,0,0-1.88.03,8.413,8.413,0,0,0-3.04,1.3c-.27.217.37,2.27.68,2.292a6.477,6.477,0,0,0,3.21-.683c.8-.4,1.36-1.278,1.03-2.944m259,491c1.33-.009,2.67.005,3.99-.11a8.805,8.805,0,0,0,0-1.779,3.712,3.712,0,0,0-3.99,1.889m49-1,3-2.294-1.71-1.706a4.858,4.858,0,0,0-1.29,4m140-496a3.877,3.877,0,0,0-.67.694c-.09.166-.05.613.04.646,1.78.668,3.57,1.294,5.36,1.928.79-2.515-.16-3.566-4.73-3.268m-206,524a3.579,3.579,0,0,0-.67.7.889.889,0,0,0,.05.652,48.871,48.871,0,0,0,5.62.573c.54.007,1.08-.841,1.63-1.3-.89-.211-1.78-.476-2.68-.613-.64-.1-1.3-.019-3.95-.018m-95-527c2.7,2.7,3.91-.173,5.46-1.544.15-.138-.23-.892-.37-1.36a29.894,29.894,0,0,0-5.09,2.9m125,633.005c1.36.63,2.73,1.26,4.09,1.9.14-.47.52-1.22.37-1.36-1.55-1.37-2.76-4.25-4.46-.54m-370-374.005-3,2.295c.57.568,1.13,1.137,1.7,1.705a4.86,4.86,0,0,0,1.3-4m132-8c.89-.23,1.79-.461,2.69-.691-1.32-1.1-2.61-2.268-4.02-3.245-.22-.155-1.03.532-1.57.83.63.7,1.27,1.4,2.9,3.106m230,418.005-2.7.69c1.33,1.1,2.61,2.26,4.02,3.24.22.16,1.03-.53,1.57-.83-.63-.7-1.26-1.4-2.89-3.1m47-451.005c2.09.334,4.17.732,6.28.952.48.051,1.03-.51,1.55-.789a6.3,6.3,0,0,0-2.06-1.11,11.429,11.429,0,0,0-5.77.947m182,260c0,.628-.25,1.5.06,1.819.35.353,1.21.2,1.85.265-.34-1.694-.69-3.389-1.03-5.084a2.783,2.783,0,0,0-.88,3m-446-284c-.63.7-1.85,1.992-1.81,2.023,2.73,2.7,3.77-.459,5.41-1.629a4.055,4.055,0,0,0-3.6-.394m214,142a4.262,4.262,0,0,0-.68-.648c-.16-.1-.43-.019-.66-.019l.69,3.667,4.23-1.416a9.47,9.47,0,0,1-3.58-1.584m259-165-2.64,3.363a44.914,44.914,0,0,0,4.59-1.426c.24-.1.04-1.264-1.95-1.937m-116-24-6.84,1.163c2.39.171,4.77.36,7.16.482.22.01.45-.419-.32-1.645m7,217c-.63.7-1.85,1.992-1.81,2.023,2.73,2.7,3.77-.459,5.41-1.629a4.055,4.055,0,0,0-3.6-.394m-388,382.005a27,27,0,0,0,2.03,2.91,7.565,7.565,0,0,0,1.88,1.17c-.24-2.11,1.57-5.4-3.91-4.08m18-612.005c-.77-1-1.53-2-2.3-3-.57.569-1.13,1.137-1.7,1.706a4.856,4.856,0,0,0,4,1.294m232,626.005a26.7,26.7,0,0,0-4.24-1.68c-.31-.07-.96,1.29-1.44,1.99a11.388,11.388,0,0,0,5.68-.31m-196-490.005-3.96-.044c1.32.682,2.64,1.363,3.96.044m-171-147c-.05,1.283-.1,2.566-.16,3.848,1.04-.3,2.08-.594,3.11-.89-.65-.653-1.3-1.3-2.95-2.958m250,718.005c.68,1.31,1.36,2.63,2.04,3.95a3.96,3.96,0,0,0-2.04-3.95m-61-259c.65-.66,1.3-1.31,1.95-1.96-1.03-.3-2.07-.6-3.11-.89.06,1.28.11,2.56,1.16,2.85m-270-834.005-3.85-.152c.3,1.037.59,2.073.89,3.11.65-.653,1.3-1.3,2.96-2.958m641,803.005a3.614,3.614,0,0,0,.66-.7.891.891,0,0,0-.04-.65c-1.53-.24-3.06-.5-4.6-.59-.2-.01-.44.84-.67,1.29a24.67,24.67,0,0,0,4.65.65m-282-704.005c.84-.181,1.69-.361,2.54-.543l-3-3a4.835,4.835,0,0,0,.46,3.542m-73,299-3.27-2.738c-.24.513-.8,1.372-.68,1.485a4.337,4.337,0,0,0,3.95,1.253m137,373c-.05,1.283-.1,2.565-.16,3.848,1.04-.3,2.08-.594,3.11-.89-.65-.653-1.3-1.3-2.95-2.958m-61-3a3.975,3.975,0,0,0-.67-.636c-.16-.1-.42-.044-.64-.059.18,1.232.35,2.464.52,3.7a2.789,2.789,0,0,0,.79-3m-195-653c-.02,1.319-.03,2.638-.05,3.956.68-1.318,1.37-2.637.05-3.956m364,626c.01-1.318.03-2.637.04-3.956-.68,1.319-1.36,2.638-.04,3.956m-215-323-3.85-.152c.3,1.037.59,2.073.89,3.11.65-.653,1.3-1.3,2.96-2.958m-195,7q.075-1.923.15-3.847c-1.04.3-2.07.594-3.11.89.65.653,1.3,1.305,2.96,2.957m510,214,1.95,1.958c.3-1.037.6-2.073.89-3.11-1.28.051-2.56.1-2.84,1.152m-86-2c-.05,1.283-.1,2.566-.16,3.848,1.04-.3,2.08-.594,3.11-.891l-2.95-2.957m8-50a7.157,7.157,0,0,0,1.87-.029,30.587,30.587,0,0,0,2.96-1.138,7.247,7.247,0,0,0-2.48-.768,2.214,2.214,0,0,0-2.35,1.935m114-338q-1.38,1.63-2.74,3.261c.51.246,1.37.81,1.48.688a4.349,4.349,0,0,0,1.26-3.949m-377,327c-.18-.847-.37-1.7-.55-2.542l-3,3a4.857,4.857,0,0,0,3.55-.458m236-140c-1.43-.333-2.85-.758-4.3-.946-.47-.061-1.02.5-1.54.779a7.84,7.84,0,0,0,2.02,1.12c.9.2,1.88.047,3.82-.953m-349,117a3.588,3.588,0,0,0-.67.7.876.876,0,0,0,.05.647c1.52.244,3.05.5,4.59.591.2.012.45-.839.67-1.29a23.889,23.889,0,0,0-4.64-.647m364-32q.075-1.923.15-3.847c-1.04.3-2.07.594-3.11.89.65.653,1.3,1.305,2.96,2.957m-516-36,1.95,1.958c.3-1.037.6-2.073.89-3.11-1.28.051-2.56.1-2.84,1.152m299-155,1.95-1.957c-1.03-.3-2.07-.593-3.11-.89.06,1.282.11,2.565,1.16,2.847m-123,121,2.04,3.956a3.975,3.975,0,0,0-2.04-3.956m209,27c-.66.653-1.31,1.3-1.96,1.958,1.04.3,2.07.593,3.11.89-.05-1.282-.1-2.565-1.15-2.848m-178-150,3.84.153c-.29-1.037-.59-2.073-.89-3.11-.65.653-1.3,1.305-2.95,2.957m125,147c-.66-.652-1.31-1.3-1.96-1.957-.3,1.037-.59,2.073-.89,3.11,1.28-.051,2.56-.1,2.85-1.153m297-11c-1.43-.333-2.85-.758-4.3-.946-.47-.061-1.02.5-1.54.779a7.84,7.84,0,0,0,2.02,1.12c.9.2,1.88.047,3.82-.953m-403-91-2.53.529c.12.432.31,1.246.34,1.24,1.07-.208,2.13-.494,2.19-1.769m193,279c.66-.333,1.33-.666,2-1-.67-.333-1.34-.666-2,1m-153-283-2.53.529c.12.432.31,1.246.34,1.24,1.07-.208,2.13-.494,2.19-1.769m-73-49c-1.06-.274-2.12-.56-3.19-.768-.03-.006-.22.808-.34,1.24a4.83,4.83,0,0,0,3.53-.472m168,772.005c1.06.27,2.11.56,3.18.76a11.377,11.377,0,0,0,.35-1.24,4.84,4.84,0,0,0-3.53.48m123-9c.84-.18,1.68-.36,2.53-.53a12.141,12.141,0,0,0-.35-1.24c-1.07.2-2.12.49-2.18,1.77m-114-36c-.34-.67-.67-1.34-1-2-.34.66-.67,1.33,1,2m-23-5c-.18-.85-.36-1.69-.53-2.53-.43.11-1.25.31-1.24.34.21,1.07.49,2.13,1.77,2.19m-34-1188c1.06.275,2.11.561,3.18.768a12.275,12.275,0,0,0,.35-1.24,4.824,4.824,0,0,0-3.53.471m-33,47c.84-.176,1.68-.352,2.53-.528a12.3,12.3,0,0,0-.35-1.24c-1.07.208-2.12.494-2.18,1.768m144,1046.005c.33.66.66,1.33,1,2,.33-.67.66-1.34-1-2m173-53c-.67.33-1.34.66-2,1,.66.33,1.33.66,2-1m-345-409.005c.84-.176,1.68-.352,2.53-.528a12.3,12.3,0,0,0-.35-1.24c-1.07.208-2.12.494-2.18,1.768m52,400.005c-.34-.67-.67-1.34-1-2-.34.66-.67,1.33,1,2m-238-578.005-2.53.529c.12.432.31,1.246.34,1.24,1.07-.208,2.13-.494,2.19-1.769m535,545.005c-1.06-.28-2.12-.57-3.19-.77-.03-.01-.22.81-.34,1.24a4.879,4.879,0,0,0,3.53-.47m-232-546.005c1.06.275,2.11.561,3.18.769a12.3,12.3,0,0,0,.35-1.24,4.829,4.829,0,0,0-3.53.471m-95,75c.84-.176,1.68-.352,2.53-.528a12.3,12.3,0,0,0-.35-1.24c-1.07.208-2.12.494-2.18,1.768m-131,131c-1.06-.274-2.12-.56-3.19-.768-.03-.006-.22.808-.34,1.24a4.83,4.83,0,0,0,3.53-.472m278,298.005c1.06.27,2.11.56,3.18.76a11.377,11.377,0,0,0,.35-1.24,4.84,4.84,0,0,0-3.53.48m-230-442.005c-.18-.842-.36-1.685-.53-2.528-.43.117-1.25.309-1.24.341.21,1.072.49,2.129,1.77,2.187m264,152c-1.06-.274-2.12-.56-3.19-.768-.03-.006-.22.808-.34,1.24a4.83,4.83,0,0,0,3.53-.472m-285,3c.84-.176,1.68-.352,2.53-.528a12.3,12.3,0,0,0-.35-1.24c-1.07.207-2.12.494-2.18,1.768m274,262.005c.33.66.66,1.33,1,2,.33-.67.66-1.34-1-2m-251-261.005c1.06.275,2.11.561,3.18.769a12.3,12.3,0,0,0,.35-1.24,4.829,4.829,0,0,0-3.53.471m164,0c1.06.275,2.11.561,3.18.769a12.3,12.3,0,0,0,.35-1.24,4.829,4.829,0,0,0-3.53.471m-344,2c1.06.275,2.11.561,3.18.769a12.3,12.3,0,0,0,.35-1.24,4.829,4.829,0,0,0-3.53.471m418,260.005c-1.06-.28-2.12-.57-3.19-.77-.03-.01-.22.81-.34,1.24a4.878,4.878,0,0,0,3.53-.47m-365-257.005c.84-.176,1.68-.352,2.53-.528a12.215,12.215,0,0,0-.35-1.24c-1.07.207-2.12.494-2.18,1.768m345-173c-1.06-.274-2.12-.56-3.19-.768-.03-.006-.22.808-.34,1.24a4.83,4.83,0,0,0,3.53-.472m207,181c.27-1.058.56-2.115.77-3.187,0-.032-.81-.224-1.24-.341a4.768,4.768,0,0,0,.47,3.528m-348-142c.33.667.66,1.334,1,2,.33-.666.66-1.333-1-2m23,371c.17.843.35,1.686.53,2.529.43-.118,1.24-.309,1.24-.342-.21-1.071-.5-2.128-1.77-2.187m193-225c-.34-.666-.67-1.333-1-2-.34.667-.67,1.334,1,2m-240,208c-.34-.666-.67-1.333-1-2-.34.667-.67,1.334,1,2m253-581c-1.06-.274-2.12-.56-3.19-.768-.03-.006-.22.808-.34,1.24a4.83,4.83,0,0,0,3.53-.472m-384,550c1.06.275,2.11.561,3.18.769a12.3,12.3,0,0,0,.35-1.24,4.829,4.829,0,0,0-3.53.471m94-306c-1.06-.274-2.12-.56-3.19-.768-.03-.006-.22.808-.34,1.24a4.83,4.83,0,0,0,3.53-.472m-100,134c-1.06-.274-2.12-.56-3.19-.768-.03-.006-.22.808-.34,1.24a4.83,4.83,0,0,0,3.53-.472m394-106c1.06.275,2.11.561,3.18.769a12.3,12.3,0,0,0,.35-1.24,4.829,4.829,0,0,0-3.53.471m-322,242c1.06.275,2.11.561,3.18.769a12.3,12.3,0,0,0,.35-1.24,4.829,4.829,0,0,0-3.53.471m191-481c.84-.176,1.68-.352,2.53-.528a12.3,12.3,0,0,0-.35-1.24c-1.07.208-2.12.494-2.18,1.768m-163,225c1.06.275,2.11.561,3.18.769a12.3,12.3,0,0,0,.35-1.24,4.829,4.829,0,0,0-3.53.471m137,129c-.34-.666-.67-1.333-1-2-.34.667-.67,1.334,1,2m135-331c-1.06-.274-2.12-.56-3.19-.768-.03-.006-.22.808-.34,1.24a4.83,4.83,0,0,0,3.53-.472m-26,38c-1.06-.274-2.12-.56-3.19-.768-.03-.006-.22.808-.34,1.24a4.83,4.83,0,0,0,3.53-.472m-168,352c1.06.275,2.11.561,3.18.769a12.3,12.3,0,0,0,.35-1.24,4.829,4.829,0,0,0-3.53.471m253-11c.84-.176,1.68-.352,2.53-.528a12.3,12.3,0,0,0-.35-1.24c-1.07.208-2.12.494-2.18,1.768m-82-2c-.28,1.059-.56,2.116-.77,3.187-.01.033.81.225,1.24.342a4.874,4.874,0,0,0-.47-3.529m-388-20c.33.667.66,1.334,1,2,.33-.666.66-1.333-1-2m52,0c.84-.176,1.68-.352,2.53-.528a12.3,12.3,0,0,0-.35-1.24c-1.07.208-2.12.494-2.18,1.768m241,1c.66-.333,1.33-.666,2-1-.67-.333-1.34-.666-2,1m22,0,1.2.8c-.07-.6-.14-1.2-1.2-.8m132,0,1.2.8c-.07-.6-.14-1.2-1.2-.8m-78,4,1.2.8c-.07-.6-.14-1.2-1.2-.8m226,0,1.2.8c-.07-.6-.14-1.2-1.2-.8m-620,2,1.2.8c-.07-.6-.14-1.2-1.2-.8m347,1c-.27.4-.54.8-.8,1.2.6-.066,1.2-.133.8-1.2m140,8c.26-.4.53-.8.8-1.2-.6.067-1.2.134-.8,1.2m-257-341,1.2.8c-.07-.6-.14-1.2-1.2-.8m-14,312-1.2-.8c.06.6.13,1.2,1.2.8m9,39c-.27.4-.54.8-.8,1.2.6-.066,1.2-.133.8-1.2m-167,5,1.2.8c-.07-.6-.14-1.2-1.2-.8m102,0,1.2.8c-.07-.6-.14-1.2-1.2-.8m102-370,1.2.8c-.07-.6-.14-1.2-1.2-.8m-247,375c.26-.4.53-.8.8-1.2-.6.067-1.2.134-.8,1.2m379-189-1.2-.8c.06.6.13,1.2,1.2.8m90-204-1.2-.8c.06.6.13,1.2,1.2.8m-128,106-1.2-.8c.06.6.13,1.2,1.2.8m-30,228-1.2-.8c.06.6.13,1.2,1.2.8m-310,0,1.2.8c-.07-.6-.14-1.2-1.2-.8m133-339c-.27.4-.54.8-.8,1.2.6-.067,1.2-.134.8-1.2m354,244c-.27.4-.54.8-.8,1.2.6-.066,1.2-.133.8-1.2m-351,93,1.2.8c-.07-.6-.14-1.2-1.2-.8m110,96,1.2.8c-.07-.6-.14-1.2-1.2-.8m83-213c.26-.4.53-.8.8-1.2-.6.067-1.2.134-.8,1.2m-353-219,1.2.8c-.07-.6-.14-1.2-1.2-.8m-42,116,1.2.8c-.07-.6-.14-1.2-1.2-.8m448-138-1.2-.8c.06.6.13,1.2,1.2.8m-218,494,1.2.8c-.07-.6-.14-1.2-1.2-.8m-84,6,1.2.8c-.07-.6-.14-1.2-1.2-.8m221-513c.26-.4.53-.8.8-1.2-.6.067-1.2.134-.8,1.2m-177,521-1.2-.8c.06.6.13,1.2,1.2.8m-26-158-1.2-.8c.06.6.13,1.2,1.2.8m129-3c.26-.4.53-.8.8-1.2-.6.067-1.2.134-.8,1.2m97,171,1.2.8c-.07-.6-.14-1.2-1.2-.8m-58-442,1.2.8c-.07-.6-.14-1.2-1.2-.8m-124-110,1.2.8c-.07-.6-.14-1.2-1.2-.8m51-3c.26-.4.53-.8.8-1.2-.6.067-1.2.134-.8,1.2m-48,574c.26-.4.53-.8.8-1.2-.6.067-1.2.134-.8,1.2m367-331,1.2.8c-.07-.6-.14-1.2-1.2-.8m-90,340,1.2.8c-.07-.6-.14-1.2-1.2-.8m-444-202,1.2.8c-.07-.6-.14-1.2-1.2-.8m246,208-1.2-.8c.06.6.13,1.2,1.2.8m271-623c.26-.4.53-.8.8-1.2-.6.067-1.2.134-.8,1.2m-386,0c.26-.4.53-.8.8-1.2-.6.067-1.2.134-.8,1.2m63,627-1.2-.8c.06.6.13,1.2,1.2.8m72-352-1.2-.8c.06.6.13,1.2,1.2.8m-286,362-1.2-.8c.06.6.13,1.2,1.2.8m318-226,1.2.8c-.07-.6-.14-1.2-1.2-.8m158-186,1.2.8c-.07-.6-.14-1.2-1.2-.8m-111-245c.26-.4.53-.8.8-1.2-.6.067-1.2.134-.8,1.2m119,245,1.2.8c-.07-.6-.14-1.2-1.2-.8m-157,185c.26-.4.53-.8.8-1.2-.6.067-1.2.134-.8,1.2m-193,243,1.2.8c-.07-.6-.14-1.2-1.2-.8m377-689c-.27.4-.54.8-.8,1.2.6-.067,1.2-.134.8-1.2m-111,689,1.2.8c-.07-.6-.14-1.2-1.2-.8m-312-252-1.2-.8c.06.6.13,1.2,1.2.8m448-2,1.2.8c-.07-.6-.14-1.2-1.2-.8m-246-4-1.2-.8c.06.6.13,1.2,1.2.8m108-4,1.2.8c-.07-.6-.14-1.2-1.2-.8m148-4,1.2.8c-.07-.6-.14-1.2-1.2-.8m-128,292.005c-.4-.27-.8-.54-1.2-.8.06.6.13,1.2,1.2.8m-301-293.005c-.27.4-.54.8-.8,1.2.6-.066,1.2-.133.8-1.2m-73,1,1.2.8c-.07-.6-.14-1.2-1.2-.8m70,308.005c-.4-.27-.8-.54-1.2-.8.06.6.13,1.2,1.2.8m-106-440.005,1.2.8c-.07-.6-.14-1.2-1.2-.8m204,446.005c.4.26.8.53,1.2.8-.07-.6-.14-1.2-1.2-.8m214,2c-.4-.27-.8-.54-1.2-.8.06.6.13,1.2,1.2.8m-176-836.005,1.2.8c-.07-.6-.14-1.2-1.2-.8m159,857.005c.26-.4.53-.8.8-1.2-.6.06-1.2.13-.8,1.2m116-354.005c-.27.4-.54.8-.8,1.2.6-.067,1.2-.134.8-1.2m-351-169-1.2-.8c.06.6.13,1.2,1.2.8m78,574.005c.4.26.8.53,1.2.8-.07-.6-.14-1.2-1.2-.8m-124,14c.4.26.8.53,1.2.8-.07-.6-.14-1.2-1.2-.8m132,20c.4.26.8.53,1.2.8-.07-.6-.14-1.2-1.2-.8m-6,4c-.4-.27-.8-.54-1.2-.8.06.6.13,1.2,1.2.8m-34,2c.4.26.8.53,1.2.8-.07-.6-.14-1.2-1.2-.8m92,2c-.4-.27-.8-.54-1.2-.8.06.6.13,1.2,1.2.8m-166,24c.4.26.8.53,1.2.8-.07-.6-.14-1.2-1.2-.8m58,0c.4.26.8.53,1.2.8-.07-.6-.14-1.2-1.2-.8m106-1026.005,1.2.8c-.07-.6-.14-1.2-1.2-.8m-233,1031.005c.26-.4.53-.8.8-1.2-.6.06-1.2.13-.8,1.2m232,14c-.27.4-.54.8-.8,1.2.6-.07,1.2-.14.8-1.2m-134,10c.26-.4.53-.8.8-1.2-.6.06-1.2.13-.8,1.2m216,18c.26-.4.53-.8.8-1.2-.6.06-1.2.13-.8,1.2m127-1c.4.26.8.53,1.2.8-.07-.6-.14-1.2-1.2-.8m-89,17c.26-.4.53-.8.8-1.2-.6.06-1.2.13-.8,1.2m-86,4c-.27.4-.54.8-.8,1.2.6-.07,1.2-.14.8-1.2m-220-724.005c-.27.4-.54.8-.8,1.2.6-.066,1.2-.133.8-1.2m194,160c.26-.4.53-.8.8-1.2-.6.067-1.2.134-.8,1.2m-87,581.005c-.4-.27-.8-.54-1.2-.8.06.6.13,1.2,1.2.8m38-1240,1.2.8c-.07-.6-.14-1.2-1.2-.8m118,650,1.2.8c-.07-.6-.14-1.2-1.2-.8m-31,659.005c-.27.4-.54.8-.8,1.2.6-.07,1.2-.14.8-1.2m-65,9c-.4-.27-.8-.54-1.2-.8C1587.19,1345.81,1587.26,1346.41,1588.33,1346.01Z" transform="translate(0 0)" fill="#4b5673"/>
      <path id="Path_1680" data-name="Path 1680" d="M2093.83,465.505c-1.5-7.085-2.52-13.667-3.48-20.258-.15-.979.4-2.525-.09-2.917-6.75-5.424-4.04-12.967-3.63-19.4.42-6.534-1.89-12.66-.77-19.438.94-5.738-2.85-12.1-3.34-18.279-.43-5.5.79-11.133,1.31-16.7.45-4.762,2.19-9.717-2.5-13.585a3.9,3.9,0,0,1-.97-2.552c-.72-12.387-1.98-24.791-1.71-37.159.1-4.54.26-10.247,4.48-14.016.25-.221.67-.459.68-.707.52-9.843,1.08-19.684,1.41-29.534.08-2.522-1.62-5.551-.72-7.522,4.64-10.07-.18-20.081.57-29.707.79-10.087.1-20.217,1.41-30.207.33-2.578,3.05-4.773,3.74-7.39,1.58-6-1.07-11.761-4.31-16.044-3.61-4.781-8.39-8.323-10.53-14.587-1.23-3.632-6.19-5.82-8.65-9.246-6.65-9.244-6.06-12.642,2.38-21.293a5.158,5.158,0,0,0,1.15-3.368c-.02-3.453,1.59-6.92,4.62-8.076,7.93-3.03,10.88-9.466,11.36-17.127.68-10.814,4.54-20.652,7.99-30.711s7.16-19.927,14.13-28.137c4.65-5.481,9.28-11.067,14.55-15.92,5.38-4.95,11.44-9.177,17.37-13.492a70.715,70.715,0,0,1,10.36-6.347,205.486,205.486,0,0,1,20.53-8.323c12.03-4.346,25.57-4.133,37.9-1.9,9.89,1.793,20.51,3.2,29.61,7.783,4.79,2.408,9.18,7.722,11.35,12.758,5.19,12.052,12.38,22.88,18.54,34.329,6.42,11.941,12.39,24.181,17.62,36.681,5.97,14.25,7.79,29.566,10.63,44.7,2.78,14.85,5.92,30.053,4.74,44.541-1.28,15.776,2.09,32.4-5.2,47.588-.93,1.933-1.01,4.355-2.18,6.075-3.59,5.286-4.99,10.03-2.2,16.738,2.36,5.685,1.62,12.642,2.36,19.024,2.4,20.712,3.77,41.454,4.3,62.33.32,12.88,3.77,25.67,5.65,38.525.88,6.025,1.55,12.094,2,18.167.8,11.046,1.17,22.126,2.09,33.162,1.12,13.464,1.71,27.074,4.32,40.27,1.35,6.861.55,13.611,1.76,20.218,1.89,10.254,1.47,20.831,5,30.885,1.76,4.993,1.7,10.591,2.92,15.809,2.2,9.387,4.99,18.639,7.05,28.052,1.96,8.925,3.29,17.985,4.9,26.985.66,3.724,1.35,7.444,1.99,11.171.6,3.444-.63,6.742-.31,10.37,1.01,11.542-.94,23.009-3.57,34.337a19.321,19.321,0,0,0,.1,9.9c1,3.09-2.05,4.957-.65,8.579,1.8,4.639.54,10.5.41,15.83a58.357,58.357,0,0,0,3.8,23.434,6.29,6.29,0,0,1,.22,1.907c.41,5.832,1.37,11.7,1.05,17.488-.28,5.12.57,10.046.73,15.031.22,7.362-1.5,14.763-1.67,22.165-.18,8.047-2.7,15.706-3.53,23.457-1.75,16.439-5.48,33.111.72,49.677,1.96,5.233,1.43,11.34,2.79,16.864,4.14,16.854,2.54,34.751,9.39,51.091a5.46,5.46,0,0,1,.51,1.783c.69,12.388,2.58,24.871,1.65,37.139-.83,10.913,1.1,21.56.68,32.381-.21,5.267,3.22,10.59,4.4,16.018,2.01,9.22,3.98,18.487,5.14,27.837.83,6.69-.86,13.46-.04,20.35.85,7.23.36,14.65.14,21.97-.22,7.46-1.22,14.87,0,22.35.92,5.69,1.39,11.44,2.04,17.17.62,5.39.71,10.82,1.46,16.24,1.11,8.09,2.68,16.98-1.28,25.17a5.221,5.221,0,0,0-.15,2.92c2.07,12.18-2.26,23.73-4.43,35.27-2.56,13.57-3.85,27.34-6.99,40.9-2.88,12.46-6.32,24.89-8.92,37.47-2.61,12.6-6.51,25.13-12.74,36.66a10.854,10.854,0,0,0-.93,3.61c-2.3,15.83-9.34,27.84-25.86,32.28-.59.16-1.36.22-1.72.62-6.09,6.64-14.1,5.17-21.79,5.47-3.41.13-6.76,1.46-10.18,1.86-7.48.88-14.28-1.42-21.42-3.69a293.726,293.726,0,0,1-45.44-18.3c-7.44-3.81-14.87-7.69-21.95-12.11-2.44-1.52-4.11-4.6-5.57-7.27-1.56-2.85-2.56-5.52-5.73-7.6-5.03-3.28-3.51-10.23-1.9-13.65,3.25-6.89.34-10.85-3.45-15.31-2.25-2.65-6.44-4.47-3.16-9.21.41-.58-.98-2.98-2.07-3.94-13-11.49-13.42-16.22-10.58-29.28a9.294,9.294,0,0,0-2.26-7.33,9.5,9.5,0,0,1-2.91-8.88c1.4-9.22-3.09-16.55-7.54-23.88-7.27-11.96-12.12-24.49-12.69-38.82a185.52,185.52,0,0,0-4.48-32.11c-1.57-7.16-.99-13.81-.25-20.9.95-9.03.33-18.25.17-27.38a60.086,60.086,0,0,0-1.24-8.47c-.71-4.38,1.71-9.16-1.9-13.25-.66-.75-.54-2.79-.02-3.89,3.69-7.85,1.23-16.14,1.92-24.2.6-7.063.18-14.062,1.52-21.258,1.34-7.229-1.07-15.215-2.17-22.822-.85-5.9-2.33-11.715-3.32-17.6-1.56-9.377-2.94-18.784-4.4-28.179-.54-3.443-1.28-6.867-1.59-10.33-1.41-16.106-2.51-32.242-4.17-48.321-.4-3.877-3.02-7.482-3.76-11.376-1.66-8.719-2.19-17.682-4.26-26.284-2.32-9.614,2.94-19.356-1.19-28.824-.4-.928.91-2.564,1.33-3.9.46-1.439,2.31-2.1.39-4.565-3.55-4.537-3.27-10.7-2.09-15.878,1.01-4.429.49-8.148-.06-12.435-1.35-10.637-1.55-21.418-2.23-32.14-.65-10.391-1.61-20.773-1.87-31.172-.13-5.052-1.64-10.486,1.88-15.167-4.38-5.251,2.05-9.718,1.46-13.427-1.31-8.179,1.82-15.793.81-23.811-.66-5.221,1.28-10.727,1.68-16.133a87.475,87.475,0,0,0-2.83-28.794,46.406,46.406,0,0,1-1.1-7.544c-.58-5.988-2.57-12.38-1.15-17.871a103.263,103.263,0,0,0,3.33-17.622c.43-5.172,4.13-9.534,4.13-15.359-.01-4.779,2.24-9.152.04-14.494-1.34-3.228,1.61-7.978,1.51-12.014-.35-13.394-1.22-26.774-2.38-40.66m171.5,231.5a3.674,3.674,0,0,1-3-1l-1.86-.146a4.074,4.074,0,0,1,1.86,2.146c1.75,1.354,3.34,2.047,5-1,.05-.617.09-1.235.14-1.853a4.045,4.045,0,0,1-2.14,1.853m-43,317.005-1.86-.15a4.046,4.046,0,0,1,1.86,2.15q2.925.06,5.85.14c-1.64-.38-3.27-.77-4.91-1.14-.3-.06-.63,0-.94-1m-8,170c-5.75.29-6.58,1.08-5.94,6.22a3.689,3.689,0,0,0,1.76,2.65c1.07.35,3.34.1,3.55-.45a16.746,16.746,0,0,0,.63-8.42m39-305.005c.23-.232.42-.578.7-.678,2.62-.938,5.25-1.835,7.88-2.743-3.21-.193-6.41-.392-9.62-.573a14.891,14.891,0,0,0-1.97,0c-1.75.135-4.58-.791-3.77,2.44.21.861,3.11,1.053,6.78,1.552m-74-48c1.38,2,2.68,4.068,4.23,5.928.23.28,1.73-.261,2.45-.718.34-.214.51-1.49.27-1.681a19.114,19.114,0,0,0-6.95-3.529m-33-229a13.3,13.3,0,0,0,.05,2.9c.15.667.8,1.22,1.23,1.824.9-1.563,2.64-3.209,2.5-4.665-.17-1.653-2.02-3.137-3.14-4.694a23.3,23.3,0,0,0-.64,4.64m107-5c-.22,1.117-.44,2.234-.65,3.351,2.89-.457,5.78-.881,8.66-1.426.27-.051.39-.867.58-1.328a6.57,6.57,0,0,0-1.71-.569c-1.62-.079-3.25-.028-6.88-.028m-88-236,6.09,1.907a7.347,7.347,0,0,0,.38-1.351,62.268,62.268,0,0,0-5.92-2.49c-.37-.126-1.03.6-.55,1.934m-22,672.005,4.68-.69c-.99-1.11-1.79-2.58-3.03-3.2-1.01-.51-2.54.01-3.84.07a16.6,16.6,0,0,0,2.19,3.82m-26-176.005c-.86,1.138-1.73,2.277-2.59,3.415l4.59.585a3.993,3.993,0,0,0-2-4m60,250.005c-.91-.43-1.87-1.27-2.71-1.16-.75.1-2,1.29-1.94,1.91.2,2.12,3.85,1.71,4.65-.75m-45-37c-.77-1-1.53-2-2.3-3-.57.56-1.13,1.13-1.7,1.7a4.86,4.86,0,0,0,4,1.3m33,69c1-.77,2-1.53,3-2.3-.57-.57-1.14-1.14-1.71-1.7a4.858,4.858,0,0,0-1.29,4m12-192.005c.01,1.334-.01,2.669.11,3.993a9.446,9.446,0,0,0,1.78,0,3.724,3.724,0,0,0-1.89-3.993m11-761c-1.43-.333-2.85-.759-4.3-.946-.47-.061-1.02.5-1.54.779a7.836,7.836,0,0,0,2.02,1.12c.9.2,1.88.047,3.82-.953m50,854.005a4.045,4.045,0,0,0-.67-.64c-.16-.1-.42-.05-.64-.06.18,1.23.35,2.46.52,3.7a2.8,2.8,0,0,0,.79-3m-135-467.005c-.05,1.283-.1,2.566-.16,3.848,1.04-.3,2.08-.594,3.11-.891l-2.95-2.957m109,425-3.27-2.738c-.24.513-.8,1.372-.68,1.485a4.338,4.338,0,0,0,3.95,1.253m30-602a44.019,44.019,0,0,0,4.3.947c.47.061,1.02-.5,1.53-.779a7.837,7.837,0,0,0-2.02-1.121c-.9-.2-1.87-.047-3.81.953m-94,232a6.9,6.9,0,0,0,.03,1.876,29.528,29.528,0,0,0,1.13,2.957,7.1,7.1,0,0,0,.77-2.475,2.222,2.222,0,0,0-1.93-2.358m108-230a33.753,33.753,0,0,0-2.26-2.949c-.11-.122-.97.442-1.48.688.91,1.087,1.82,2.174,3.74,2.261m-146,36c-1.43-.333-2.85-.758-4.3-.946-.47-.061-1.02.5-1.54.779a7.872,7.872,0,0,0,2.02,1.121c.9.195,1.88.046,3.82-.954m34,442c1.43.334,2.85.759,4.3.947.47.061,1.02-.5,1.53-.78a7.863,7.863,0,0,0-2.02-1.12c-.9-.2-1.87-.047-3.81.953m157-177,2.64-.646c-.55-.451-1.48-1.368-1.58-1.281-.95.777-4.29-2.086-1.06,1.927m-43-585c-1.06-.274-2.12-.56-3.19-.768-.03-.006-.22.808-.34,1.24a4.83,4.83,0,0,0,3.53-.472m34,1000.005c-.67.33-1.34.66-2,1,.66.33,1.33.66,2-1m37-13c.33.66.66,1.33,1,2,.33-.67.66-1.34-1-2m-109-383.005c-1.06-.274-2.12-.56-3.19-.768-.03-.006-.22.808-.34,1.24a4.83,4.83,0,0,0,3.53-.472m-25,5-2.53.529c.12.432.31,1.246.34,1.24,1.07-.208,2.13-.494,2.19-1.769m3,309.005c1.06.27,2.11.56,3.18.76a11.4,11.4,0,0,0,.35-1.24,4.84,4.84,0,0,0-3.53.48m18-20c-1.06-.28-2.12-.57-3.19-.77-.03-.01-.22.81-.34,1.24a4.879,4.879,0,0,0,3.53-.47m-56-20.005c-.18-.842-.36-1.685-.53-2.528-.43.117-1.25.309-1.24.342.21,1.071.49,2.128,1.77,2.186m160-234c.66-.333,1.33-.666,2-1-.67-.333-1.34-.666-2,1m-208,112c-1.06-.274-2.12-.56-3.19-.768-.03-.006-.22.808-.34,1.24a4.83,4.83,0,0,0,3.53-.472m44-4c.17.843.35,1.686.53,2.529.43-.118,1.24-.309,1.24-.342-.21-1.071-.5-2.128-1.77-2.187m-6-10c1.06.275,2.11.561,3.18.769a12.319,12.319,0,0,0,.35-1.24,4.828,4.828,0,0,0-3.53.471m124-60-1.2-.8c.06.6.13,1.2,1.2.8m-124-152-1.2-.8c.06.6.13,1.2,1.2.8m38,206-1.2-.8c.06.6.13,1.2,1.2.8m62,46,1.2.8c-.07-.6-.14-1.2-1.2-.8m46,58-1.2-.8c.06.6.13,1.2,1.2.8m-38-202,1.2.8c-.07-.6-.14-1.2-1.2-.8m36,240-1.2-.8c.06.6.13,1.2,1.2.8m-2-388-1.2-.8c.06.6.13,1.2,1.2.8m-6-18,1.2.8c-.07-.6-.14-1.2-1.2-.8m-59-43c-.27.4-.54.8-.8,1.2.6-.066,1.2-.133.8-1.2m46,486.005c.26-.4.53-.8.8-1.2-.6.06-1.2.13-.8,1.2m71,13c.4.26.8.53,1.2.8-.07-.6-.14-1.2-1.2-.8m-170,26c-.4-.27-.8-.54-1.2-.8.06.6.13,1.2,1.2.8m78,78c.4.26.8.53,1.2.8-.07-.6-.14-1.2-1.2-.8m36,12c-.4-.27-.8-.54-1.2-.8.06.6.13,1.2,1.2.8m-106-486.005-1.2-.8c.06.6.13,1.2,1.2.8m118,538.005c.4.26.8.53,1.2.8-.07-.6-.14-1.2-1.2-.8m-66-524.005-1.2-.8c.06.6.13,1.2,1.2.8m-62-666,1.2.8C2173.46,20.205,2173.39,19.605,2172.33,20.005Z" transform="translate(0 0)" fill="#4b5673"/>
      <path id="Path_1681" data-name="Path 1681" d="M2088.83,535.505a5.329,5.329,0,0,1,1.36,3.783c-.06.642-1.63,1.149-2.51,1.717.21-1.038.47-2.07.63-3.118A6.637,6.637,0,0,1,2088.83,535.505Z" transform="translate(0 0)" fill="#4b5673"/>
      <path id="Path_1682" data-name="Path 1682" d="M520.327,1359.01a25.386,25.386,0,0,1,3.646.64c-.225.45-.474,1.3-.671,1.29-1.539-.09-3.07-.35-4.6-.59a.9.9,0,0,1-.044-.65C518.813,1359.43,519.1,1359.23,520.327,1359.01Z" transform="translate(0 0)" fill="#4b5673"/>
      <path id="Path_1683" data-name="Path 1683" d="M1242.83,284.505a6.127,6.127,0,0,1-.46-3.315,7.912,7.912,0,0,1,1.12-2.017c.28.512.84,1.062.78,1.531A7.089,7.089,0,0,1,1242.83,284.505Z" transform="translate(0 0)" fill="#4b5673"/>
      <path id="Path_1684" data-name="Path 1684" d="M1244.83,435.505c.56.1.63.7.7,1.3A1.19,1.19,0,0,1,1244.83,435.505Z" transform="translate(0 0)" fill="#4b5673"/>
      <path id="Path_1685" data-name="Path 1685" d="M1247.83,500.505c-.57-.1-.64-.7-.7-1.3A1.192,1.192,0,0,1,1247.83,500.505Z" transform="translate(0 0)" fill="#4b5673"/>
      <path id="Path_1686" data-name="Path 1686" d="M1244.83,267.505c.56.1.63.7.7,1.3A1.19,1.19,0,0,1,1244.83,267.505Z" transform="translate(0 0)" fill="#4b5673"/>
      <path id="Path_1687" data-name="Path 1687" d="M1245.83,508.505c-.57-.1-.64-.7-.7-1.3A1.192,1.192,0,0,1,1245.83,508.505Z" transform="translate(0 0)" fill="#4b5673"/>
      <path id="Path_1688" data-name="Path 1688" d="M1248.83,194.505c.1-.566.7-.633,1.3-.7A1.2,1.2,0,0,1,1248.83,194.505Z" transform="translate(0 0)" fill="#4b5673"/>
    </g>
  </g>
</svg>
