<?xml version="1.0" encoding="utf-8"?>
<!-- Generator: Adobe Illustrator 25.2.1, SVG Export Plug-In . SVG Version: 6.00 Build 0)  -->
<svg version="1.1" id="Layer_1" xmlns="http://www.w3.org/2000/svg" xmlns:xlink="http://www.w3.org/1999/xlink" x="0px" y="0px"
	 viewBox="0 0 150 50" style="enable-background:new 0 0 150 50;" xml:space="preserve">
<style type="text/css">
	.st0{fill:#194159;}
	.st1{fill:#F9F6F0;}
</style>
<g transform="matrix(1, 0, 0, 1, 1525, 1951)">
	<g id="Union_4-2_1_" transform="matrix(-1, 0, 0, 1, 95, 30.12)">
		<path class="st0" d="M1611.9-1937.4l-13.1-7.5l-0.2-0.1h-0.3h-9.5c-1.5,0-2.9-0.6-3.9-1.6s-1.6-2.4-1.6-3.9v-11.8
			c0-1.5,0.6-2.9,1.6-3.9c1-1,2.4-1.6,3.9-1.6h19.8c1.5,0,2.9,0.6,3.9,1.6c1,1,1.6,2.4,1.6,3.9v11.8c0,1.1-0.3,2.2-1,3.1
			c-0.6,0.9-1.5,1.6-2.5,2l-0.8,0.3l0.2,0.8L1611.9-1937.4z"/>
		<path class="st1" d="M1610.5-1939.3l-1.2-4.8l-0.4-1.6l1.5-0.6c0.8-0.3,1.5-0.9,2.1-1.7c0.5-0.8,0.8-1.7,0.8-2.6v-11.8
			c0-1.2-0.5-2.4-1.3-3.2s-2-1.3-3.2-1.3h-19.8c-1.2,0-2.4,0.5-3.2,1.3s-1.3,2-1.3,3.2v11.8c0,1.2,0.5,2.4,1.3,3.2s2,1.3,3.2,1.3
			h9.5h0.5l0.4,0.3L1610.5-1939.3 M1613.4-1935.5l-15.1-8.6h-9.5c-3.6,0-6.5-2.9-6.5-6.5v-11.8c0-3.6,2.9-6.5,6.5-6.5h19.8
			c3.6,0,6.5,2.9,6.5,6.5v11.8c0,2.7-1.7,5-4,6L1613.4-1935.5z"/>
	</g>
</g>
<g transform="matrix(1, 0, 0, 1, 1525, 1951)">
	<g id="Union_3-2_1_" transform="translate(34 6)">
		<path class="st1" d="M-1516-1923.4l-12.7-6.6l-0.2-0.1h-0.2h-9c-1.5,0-2.9-0.6-3.9-1.6c-1-1-1.6-2.4-1.6-3.9v-11.8
			c0-1.5,0.6-2.9,1.6-3.9s2.4-1.6,3.9-1.6h19.8c1.5,0,2.9,0.6,3.9,1.6s1.6,2.4,1.6,3.9v11.8c0,1.2-0.4,2.3-1.1,3.3
			c-0.7,0.9-1.6,1.6-2.7,2l-0.8,0.3l0.2,0.8L-1516-1923.4z"/>
		<path class="st0" d="M-1517.3-1925.2l-0.8-4l-0.3-1.7l1.6-0.5c0.9-0.3,1.7-0.9,2.2-1.6c0.6-0.8,0.9-1.7,0.9-2.7v-11.8
			c0-1.2-0.5-2.4-1.3-3.2s-2-1.3-3.2-1.3h-19.8c-1.2,0-2.4,0.5-3.2,1.3s-1.3,2-1.3,3.2v11.8c0,1.2,0.5,2.4,1.3,3.2s2,1.3,3.2,1.3h9
			h0.5l0.4,0.2L-1517.3-1925.2 M-1514.7-1921.6l-14.5-7.6h-9c-3.6,0-6.5-2.9-6.5-6.5v-11.8c0-3.6,2.9-6.5,6.5-6.5h19.8
			c3.6,0,6.5,2.9,6.5,6.5v11.8c0,2.9-1.8,5.3-4.4,6.1L-1514.7-1921.6z"/>
	</g>
</g>
<g>
	<path class="st0" d="M58.7,14.4c2,0,3.7,0.2,5.2,1.4c1.7,1.3,2.7,3.3,2.7,5.6s-1,4.3-2.8,5.6c-1.6,1.2-3.2,1.3-5.1,1.3h-2.9v-14
		H58.7z M57.9,26.4h0.9c1,0,2.5-0.1,3.7-1c1-0.7,1.9-2.1,1.9-4c0-1.8-0.9-3.3-1.9-4c-1.2-0.9-2.7-1-3.7-1h-0.9V26.4z"/>
	<path class="st0" d="M68.9,19.5H71v0.8c0.2-0.3,0.6-0.6,0.9-0.7c0.4-0.2,0.8-0.3,1.3-0.3c0.5,0,1,0.1,1.6,0.4l-0.8,1.9
		c-0.5-0.3-0.8-0.3-1.1-0.3c-0.4,0-0.9,0.1-1.3,0.5c-0.6,0.6-0.6,1.4-0.6,2v4.6h-2.1V19.5z"/>
	<path class="st0" d="M83.2,26.4c-0.4,0.7-0.9,1.3-1.5,1.6c-0.7,0.5-1.7,0.7-2.6,0.7c-1.2,0-2.1-0.3-3-1.1c-0.8-0.8-1.3-2.1-1.3-3.4
		c0-1.4,0.5-2.7,1.4-3.6c0.7-0.7,1.7-1.2,3-1.2c1.4,0,2.3,0.6,2.8,1.2c1.1,1.2,1.2,2.8,1.2,3.7v0.3h-6.3c0,0.6,0.3,1.3,0.8,1.8
		c0.5,0.5,1.1,0.6,1.6,0.6c0.6,0,1-0.1,1.4-0.4c0.4-0.3,0.6-0.6,0.8-1L83.2,26.4z M81.1,22.8c-0.1-0.5-0.3-0.9-0.6-1.2
		c-0.3-0.3-0.7-0.5-1.4-0.5c-0.7,0-1.2,0.3-1.4,0.6c-0.3,0.3-0.5,0.7-0.6,1.1H81.1z"/>
	<path class="st0" d="M86.3,19.5l2.3,5.1l2.5-5.8l2.5,5.8l2.3-5.1h2.3L93.5,29L91,23.4L88.5,29L84,19.5H86.3z"/>
	<path class="st0" d="M106.9,14.4v12h4.1v2h-6.3v-14H106.9z"/>
	<path class="st0" d="M121.7,24c0,2.7-2.1,4.7-4.7,4.7c-2.7,0-4.7-2-4.7-4.7c0-2.7,2.1-4.7,4.7-4.7C119.6,19.3,121.7,21.2,121.7,24z
		 M119.6,24c0-2-1.3-2.8-2.6-2.8c-1.3,0-2.6,0.8-2.6,2.8c0,1.7,1,2.8,2.6,2.8C118.6,26.8,119.6,25.7,119.6,24z"/>
	<path class="st0" d="M123.8,19.5h2.1v0.8c0.9-1,1.9-1,2.4-1c1.6,0,2.3,0.8,2.6,1.2c0.3,0.5,0.5,1.1,0.5,2.5v5.4h-2.1v-4.9
		c0-2.2-0.8-2.3-1.6-2.3c-0.9,0-1.9,0.1-1.9,3v4.2h-2.1V19.5z"/>
	<path class="st0" d="M140.5,19.5h2.1v8.1c0,2.1-0.2,3.6-1.4,4.6c-0.6,0.5-1.5,0.9-2.9,0.9c-1,0-2.1-0.3-2.9-1.1
		c-0.7-0.7-1.2-1.7-1.3-2.8h2c0.1,0.5,0.3,1,0.7,1.4c0.3,0.3,0.8,0.6,1.6,0.6c0.9,0,1.4-0.3,1.6-0.6c0.7-0.7,0.7-1.6,0.7-2.2v-1.2
		c-0.9,1.2-2.1,1.3-2.7,1.3c-1.1,0-2.1-0.3-2.9-1.2c-0.8-0.8-1.3-2-1.3-3.5c0-1.6,0.6-2.7,1.3-3.4c0.9-0.9,1.9-1.2,3-1.2
		c0.9,0,1.9,0.3,2.6,1.2V19.5z M136.6,21.7c-0.5,0.5-0.9,1.3-0.9,2.2c0,0.9,0.3,1.7,0.9,2.2c0.4,0.3,0.9,0.6,1.6,0.6
		c0.7,0,1.2-0.2,1.7-0.7c0.6-0.7,0.8-1.4,0.8-2.1c0-1-0.3-1.7-0.8-2.2c-0.5-0.5-1.1-0.6-1.7-0.6C137.5,21.2,137,21.3,136.6,21.7z"/>
</g>
</svg>
